%TF.GenerationSoftware,KiCad,Pcbnew,9.0.0*%
%TF.CreationDate,2025-04-09T09:42:29-03:00*%
%TF.ProjectId,bluepill_scsi,626c7565-7069-46c6-9c5f-736373692e6b,rev?*%
%TF.SameCoordinates,Original*%
%TF.FileFunction,Copper,L2,Bot*%
%TF.FilePolarity,Positive*%
%FSLAX46Y46*%
G04 Gerber Fmt 4.6, Leading zero omitted, Abs format (unit mm)*
G04 Created by KiCad (PCBNEW 9.0.0) date 2025-04-09 09:42:29*
%MOMM*%
%LPD*%
G01*
G04 APERTURE LIST*
%TA.AperFunction,ComponentPad*%
%ADD10R,1.600000X1.600000*%
%TD*%
%TA.AperFunction,ComponentPad*%
%ADD11O,1.600000X1.600000*%
%TD*%
%TA.AperFunction,ComponentPad*%
%ADD12O,1.000000X1.600000*%
%TD*%
%TA.AperFunction,ComponentPad*%
%ADD13C,4.000000*%
%TD*%
%TA.AperFunction,ComponentPad*%
%ADD14C,1.600000*%
%TD*%
%TA.AperFunction,ComponentPad*%
%ADD15R,2.000000X1.500000*%
%TD*%
%TA.AperFunction,ComponentPad*%
%ADD16O,1.100000X1.100000*%
%TD*%
%TA.AperFunction,ComponentPad*%
%ADD17O,1.700000X1.727200*%
%TD*%
%TA.AperFunction,ComponentPad*%
%ADD18O,2.250000X1.727200*%
%TD*%
%TA.AperFunction,ComponentPad*%
%ADD19R,1.800000X1.800000*%
%TD*%
%TA.AperFunction,ComponentPad*%
%ADD20O,1.800000X1.800000*%
%TD*%
%TA.AperFunction,SMDPad,CuDef*%
%ADD21R,0.850000X1.100000*%
%TD*%
%TA.AperFunction,SMDPad,CuDef*%
%ADD22R,0.750000X1.100000*%
%TD*%
%TA.AperFunction,SMDPad,CuDef*%
%ADD23R,1.200000X1.000000*%
%TD*%
%TA.AperFunction,SMDPad,CuDef*%
%ADD24R,1.550000X1.350000*%
%TD*%
%TA.AperFunction,SMDPad,CuDef*%
%ADD25R,1.900000X1.350000*%
%TD*%
%TA.AperFunction,SMDPad,CuDef*%
%ADD26R,1.170000X1.800000*%
%TD*%
%TA.AperFunction,ViaPad*%
%ADD27C,5.000000*%
%TD*%
%TA.AperFunction,ViaPad*%
%ADD28C,1.400000*%
%TD*%
%TA.AperFunction,ViaPad*%
%ADD29C,1.200000*%
%TD*%
%TA.AperFunction,Conductor*%
%ADD30C,0.500000*%
%TD*%
%TA.AperFunction,Conductor*%
%ADD31C,0.350000*%
%TD*%
%TA.AperFunction,Conductor*%
%ADD32C,0.400000*%
%TD*%
%TA.AperFunction,Conductor*%
%ADD33C,0.250000*%
%TD*%
%TA.AperFunction,Profile*%
%ADD34C,0.050000*%
%TD*%
G04 APERTURE END LIST*
D10*
%TO.P,RN1,1*%
%TO.N,VCC*%
X108315000Y-98175000D03*
D11*
%TO.P,RN1,2*%
%TO.N,/SCSI_DAT0*%
X108315000Y-100715000D03*
%TO.P,RN1,3*%
%TO.N,/SCSI_DAT1*%
X108315000Y-103255000D03*
%TO.P,RN1,4*%
%TO.N,/SCSI_DAT3*%
X108315000Y-105795000D03*
%TO.P,RN1,5*%
%TO.N,/SCSI_DAT2*%
X108315000Y-108335000D03*
%TO.P,RN1,6*%
%TO.N,/SCSI_DBP*%
X108315000Y-110875000D03*
%TO.P,RN1,7*%
%TO.N,/SCSI_DAT4*%
X108315000Y-113415000D03*
%TO.P,RN1,8*%
%TO.N,/SCSI_DAT5*%
X108315000Y-115955000D03*
%TO.P,RN1,9*%
%TO.N,/SCSI_DAT6*%
X108315000Y-118495000D03*
%TO.P,RN1,10*%
%TO.N,/SCSI_DAT7*%
X108315000Y-121035000D03*
%TD*%
D10*
%TO.P,RN2,1*%
%TO.N,GND*%
X112125000Y-98175000D03*
D11*
%TO.P,RN2,2*%
%TO.N,/SCSI_DAT0*%
X112125000Y-100715000D03*
%TO.P,RN2,3*%
%TO.N,/SCSI_DAT1*%
X112125000Y-103255000D03*
%TO.P,RN2,4*%
%TO.N,/SCSI_DAT3*%
X112125000Y-105795000D03*
%TO.P,RN2,5*%
%TO.N,/SCSI_DAT2*%
X112125000Y-108335000D03*
%TO.P,RN2,6*%
%TO.N,/SCSI_DBP*%
X112125000Y-110875000D03*
%TO.P,RN2,7*%
%TO.N,/SCSI_DAT4*%
X112125000Y-113415000D03*
%TO.P,RN2,8*%
%TO.N,/SCSI_DAT5*%
X112125000Y-115955000D03*
%TO.P,RN2,9*%
%TO.N,/SCSI_DAT6*%
X112125000Y-118495000D03*
%TO.P,RN2,10*%
%TO.N,/SCSI_DAT7*%
X112125000Y-121035000D03*
%TD*%
D12*
%TO.P,RN3,2*%
%TO.N,/SCSI_ATN*%
X108315000Y-127385000D03*
D10*
%TO.P,RN3,1*%
%TO.N,VCC*%
X108315000Y-124845000D03*
D11*
%TO.P,RN3,3*%
%TO.N,/SCSI_BSY*%
X108315000Y-129925000D03*
%TO.P,RN3,4*%
%TO.N,/SCSI_ACK*%
X108315000Y-132465000D03*
%TO.P,RN3,5*%
%TO.N,/SCSI_RST*%
X108315000Y-135005000D03*
%TO.P,RN3,6*%
%TO.N,/SCSI_MSG*%
X108315000Y-137545000D03*
%TO.P,RN3,7*%
%TO.N,/SCSI_SEL*%
X108315000Y-140085000D03*
%TO.P,RN3,8*%
%TO.N,/SCSI_CD*%
X108315000Y-142625000D03*
%TO.P,RN3,9*%
%TO.N,/SCSI_REQ*%
X108315000Y-145165000D03*
%TO.P,RN3,10*%
%TO.N,/SCSI_IO*%
X108315000Y-147705000D03*
%TD*%
D10*
%TO.P,RN4,1*%
%TO.N,GND*%
X112125000Y-124845000D03*
D11*
%TO.P,RN4,2*%
%TO.N,/SCSI_ATN*%
X112125000Y-127385000D03*
%TO.P,RN4,3*%
%TO.N,/SCSI_BSY*%
X112125000Y-129925000D03*
%TO.P,RN4,4*%
%TO.N,/SCSI_ACK*%
X112125000Y-132465000D03*
%TO.P,RN4,5*%
%TO.N,/SCSI_RST*%
X112125000Y-135005000D03*
%TO.P,RN4,6*%
%TO.N,/SCSI_MSG*%
X112125000Y-137545000D03*
%TO.P,RN4,7*%
%TO.N,/SCSI_SEL*%
X112125000Y-140085000D03*
%TO.P,RN4,8*%
%TO.N,/SCSI_CD*%
X112125000Y-142625000D03*
%TO.P,RN4,9*%
%TO.N,/SCSI_REQ*%
X112125000Y-145165000D03*
%TO.P,RN4,10*%
%TO.N,/SCSI_IO*%
X112125000Y-147705000D03*
%TD*%
D13*
%TO.P,J2,0*%
%TO.N,GND*%
X117635000Y-146385000D03*
X117635000Y-99285000D03*
D10*
%TO.P,J2,1*%
%TO.N,/SCSI_REQ*%
X117335000Y-139455000D03*
D14*
%TO.P,J2,2*%
%TO.N,/SCSI_MSG*%
X117335000Y-136685000D03*
%TO.P,J2,3*%
%TO.N,/SCSI_IO*%
X117335000Y-133915000D03*
%TO.P,J2,4*%
%TO.N,/SCSI_RST*%
X117335000Y-131145000D03*
%TO.P,J2,5*%
%TO.N,/SCSI_ACK*%
X117335000Y-128375000D03*
%TO.P,J2,6*%
%TO.N,/SCSI_BSY*%
X117335000Y-125605000D03*
%TO.P,J2,7*%
%TO.N,GND*%
X117335000Y-122835000D03*
%TO.P,J2,8*%
%TO.N,/SCSI_DAT0*%
X117335000Y-120065000D03*
%TO.P,J2,9*%
%TO.N,GND*%
X117335000Y-117295000D03*
%TO.P,J2,10*%
%TO.N,/SCSI_DAT3*%
X117335000Y-114525000D03*
%TO.P,J2,11*%
%TO.N,/SCSI_DAT5*%
X117335000Y-111755000D03*
%TO.P,J2,12*%
%TO.N,/SCSI_DAT6*%
X117335000Y-108985000D03*
%TO.P,J2,13*%
%TO.N,/SCSI_DAT7*%
X117335000Y-106215000D03*
%TO.P,J2,14*%
%TO.N,GND*%
X120175000Y-138070000D03*
%TO.P,J2,15*%
%TO.N,/SCSI_CD*%
X120175000Y-135300000D03*
%TO.P,J2,16*%
%TO.N,GND*%
X120175000Y-132530000D03*
%TO.P,J2,17*%
%TO.N,/SCSI_ATN*%
X120175000Y-129760000D03*
%TO.P,J2,18*%
%TO.N,GND*%
X120175000Y-126990000D03*
%TO.P,J2,19*%
%TO.N,/SCSI_SEL*%
X120175000Y-124220000D03*
%TO.P,J2,20*%
%TO.N,/SCSI_DBP*%
X120175000Y-121450000D03*
%TO.P,J2,21*%
%TO.N,/SCSI_DAT1*%
X120175000Y-118680000D03*
%TO.P,J2,22*%
%TO.N,/SCSI_DAT2*%
X120175000Y-115910000D03*
%TO.P,J2,23*%
%TO.N,/SCSI_DAT4*%
X120175000Y-113140000D03*
%TO.P,J2,24*%
%TO.N,GND*%
X120175000Y-110370000D03*
%TO.P,J2,25*%
%TO.N,/TERM_PWR*%
X120175000Y-107600000D03*
%TD*%
D15*
%TO.P,U1,1*%
%TO.N,N/C*%
X104835000Y-147464800D03*
D16*
%TO.P,U1,2*%
X104835000Y-144924800D03*
%TO.P,U1,3*%
X104835000Y-142384800D03*
%TO.P,U1,4*%
X104835000Y-139844800D03*
%TO.P,U1,5*%
X104835000Y-137304800D03*
%TO.P,U1,6*%
X104835000Y-134764800D03*
%TO.P,U1,7*%
X104835000Y-132224800D03*
%TO.P,U1,8*%
X104835000Y-129684800D03*
D17*
%TO.P,U1,9*%
%TO.N,/SD_CS*%
X104835000Y-127144800D03*
%TO.P,U1,10*%
%TO.N,/SD_CLK*%
X104835000Y-124604800D03*
%TO.P,U1,11*%
%TO.N,/SD_MISO*%
X104835000Y-122064800D03*
%TO.P,U1,12*%
%TO.N,/SD_MOSI*%
X104835000Y-119524800D03*
%TO.P,U1,13*%
%TO.N,/SCSI_DBP*%
X104835000Y-116984800D03*
D16*
%TO.P,U1,14*%
%TO.N,N/C*%
X104835000Y-114444800D03*
D18*
%TO.P,U1,15*%
%TO.N,/SCSI_DAT2*%
X104835000Y-111904800D03*
%TO.P,U1,16*%
%TO.N,/SCSI_DAT3*%
X104835000Y-109364800D03*
D16*
%TO.P,U1,17*%
%TO.N,N/C*%
X104835000Y-106824800D03*
D18*
%TO.P,U1,18*%
%TO.N,+3V3*%
X104835000Y-104284800D03*
%TO.P,U1,19*%
%TO.N,GND*%
X104835000Y-101744800D03*
%TO.P,U1,20*%
X104835000Y-99204800D03*
%TO.P,U1,21*%
%TO.N,/SCSI_DAT4*%
X89595000Y-99204800D03*
%TO.P,U1,22*%
%TO.N,/SCSI_DAT5*%
X89595000Y-101744800D03*
%TO.P,U1,23*%
%TO.N,/SCSI_DAT6*%
X89595000Y-104284800D03*
%TO.P,U1,24*%
%TO.N,/SCSI_DAT7*%
X89595000Y-106824800D03*
%TO.P,U1,25*%
%TO.N,/SCSI_ATN*%
X89595000Y-109364800D03*
%TO.P,U1,26*%
%TO.N,/SCSI_BSY*%
X89595000Y-111904800D03*
%TO.P,U1,27*%
%TO.N,/SCSI_ACK*%
X89595000Y-114444800D03*
%TO.P,U1,28*%
%TO.N,N/C*%
X89595000Y-116984800D03*
%TO.P,U1,29*%
X89595000Y-119524800D03*
%TO.P,U1,30*%
%TO.N,/SCSI_RST*%
X89595000Y-122064800D03*
%TO.P,U1,31*%
%TO.N,/SCSI_MSG*%
X89595000Y-124604800D03*
%TO.P,U1,32*%
%TO.N,/SCSI_SEL*%
X89595000Y-127144800D03*
%TO.P,U1,33*%
%TO.N,/SCSI_CD*%
X89595000Y-129684800D03*
%TO.P,U1,34*%
%TO.N,/SCSI_REQ*%
X89595000Y-132224800D03*
%TO.P,U1,35*%
%TO.N,/SCSI_IO*%
X89595000Y-134764800D03*
%TO.P,U1,36*%
%TO.N,/SCSI_DAT0*%
X89595000Y-137304800D03*
%TO.P,U1,37*%
%TO.N,/SCSI_DAT1*%
X89595000Y-139844800D03*
%TO.P,U1,38*%
%TO.N,VCC*%
X89595000Y-142384800D03*
%TO.P,U1,39*%
%TO.N,GND*%
X89595000Y-144924800D03*
%TO.P,U1,40*%
%TO.N,+3V3*%
X89595000Y-147515600D03*
%TD*%
D19*
%TO.P,D5,1*%
%TO.N,VCC*%
X95375000Y-140925000D03*
D20*
%TO.P,D5,2*%
%TO.N,/TERM_PWR*%
X95375000Y-148545000D03*
%TD*%
D21*
%TO.P,J5,1*%
%TO.N,N/C*%
X100235000Y-96955000D03*
%TO.P,J5,2*%
%TO.N,/SD_CS*%
X99135000Y-96955000D03*
%TO.P,J5,3*%
%TO.N,/SD_MOSI*%
X98035000Y-96955000D03*
%TO.P,J5,4*%
%TO.N,+3V3*%
X96935000Y-96955000D03*
%TO.P,J5,5*%
%TO.N,/SD_CLK*%
X95835000Y-96955000D03*
%TO.P,J5,6*%
%TO.N,GND*%
X94735000Y-96955000D03*
%TO.P,J5,7*%
%TO.N,/SD_MISO*%
X93635000Y-96955000D03*
D22*
%TO.P,J5,8*%
%TO.N,N/C*%
X92585000Y-96955000D03*
D23*
%TO.P,J5,9*%
%TO.N,GND*%
X102870000Y-103105000D03*
%TO.P,J5,10*%
%TO.N,N/C*%
X102870000Y-106805000D03*
D24*
%TO.P,J5,11*%
X102695000Y-97080000D03*
D25*
X99370000Y-107780000D03*
X93400000Y-107780000D03*
D26*
X91375000Y-97305000D03*
%TD*%
D27*
%TO.N,*%
X73089000Y-149955000D03*
X139714000Y-149955000D03*
X139714000Y-96139000D03*
X73089000Y-96139000D03*
D28*
%TO.N,/SD_MISO*%
X93585000Y-105065000D03*
D29*
%TO.N,GND*%
X94745000Y-98785000D03*
D28*
X98265000Y-146045000D03*
X95785000Y-123835000D03*
X92265000Y-119255000D03*
D29*
%TO.N,+3V3*%
X96885000Y-100205000D03*
D28*
%TO.N,/SD_CS*%
X98675000Y-111865000D03*
%TO.N,/SCSI_DBP*%
X115645000Y-105145000D03*
X123615000Y-103995000D03*
%TO.N,/SCSI_DAT7*%
X97450000Y-114500000D03*
D29*
%TO.N,/SCSI_DAT6*%
X115655000Y-113675000D03*
D28*
%TO.N,/SCSI_DAT3*%
X114165000Y-108145000D03*
%TO.N,/SCSI_DAT1*%
X98065000Y-141765000D03*
D29*
X110045000Y-131235000D03*
D28*
%TO.N,/SCSI_DAT0*%
X92875000Y-136675000D03*
%TD*%
D30*
%TO.N,/SCSI_IO*%
X93644800Y-134764800D02*
X91725000Y-134764800D01*
X100055000Y-141175000D02*
X93644800Y-134764800D01*
X100055000Y-143515000D02*
X100055000Y-141175000D01*
X102615000Y-146075000D02*
X100055000Y-143515000D01*
X106955000Y-147470300D02*
X106955000Y-146545000D01*
X106955000Y-146545000D02*
X106485000Y-146075000D01*
X107189700Y-147705000D02*
X106955000Y-147470300D01*
X106485000Y-146075000D02*
X102615000Y-146075000D01*
X108315000Y-147705000D02*
X107189700Y-147705000D01*
D31*
%TO.N,/SD_MISO*%
X93635000Y-96955000D02*
X93635000Y-100075000D01*
D30*
X93635000Y-100075000D02*
X93635000Y-105015000D01*
D31*
X93635000Y-105015000D02*
X93585000Y-105065000D01*
D32*
%TO.N,GND*%
X110585000Y-99715000D02*
X110585000Y-123941000D01*
X112125000Y-98175000D02*
X110585000Y-99715000D01*
X110585000Y-123941000D02*
X111807000Y-125163000D01*
D33*
%TO.N,/SD_CLK*%
X104834900Y-124604900D02*
X104835000Y-124605000D01*
X104504800Y-124275000D02*
X104834900Y-123944900D01*
D30*
X95835000Y-106455000D02*
X95835000Y-114945000D01*
X95835000Y-104775000D02*
X95835000Y-106455000D01*
X103580600Y-124275000D02*
X104504800Y-124275000D01*
X102685000Y-123379400D02*
X103580600Y-124275000D01*
X102685000Y-121795000D02*
X102685000Y-123379400D01*
D33*
X104835000Y-124604800D02*
X104834900Y-124604900D01*
D30*
X104834900Y-123944900D02*
X104834900Y-124604900D01*
X95835000Y-101425000D02*
X95835000Y-104775000D01*
X95835000Y-114945000D02*
X102685000Y-121795000D01*
D31*
X95835000Y-96955000D02*
X95835000Y-101425000D01*
D30*
%TO.N,+3V3*%
X96885000Y-100205000D02*
X96835000Y-100155000D01*
D33*
X96835000Y-97055000D02*
X96935000Y-96955000D01*
D30*
X96835000Y-100155000D02*
X96835000Y-97055000D01*
%TO.N,/SD_MOSI*%
X104364900Y-119524900D02*
X97275000Y-112435000D01*
X98035000Y-105695000D02*
X98035000Y-101465000D01*
D31*
X98035000Y-101465000D02*
X98035000Y-96955000D01*
D33*
X104834900Y-119524900D02*
X104835000Y-119525000D01*
D30*
X104834900Y-119524900D02*
X104364900Y-119524900D01*
X97275000Y-112435000D02*
X97275000Y-106455000D01*
D33*
X104835000Y-119524800D02*
X104834900Y-119524900D01*
D30*
X97275000Y-106455000D02*
X98035000Y-105695000D01*
%TO.N,/SD_CS*%
X100705000Y-105785000D02*
X99585000Y-105785000D01*
X99585000Y-105785000D02*
X99135000Y-105335000D01*
X101315000Y-111415000D02*
X101315000Y-106395000D01*
X98675000Y-111865000D02*
X100865000Y-111865000D01*
X101315000Y-106395000D02*
X100705000Y-105785000D01*
X100865000Y-111865000D02*
X101315000Y-111415000D01*
X99135000Y-105335000D02*
X99135000Y-96955000D01*
%TO.N,/SCSI_IO*%
X91725000Y-134764800D02*
X89595000Y-134764800D01*
D33*
X91725000Y-134764800D02*
X92244800Y-134764800D01*
D30*
%TO.N,/SCSI_REQ*%
X102405000Y-141685000D02*
X92944800Y-132224800D01*
X108315000Y-145165000D02*
X107189700Y-145165000D01*
D33*
X117335000Y-139955000D02*
X117335000Y-139455000D01*
X102655400Y-143654800D02*
X102575000Y-143574400D01*
D30*
X107189700Y-145165000D02*
X105679500Y-143654800D01*
X102575000Y-143574400D02*
X102405000Y-143404400D01*
X102405000Y-143404400D02*
X102405000Y-141685000D01*
X112125000Y-145165000D02*
X117335000Y-139955000D01*
X92944800Y-132224800D02*
X89595000Y-132224800D01*
X105679500Y-143654800D02*
X102655400Y-143654800D01*
%TO.N,/SCSI_CD*%
X108264000Y-142574000D02*
X106804800Y-141114800D01*
X106804800Y-141114800D02*
X103405000Y-141114800D01*
X91975000Y-129684800D02*
X103405000Y-141114800D01*
D33*
X108264000Y-142574000D02*
X108315000Y-142625000D01*
D30*
X114445000Y-140305000D02*
X114445000Y-139430000D01*
X89595000Y-129684800D02*
X91975000Y-129684800D01*
D31*
X115860000Y-138015000D02*
X118115000Y-138015000D01*
D30*
X114445000Y-139430000D02*
X115860000Y-138015000D01*
X120175000Y-135955000D02*
X120175000Y-135300000D01*
X112125000Y-142625000D02*
X114445000Y-140305000D01*
D31*
X118115000Y-138015000D02*
X120175000Y-135955000D01*
D33*
%TO.N,/SCSI_SEL*%
X108264000Y-140034000D02*
X108315000Y-140085000D01*
D30*
X114295000Y-137915000D02*
X114295000Y-134770000D01*
X114295000Y-134770000D02*
X116600000Y-132465000D01*
X89595000Y-127144800D02*
X91590900Y-127144800D01*
D31*
X118795000Y-132015000D02*
X118795000Y-131350000D01*
X118795000Y-131350000D02*
X118795000Y-125600000D01*
D30*
X112125000Y-140085000D02*
X114295000Y-137915000D01*
X106738900Y-138508900D02*
X108264000Y-140034000D01*
D31*
X118345000Y-132465000D02*
X118795000Y-132015000D01*
X116600000Y-132465000D02*
X118345000Y-132465000D01*
D30*
X102955000Y-138508900D02*
X106738900Y-138508900D01*
D31*
X118795000Y-125600000D02*
X120175000Y-124220000D01*
D30*
X91590900Y-127144800D02*
X102955000Y-138508900D01*
%TO.N,/SCSI_RST*%
X105669700Y-133485000D02*
X103232200Y-133485000D01*
X103232200Y-133485000D02*
X102635000Y-133485000D01*
X112125000Y-134945000D02*
X112125000Y-135005000D01*
X91214800Y-122064800D02*
X89595000Y-122064800D01*
X117335000Y-131145000D02*
X115925000Y-131145000D01*
X102635000Y-133485000D02*
X91214800Y-122064800D01*
X107189700Y-135005000D02*
X105669700Y-133485000D01*
X115925000Y-131145000D02*
X112125000Y-134945000D01*
X108315000Y-135005000D02*
X107189700Y-135005000D01*
D33*
X103232200Y-133485000D02*
X103155000Y-133562200D01*
%TO.N,/SCSI_ACK*%
X107189700Y-132465000D02*
X107095000Y-132465000D01*
D30*
X107095000Y-132465000D02*
X105528500Y-130898500D01*
X105528500Y-130898500D02*
X103248500Y-130898500D01*
X89595000Y-114444800D02*
X98335000Y-123184800D01*
X103078500Y-130898500D02*
X103248500Y-130898500D01*
X112125000Y-132465000D02*
X116085000Y-128505000D01*
X116085000Y-128505000D02*
X117335000Y-128505000D01*
D33*
X117335000Y-128505000D02*
X117335000Y-128375000D01*
D30*
X98335000Y-123184800D02*
X98335000Y-126155000D01*
X108315000Y-132465000D02*
X107189700Y-132465000D01*
X98335000Y-126155000D02*
X103078500Y-130898500D01*
%TO.N,/SCSI_BSY*%
X113021441Y-129925000D02*
X117335000Y-125611441D01*
D33*
X89595000Y-111904800D02*
X89595000Y-112499300D01*
X117335000Y-125611441D02*
X117335000Y-125605000D01*
D30*
X112125000Y-129925000D02*
X113021441Y-129925000D01*
D33*
%TO.N,/SCSI_ATN*%
X103553210Y-125819700D02*
X105624400Y-125819700D01*
D30*
X101185000Y-123451490D02*
X103527910Y-125794400D01*
X94498950Y-115508950D02*
X101185000Y-122195000D01*
X94498950Y-113168950D02*
X94498950Y-115508950D01*
X107189700Y-127385000D02*
X108315000Y-127385000D01*
X90694800Y-109364800D02*
X94498950Y-113168950D01*
D33*
X105624400Y-125819700D02*
X107189700Y-127385000D01*
D30*
X89595000Y-109364800D02*
X90694800Y-109364800D01*
D33*
X103527910Y-125794400D02*
X103553210Y-125819700D01*
D30*
X101185000Y-122195000D02*
X101185000Y-123451490D01*
%TO.N,/SCSI_MSG*%
X105669700Y-136025000D02*
X107189700Y-137545000D01*
X102903100Y-136025000D02*
X105669700Y-136025000D01*
X102766900Y-136025000D02*
X91346700Y-124604800D01*
X107189700Y-137545000D02*
X108315000Y-137545000D01*
X91346700Y-124604800D02*
X89595000Y-124604800D01*
X102903100Y-136025000D02*
X102766900Y-136025000D01*
%TO.N,/SCSI_DBP*%
X104835000Y-116984800D02*
X106685000Y-115134800D01*
X106685000Y-112505000D02*
X108315000Y-110875000D01*
X116965000Y-103825000D02*
X115645000Y-105145000D01*
X106685000Y-115134800D02*
X106685000Y-112505000D01*
D33*
X104835000Y-116985000D02*
X104945000Y-117095000D01*
D30*
X123445000Y-103825000D02*
X116965000Y-103825000D01*
D33*
X112125000Y-110875000D02*
X112125000Y-111344000D01*
D30*
X123615000Y-103995000D02*
X123445000Y-103825000D01*
D33*
%TO.N,/SCSI_DAT7*%
X106949500Y-120794800D02*
X103667100Y-120794800D01*
D30*
X107189700Y-121035000D02*
X106949500Y-120794800D01*
X97450000Y-114577700D02*
X103667100Y-120794800D01*
X108315000Y-121035000D02*
X107189700Y-121035000D01*
X97450000Y-114500000D02*
X97450000Y-114577700D01*
%TO.N,/SCSI_DAT6*%
X115655000Y-113675000D02*
X115575000Y-113595000D01*
X115575000Y-110745000D02*
X117335000Y-108985000D01*
X115575000Y-113595000D02*
X115575000Y-110745000D01*
%TO.N,/SCSI_DAT3*%
X114045000Y-113885000D02*
X115505000Y-115345000D01*
X115505000Y-115345000D02*
X116545000Y-115345000D01*
D33*
X116545000Y-115345000D02*
X116545000Y-115315000D01*
D30*
X116545000Y-115315000D02*
X117335000Y-114525000D01*
X114045000Y-108265000D02*
X114045000Y-113885000D01*
X114165000Y-108145000D02*
X114045000Y-108265000D01*
D31*
%TO.N,/SCSI_DAT2*%
X118055000Y-107555000D02*
X115895000Y-107555000D01*
D30*
X113555000Y-106735000D02*
X112125000Y-108165000D01*
D31*
X118055000Y-107555000D02*
X118835000Y-108335000D01*
X118835000Y-114570000D02*
X120175000Y-115910000D01*
X118835000Y-108335000D02*
X118835000Y-114570000D01*
D30*
X115075000Y-106735000D02*
X113555000Y-106735000D01*
X115895000Y-107555000D02*
X115075000Y-106735000D01*
X112125000Y-108165000D02*
X112125000Y-108335000D01*
D33*
%TO.N,/SCSI_DAT1*%
X120175000Y-118680000D02*
X120175000Y-119335000D01*
D31*
X117990000Y-121450000D02*
X115070000Y-121450000D01*
D30*
X95975000Y-138615000D02*
X94345000Y-138615000D01*
X94345000Y-138615000D02*
X93115200Y-139844800D01*
X98065000Y-140705000D02*
X95975000Y-138615000D01*
X113945000Y-122575000D02*
X113945000Y-127675000D01*
X115070000Y-121450000D02*
X113945000Y-122575000D01*
X93115200Y-139844800D02*
X89595000Y-139844800D01*
D33*
X110045000Y-129995200D02*
X111385200Y-128655000D01*
D30*
X98065000Y-141765000D02*
X98065000Y-140705000D01*
D33*
X110045000Y-131235000D02*
X110045000Y-129995200D01*
X111385200Y-128655000D02*
X112965000Y-128655000D01*
X112965000Y-128655000D02*
X113945000Y-127675000D01*
D31*
X120105000Y-119335000D02*
X117990000Y-121450000D01*
D30*
X120175000Y-119335000D02*
X120105000Y-119335000D01*
%TO.N,/SCSI_DAT0*%
X92875000Y-136675000D02*
X92235000Y-137315000D01*
X91855000Y-137315000D02*
X91055500Y-137315000D01*
X91045300Y-137304800D02*
X89595000Y-137304800D01*
X92235000Y-137315000D02*
X91855000Y-137315000D01*
X91055500Y-137315000D02*
X91045300Y-137304800D01*
D33*
%TO.N,VCC*%
X108129000Y-124395000D02*
X107997000Y-124527000D01*
X108579000Y-124845000D02*
X108129000Y-124395000D01*
D32*
X109745000Y-124050000D02*
X109745000Y-99605000D01*
D33*
X108579000Y-124845000D02*
X108950000Y-124845000D01*
X108315000Y-124845000D02*
X108579000Y-124845000D01*
D30*
X89595000Y-142384800D02*
X93915200Y-142384800D01*
X93915200Y-142384800D02*
X95375000Y-140925000D01*
D32*
X89595000Y-142385000D02*
X89595200Y-142385000D01*
X109745000Y-99605000D02*
X108315000Y-98175000D01*
D33*
X89595200Y-142385000D02*
X89595000Y-142384800D01*
D32*
X108950000Y-124845000D02*
X109745000Y-124050000D01*
D30*
%TO.N,/TERM_PWR*%
X120175000Y-107600000D02*
X122230000Y-107600000D01*
X124085000Y-146805000D02*
X121745000Y-149145000D01*
X124085000Y-109455000D02*
X124085000Y-146805000D01*
D32*
X120394762Y-107819762D02*
X120849762Y-107819762D01*
D30*
X122230000Y-107600000D02*
X124085000Y-109455000D01*
D32*
X120175000Y-107600000D02*
X120394762Y-107819762D01*
D30*
X121745000Y-149145000D02*
X95975000Y-149145000D01*
X95975000Y-149145000D02*
X95375000Y-148545000D01*
%TO.N,/SCSI_BSY*%
X107195000Y-129925000D02*
X108315000Y-129925000D01*
X105925000Y-128655000D02*
X107195000Y-129925000D01*
X102575000Y-128055000D02*
X103175000Y-128655000D01*
X102575000Y-126385000D02*
X102575000Y-128055000D01*
X103175000Y-128655000D02*
X105925000Y-128655000D01*
X99645000Y-123455000D02*
X102575000Y-126385000D01*
X92915000Y-115885000D02*
X99645000Y-122615000D01*
X90214800Y-111904800D02*
X92915000Y-114605000D01*
X99645000Y-122615000D02*
X99645000Y-123455000D01*
X89595000Y-111904800D02*
X90214800Y-111904800D01*
X92915000Y-114605000D02*
X92915000Y-115885000D01*
%TD*%
%TA.AperFunction,Conductor*%
%TO.N,GND*%
G36*
X96886622Y-142092852D02*
G01*
X96916872Y-142142214D01*
X96945040Y-142228907D01*
X97028187Y-142392090D01*
X97031398Y-142398392D01*
X97143208Y-142552285D01*
X97277715Y-142686792D01*
X97431608Y-142798602D01*
X97511683Y-142839402D01*
X97601092Y-142884959D01*
X97601094Y-142884959D01*
X97601097Y-142884961D01*
X97682788Y-142911504D01*
X97782008Y-142943743D01*
X97969884Y-142973500D01*
X97969889Y-142973500D01*
X98160116Y-142973500D01*
X98347991Y-142943743D01*
X98385954Y-142931408D01*
X98528903Y-142884961D01*
X98698392Y-142798602D01*
X98852285Y-142686792D01*
X98986792Y-142552285D01*
X99072182Y-142434756D01*
X99127512Y-142392090D01*
X99197125Y-142386111D01*
X99258920Y-142418717D01*
X99293278Y-142479556D01*
X99296500Y-142507641D01*
X99296500Y-143589709D01*
X99325647Y-143736239D01*
X99325649Y-143736247D01*
X99382825Y-143874282D01*
X99465835Y-143998517D01*
X102211883Y-146744565D01*
X102336108Y-146827569D01*
X102336112Y-146827571D01*
X102336115Y-146827573D01*
X102474153Y-146884751D01*
X102620690Y-146913899D01*
X102620693Y-146913900D01*
X102620695Y-146913900D01*
X102770107Y-146913900D01*
X102770108Y-146913899D01*
X102916646Y-146884751D01*
X103030047Y-146837777D01*
X103099516Y-146830309D01*
X103161995Y-146861584D01*
X103197648Y-146921672D01*
X103201500Y-146952339D01*
X103201500Y-148122500D01*
X103181815Y-148189539D01*
X103129011Y-148235294D01*
X103077500Y-148246500D01*
X97739122Y-148246500D01*
X97672083Y-148226815D01*
X97651441Y-148210181D01*
X97474772Y-148033511D01*
X97474771Y-148033510D01*
X97366920Y-147961447D01*
X97366919Y-147961446D01*
X97366917Y-147961445D01*
X97366915Y-147961444D01*
X97366913Y-147961443D01*
X97247077Y-147911806D01*
X97247071Y-147911804D01*
X97119859Y-147886500D01*
X97119857Y-147886500D01*
X96696261Y-147886500D01*
X96629222Y-147866815D01*
X96585776Y-147818793D01*
X96579659Y-147806788D01*
X96579656Y-147806784D01*
X96449343Y-147627424D01*
X96292576Y-147470657D01*
X96113215Y-147340343D01*
X95915680Y-147239693D01*
X95704824Y-147171182D01*
X95651182Y-147162686D01*
X95485851Y-147136500D01*
X95264149Y-147136500D01*
X95154662Y-147153841D01*
X95045175Y-147171182D01*
X94834319Y-147239693D01*
X94636784Y-147340343D01*
X94544204Y-147407607D01*
X94457424Y-147470657D01*
X94457422Y-147470659D01*
X94457421Y-147470659D01*
X94300659Y-147627421D01*
X94300659Y-147627422D01*
X94300657Y-147627424D01*
X94244692Y-147704452D01*
X94170343Y-147806784D01*
X94069693Y-148004319D01*
X94001182Y-148215175D01*
X93966500Y-148434149D01*
X93966500Y-148655850D01*
X94001182Y-148874824D01*
X94069693Y-149085680D01*
X94151532Y-149246297D01*
X94170343Y-149283215D01*
X94300657Y-149462576D01*
X94300659Y-149462578D01*
X94417687Y-149579606D01*
X94451172Y-149640929D01*
X94446188Y-149710621D01*
X94404316Y-149766554D01*
X94338852Y-149790971D01*
X94330274Y-149791287D01*
X88109545Y-149804730D01*
X88042463Y-149785190D01*
X87996594Y-149732485D01*
X87985277Y-149680456D01*
X87988177Y-148379494D01*
X88008011Y-148312501D01*
X88060917Y-148266864D01*
X88130098Y-148257075D01*
X88193588Y-148286241D01*
X88212495Y-148306887D01*
X88287021Y-148409463D01*
X88439737Y-148562179D01*
X88614463Y-148689125D01*
X88705378Y-148735448D01*
X88806891Y-148787173D01*
X88806893Y-148787173D01*
X88806896Y-148787175D01*
X88916995Y-148822948D01*
X89012298Y-148853915D01*
X89225608Y-148887700D01*
X89225613Y-148887700D01*
X89964392Y-148887700D01*
X90177701Y-148853915D01*
X90383104Y-148787175D01*
X90575537Y-148689125D01*
X90750263Y-148562179D01*
X90902979Y-148409463D01*
X91029925Y-148234737D01*
X91127975Y-148042304D01*
X91194715Y-147836901D01*
X91197583Y-147818793D01*
X91228500Y-147623592D01*
X91228500Y-147407607D01*
X91194715Y-147194298D01*
X91137819Y-147019193D01*
X91127975Y-146988896D01*
X91127973Y-146988893D01*
X91127973Y-146988891D01*
X91058516Y-146852576D01*
X91029925Y-146796463D01*
X90902979Y-146621737D01*
X90750263Y-146469021D01*
X90575537Y-146342075D01*
X90575536Y-146342074D01*
X90575534Y-146342073D01*
X90543821Y-146325914D01*
X90493025Y-146277939D01*
X90476231Y-146210118D01*
X90498769Y-146143983D01*
X90543824Y-146104944D01*
X90571082Y-146091055D01*
X90744727Y-145964893D01*
X90744728Y-145964893D01*
X90896493Y-145813128D01*
X90896493Y-145813127D01*
X91022655Y-145639482D01*
X91120096Y-145448243D01*
X91186424Y-145244107D01*
X91197402Y-145174800D01*
X90037251Y-145174800D01*
X90068381Y-145120881D01*
X90103000Y-144991680D01*
X90103000Y-144857920D01*
X90068381Y-144728719D01*
X90037251Y-144674800D01*
X91197402Y-144674800D01*
X91186424Y-144605492D01*
X91120096Y-144401356D01*
X91022655Y-144210117D01*
X90896493Y-144036472D01*
X90896493Y-144036471D01*
X90744728Y-143884706D01*
X90573596Y-143760370D01*
X90530931Y-143705040D01*
X90524952Y-143635426D01*
X90557558Y-143573631D01*
X90573597Y-143559734D01*
X90575534Y-143558326D01*
X90575537Y-143558325D01*
X90750263Y-143431379D01*
X90902979Y-143278663D01*
X90964190Y-143194413D01*
X91019519Y-143151749D01*
X91064507Y-143143300D01*
X93989907Y-143143300D01*
X94030149Y-143135295D01*
X94070393Y-143127290D01*
X94136447Y-143114151D01*
X94274484Y-143056974D01*
X94398715Y-142973966D01*
X95002862Y-142369819D01*
X95064185Y-142336334D01*
X95090543Y-142333500D01*
X96323638Y-142333500D01*
X96323654Y-142333499D01*
X96350692Y-142330591D01*
X96384201Y-142326989D01*
X96521204Y-142275889D01*
X96638261Y-142188261D01*
X96699675Y-142106220D01*
X96755608Y-142064351D01*
X96825299Y-142059367D01*
X96886622Y-142092852D01*
G37*
%TD.AperFunction*%
%TA.AperFunction,Conductor*%
G36*
X121931496Y-108378185D02*
G01*
X121952138Y-108394819D01*
X123290181Y-109732862D01*
X123323666Y-109794185D01*
X123326500Y-109820543D01*
X123326500Y-146439457D01*
X123306815Y-146506496D01*
X123290181Y-146527138D01*
X121607138Y-148210181D01*
X121545815Y-148243666D01*
X121519457Y-148246500D01*
X119605611Y-148246500D01*
X119538572Y-148226815D01*
X119492817Y-148174011D01*
X119482873Y-148104853D01*
X119508664Y-148045187D01*
X119677115Y-147833956D01*
X119826507Y-147596200D01*
X119948337Y-147343217D01*
X120041077Y-147078180D01*
X120041078Y-147078178D01*
X120103560Y-146804424D01*
X120103562Y-146804412D01*
X120134999Y-146525401D01*
X120135000Y-146525399D01*
X120135000Y-146244600D01*
X120134999Y-146244598D01*
X120103562Y-145965587D01*
X120103560Y-145965575D01*
X120041078Y-145691821D01*
X120041077Y-145691819D01*
X119948337Y-145426782D01*
X119826507Y-145173799D01*
X119677115Y-144936043D01*
X119570810Y-144802741D01*
X118929250Y-145444300D01*
X118855412Y-145342670D01*
X118677330Y-145164588D01*
X118575697Y-145090747D01*
X119217257Y-144449187D01*
X119083956Y-144342884D01*
X118846200Y-144193492D01*
X118593217Y-144071662D01*
X118328180Y-143978922D01*
X118328178Y-143978921D01*
X118054424Y-143916439D01*
X118054412Y-143916437D01*
X117775401Y-143885000D01*
X117494598Y-143885000D01*
X117215587Y-143916437D01*
X117215575Y-143916439D01*
X116941821Y-143978921D01*
X116941819Y-143978922D01*
X116676782Y-144071662D01*
X116423799Y-144193492D01*
X116186043Y-144342884D01*
X116052741Y-144449187D01*
X116694301Y-145090747D01*
X116592670Y-145164588D01*
X116414588Y-145342670D01*
X116340747Y-145444301D01*
X115699187Y-144802741D01*
X115592884Y-144936043D01*
X115443492Y-145173799D01*
X115321662Y-145426782D01*
X115228922Y-145691819D01*
X115228921Y-145691821D01*
X115166439Y-145965575D01*
X115166437Y-145965587D01*
X115135000Y-146244598D01*
X115135000Y-146525401D01*
X115166437Y-146804412D01*
X115166439Y-146804424D01*
X115228921Y-147078178D01*
X115228922Y-147078180D01*
X115321662Y-147343217D01*
X115443492Y-147596200D01*
X115592884Y-147833956D01*
X115761336Y-148045187D01*
X115787744Y-148109873D01*
X115774989Y-148178569D01*
X115727118Y-148229463D01*
X115664389Y-148246500D01*
X113495566Y-148246500D01*
X113428527Y-148226815D01*
X113382772Y-148174011D01*
X113372828Y-148104853D01*
X113377635Y-148084182D01*
X113401279Y-148011412D01*
X113401279Y-148011411D01*
X113401280Y-148011408D01*
X113433500Y-147807981D01*
X113433500Y-147602019D01*
X113432578Y-147596200D01*
X113401280Y-147398591D01*
X113350136Y-147241187D01*
X113337634Y-147202710D01*
X113337632Y-147202707D01*
X113337632Y-147202705D01*
X113291287Y-147111749D01*
X113244129Y-147019197D01*
X113195554Y-146952339D01*
X113123073Y-146852576D01*
X113123069Y-146852571D01*
X112977428Y-146706930D01*
X112977423Y-146706926D01*
X112810806Y-146585873D01*
X112810805Y-146585872D01*
X112810803Y-146585871D01*
X112731540Y-146545484D01*
X112680745Y-146497510D01*
X112663950Y-146429689D01*
X112686487Y-146363554D01*
X112731541Y-146324515D01*
X112810803Y-146284129D01*
X112977430Y-146163068D01*
X113123068Y-146017430D01*
X113244129Y-145850803D01*
X113337634Y-145667290D01*
X113401280Y-145471408D01*
X113433500Y-145267981D01*
X113433500Y-145062019D01*
X113425220Y-145009743D01*
X113434174Y-144940454D01*
X113460009Y-144902670D01*
X117562862Y-140799819D01*
X117624185Y-140766334D01*
X117650543Y-140763500D01*
X118183638Y-140763500D01*
X118183654Y-140763499D01*
X118211980Y-140760453D01*
X118244201Y-140756989D01*
X118381204Y-140705889D01*
X118498261Y-140618261D01*
X118585889Y-140501204D01*
X118634265Y-140371504D01*
X118636988Y-140364204D01*
X118636988Y-140364203D01*
X118636989Y-140364201D01*
X118640591Y-140330692D01*
X118643499Y-140303654D01*
X118643500Y-140303637D01*
X118643500Y-138606362D01*
X118643499Y-138606345D01*
X118636989Y-138545800D01*
X118636421Y-138543396D01*
X118636524Y-138541473D01*
X118636160Y-138538088D01*
X118636708Y-138538029D01*
X118636964Y-138533247D01*
X118633413Y-138523725D01*
X118638803Y-138498947D01*
X118640160Y-138473627D01*
X118646500Y-138463565D01*
X118648265Y-138455452D01*
X118669413Y-138427201D01*
X118718606Y-138378008D01*
X118779927Y-138344525D01*
X118849619Y-138349509D01*
X118905552Y-138391381D01*
X118924216Y-138427372D01*
X118970244Y-138569031D01*
X119063141Y-138751350D01*
X119063147Y-138751359D01*
X119095523Y-138795921D01*
X119095524Y-138795922D01*
X119692037Y-138199408D01*
X119709075Y-138262993D01*
X119774901Y-138377007D01*
X119867993Y-138470099D01*
X119982007Y-138535925D01*
X120045590Y-138552962D01*
X119449076Y-139149474D01*
X119493650Y-139181859D01*
X119675968Y-139274755D01*
X119870582Y-139337990D01*
X120072683Y-139370000D01*
X120277317Y-139370000D01*
X120479417Y-139337990D01*
X120674031Y-139274755D01*
X120856349Y-139181859D01*
X120900921Y-139149474D01*
X120304409Y-138552962D01*
X120367993Y-138535925D01*
X120482007Y-138470099D01*
X120575099Y-138377007D01*
X120640925Y-138262993D01*
X120657962Y-138199409D01*
X121254474Y-138795921D01*
X121286859Y-138751349D01*
X121379755Y-138569031D01*
X121442990Y-138374417D01*
X121475000Y-138172317D01*
X121475000Y-137967682D01*
X121442990Y-137765582D01*
X121379755Y-137570968D01*
X121286859Y-137388650D01*
X121254474Y-137344077D01*
X121254474Y-137344076D01*
X120657962Y-137940589D01*
X120640925Y-137877007D01*
X120575099Y-137762993D01*
X120482007Y-137669901D01*
X120367993Y-137604075D01*
X120304408Y-137587037D01*
X120900922Y-136990524D01*
X120900921Y-136990523D01*
X120856359Y-136958147D01*
X120856350Y-136958141D01*
X120674029Y-136865244D01*
X120583420Y-136835803D01*
X120573885Y-136829283D01*
X120562592Y-136826857D01*
X120545567Y-136809919D01*
X120525744Y-136796365D01*
X120521247Y-136785725D01*
X120513059Y-136777579D01*
X120507894Y-136754128D01*
X120498546Y-136732007D01*
X120500515Y-136720624D01*
X120498032Y-136709345D01*
X120506365Y-136686825D01*
X120510461Y-136663160D01*
X120518893Y-136652970D01*
X120522280Y-136643818D01*
X120541880Y-136625191D01*
X120547172Y-136618797D01*
X120549948Y-136616707D01*
X120658516Y-136544165D01*
X120695572Y-136507107D01*
X120702525Y-136501875D01*
X120707845Y-136499875D01*
X120720795Y-136490466D01*
X120860803Y-136419129D01*
X121027430Y-136298068D01*
X121173068Y-136152430D01*
X121294129Y-135985803D01*
X121387634Y-135802290D01*
X121451280Y-135606408D01*
X121483500Y-135402981D01*
X121483500Y-135197019D01*
X121469398Y-135107981D01*
X121451280Y-134993591D01*
X121387632Y-134797705D01*
X121353709Y-134731128D01*
X121294129Y-134614197D01*
X121272228Y-134584053D01*
X121173073Y-134447576D01*
X121173069Y-134447571D01*
X121027428Y-134301930D01*
X121027423Y-134301926D01*
X120860806Y-134180873D01*
X120860805Y-134180872D01*
X120860803Y-134180871D01*
X120771303Y-134135268D01*
X120677294Y-134087367D01*
X120496004Y-134028462D01*
X120438329Y-133989024D01*
X120411131Y-133924665D01*
X120423046Y-133855819D01*
X120470290Y-133804343D01*
X120496005Y-133792600D01*
X120674029Y-133734755D01*
X120856349Y-133641859D01*
X120900921Y-133609474D01*
X120304409Y-133012962D01*
X120367993Y-132995925D01*
X120482007Y-132930099D01*
X120575099Y-132837007D01*
X120640925Y-132722993D01*
X120657962Y-132659409D01*
X121254474Y-133255921D01*
X121286859Y-133211349D01*
X121379755Y-133029031D01*
X121442990Y-132834417D01*
X121475000Y-132632317D01*
X121475000Y-132427682D01*
X121442990Y-132225582D01*
X121379755Y-132030968D01*
X121286859Y-131848650D01*
X121254474Y-131804077D01*
X121254474Y-131804076D01*
X120657962Y-132400589D01*
X120640925Y-132337007D01*
X120575099Y-132222993D01*
X120482007Y-132129901D01*
X120367993Y-132064075D01*
X120304408Y-132047037D01*
X120900922Y-131450524D01*
X120900921Y-131450523D01*
X120856359Y-131418147D01*
X120856350Y-131418141D01*
X120674031Y-131325244D01*
X120496004Y-131267399D01*
X120438329Y-131227961D01*
X120411131Y-131163602D01*
X120423046Y-131094756D01*
X120470290Y-131043280D01*
X120496005Y-131031537D01*
X120677290Y-130972634D01*
X120860803Y-130879129D01*
X121027430Y-130758068D01*
X121173068Y-130612430D01*
X121294129Y-130445803D01*
X121387634Y-130262290D01*
X121451280Y-130066408D01*
X121483500Y-129862981D01*
X121483500Y-129657019D01*
X121472510Y-129587631D01*
X121451280Y-129453591D01*
X121411587Y-129331430D01*
X121387634Y-129257710D01*
X121387632Y-129257707D01*
X121387632Y-129257705D01*
X121336878Y-129158096D01*
X121294129Y-129074197D01*
X121271943Y-129043660D01*
X121173073Y-128907576D01*
X121173069Y-128907571D01*
X121027428Y-128761930D01*
X121027423Y-128761926D01*
X120860806Y-128640873D01*
X120860805Y-128640872D01*
X120860803Y-128640871D01*
X120775946Y-128597634D01*
X120677294Y-128547367D01*
X120496004Y-128488462D01*
X120438329Y-128449024D01*
X120411131Y-128384665D01*
X120423046Y-128315819D01*
X120470290Y-128264343D01*
X120496005Y-128252600D01*
X120674029Y-128194755D01*
X120856349Y-128101859D01*
X120900921Y-128069474D01*
X120304409Y-127472962D01*
X120367993Y-127455925D01*
X120482007Y-127390099D01*
X120575099Y-127297007D01*
X120640925Y-127182993D01*
X120657962Y-127119409D01*
X121254474Y-127715921D01*
X121286859Y-127671349D01*
X121379755Y-127489031D01*
X121442990Y-127294417D01*
X121475000Y-127092317D01*
X121475000Y-126887682D01*
X121442990Y-126685582D01*
X121379755Y-126490968D01*
X121286859Y-126308650D01*
X121254474Y-126264077D01*
X121254474Y-126264076D01*
X120657962Y-126860589D01*
X120640925Y-126797007D01*
X120575099Y-126682993D01*
X120482007Y-126589901D01*
X120367993Y-126524075D01*
X120304408Y-126507037D01*
X120900922Y-125910524D01*
X120900921Y-125910523D01*
X120856359Y-125878147D01*
X120856350Y-125878141D01*
X120674031Y-125785244D01*
X120496004Y-125727399D01*
X120438329Y-125687961D01*
X120411131Y-125623602D01*
X120423046Y-125554756D01*
X120470290Y-125503280D01*
X120496005Y-125491537D01*
X120677290Y-125432634D01*
X120860803Y-125339129D01*
X121027430Y-125218068D01*
X121173068Y-125072430D01*
X121294129Y-124905803D01*
X121387634Y-124722290D01*
X121451280Y-124526408D01*
X121483500Y-124322981D01*
X121483500Y-124117019D01*
X121473134Y-124051574D01*
X121451280Y-123913591D01*
X121413980Y-123798795D01*
X121387634Y-123717710D01*
X121387632Y-123717707D01*
X121387632Y-123717705D01*
X121353709Y-123651128D01*
X121294129Y-123534197D01*
X121222453Y-123435543D01*
X121173073Y-123367576D01*
X121173069Y-123367571D01*
X121027428Y-123221930D01*
X121027423Y-123221926D01*
X120860806Y-123100873D01*
X120860805Y-123100872D01*
X120860803Y-123100871D01*
X120803496Y-123071671D01*
X120677294Y-123007367D01*
X120509757Y-122952931D01*
X120452082Y-122913493D01*
X120424884Y-122849134D01*
X120436799Y-122780288D01*
X120484043Y-122728812D01*
X120509757Y-122717069D01*
X120540923Y-122706942D01*
X120677290Y-122662634D01*
X120860803Y-122569129D01*
X121027430Y-122448068D01*
X121173068Y-122302430D01*
X121294129Y-122135803D01*
X121387634Y-121952290D01*
X121451280Y-121756408D01*
X121483500Y-121552981D01*
X121483500Y-121347019D01*
X121451280Y-121143592D01*
X121387634Y-120947710D01*
X121387632Y-120947707D01*
X121387632Y-120947705D01*
X121343368Y-120860834D01*
X121294129Y-120764197D01*
X121253576Y-120708380D01*
X121173073Y-120597576D01*
X121173069Y-120597571D01*
X121027428Y-120451930D01*
X121027423Y-120451926D01*
X120860806Y-120330873D01*
X120860805Y-120330872D01*
X120860803Y-120330871D01*
X120803496Y-120301671D01*
X120677294Y-120237367D01*
X120634466Y-120223451D01*
X120592418Y-120209789D01*
X120583052Y-120203385D01*
X120571953Y-120201039D01*
X120554732Y-120184019D01*
X120534744Y-120170352D01*
X120530327Y-120159900D01*
X120522258Y-120151926D01*
X120516972Y-120128298D01*
X120507546Y-120105993D01*
X120509480Y-120094812D01*
X120507004Y-120083741D01*
X120515332Y-120061004D01*
X120519461Y-120037147D01*
X120527754Y-120027091D01*
X120531035Y-120018134D01*
X120550248Y-119999816D01*
X120555844Y-119993031D01*
X120558776Y-119990808D01*
X120658516Y-119924165D01*
X120695430Y-119887250D01*
X120702197Y-119882122D01*
X120707549Y-119880089D01*
X120720795Y-119870466D01*
X120860803Y-119799129D01*
X121027430Y-119678068D01*
X121173068Y-119532430D01*
X121294129Y-119365803D01*
X121387634Y-119182290D01*
X121451280Y-118986408D01*
X121483500Y-118782981D01*
X121483500Y-118577019D01*
X121480424Y-118557600D01*
X121451280Y-118373591D01*
X121404681Y-118230175D01*
X121387634Y-118177710D01*
X121387632Y-118177707D01*
X121387632Y-118177705D01*
X121313074Y-118031379D01*
X121294129Y-117994197D01*
X121210189Y-117878663D01*
X121173073Y-117827576D01*
X121173069Y-117827571D01*
X121027428Y-117681930D01*
X121027423Y-117681926D01*
X120860806Y-117560873D01*
X120860805Y-117560872D01*
X120860803Y-117560871D01*
X120803496Y-117531671D01*
X120677294Y-117467367D01*
X120509757Y-117412931D01*
X120452082Y-117373493D01*
X120424884Y-117309134D01*
X120436799Y-117240288D01*
X120484043Y-117188812D01*
X120509757Y-117177069D01*
X120554626Y-117162490D01*
X120677290Y-117122634D01*
X120860803Y-117029129D01*
X121027430Y-116908068D01*
X121173068Y-116762430D01*
X121294129Y-116595803D01*
X121387634Y-116412290D01*
X121451280Y-116216408D01*
X121483500Y-116012981D01*
X121483500Y-115807019D01*
X121458407Y-115648591D01*
X121451280Y-115603591D01*
X121402254Y-115452705D01*
X121387634Y-115407710D01*
X121387632Y-115407707D01*
X121387632Y-115407705D01*
X121341211Y-115316600D01*
X121294129Y-115224197D01*
X121205763Y-115102571D01*
X121173073Y-115057576D01*
X121173069Y-115057571D01*
X121027428Y-114911930D01*
X121027423Y-114911926D01*
X120860806Y-114790873D01*
X120860805Y-114790872D01*
X120860803Y-114790871D01*
X120803496Y-114761671D01*
X120677294Y-114697367D01*
X120509757Y-114642931D01*
X120452082Y-114603493D01*
X120424884Y-114539134D01*
X120436799Y-114470288D01*
X120484043Y-114418812D01*
X120509757Y-114407069D01*
X120540923Y-114396942D01*
X120677290Y-114352634D01*
X120860803Y-114259129D01*
X121027430Y-114138068D01*
X121173068Y-113992430D01*
X121294129Y-113825803D01*
X121387634Y-113642290D01*
X121451280Y-113446408D01*
X121483500Y-113242981D01*
X121483500Y-113037019D01*
X121458197Y-112877264D01*
X121451280Y-112833591D01*
X121417359Y-112729193D01*
X121387634Y-112637710D01*
X121387632Y-112637707D01*
X121387632Y-112637705D01*
X121342626Y-112549378D01*
X121294129Y-112454197D01*
X121197942Y-112321806D01*
X121173073Y-112287576D01*
X121173069Y-112287571D01*
X121027428Y-112141930D01*
X121027423Y-112141926D01*
X120860806Y-112020873D01*
X120860805Y-112020872D01*
X120860803Y-112020871D01*
X120803496Y-111991671D01*
X120677294Y-111927367D01*
X120496004Y-111868462D01*
X120438329Y-111829024D01*
X120411131Y-111764665D01*
X120423046Y-111695819D01*
X120470290Y-111644343D01*
X120496005Y-111632600D01*
X120674029Y-111574755D01*
X120856349Y-111481859D01*
X120900921Y-111449474D01*
X120304409Y-110852962D01*
X120367993Y-110835925D01*
X120482007Y-110770099D01*
X120575099Y-110677007D01*
X120640925Y-110562993D01*
X120657962Y-110499409D01*
X121254474Y-111095921D01*
X121286859Y-111051349D01*
X121379755Y-110869031D01*
X121442990Y-110674417D01*
X121475000Y-110472317D01*
X121475000Y-110267682D01*
X121442990Y-110065582D01*
X121379755Y-109870968D01*
X121286859Y-109688650D01*
X121254474Y-109644077D01*
X121254474Y-109644076D01*
X120657962Y-110240589D01*
X120640925Y-110177007D01*
X120575099Y-110062993D01*
X120482007Y-109969901D01*
X120367993Y-109904075D01*
X120304408Y-109887037D01*
X120900922Y-109290524D01*
X120900921Y-109290523D01*
X120856359Y-109258147D01*
X120856350Y-109258141D01*
X120674031Y-109165244D01*
X120496004Y-109107399D01*
X120438329Y-109067961D01*
X120411131Y-109003602D01*
X120423046Y-108934756D01*
X120470290Y-108883280D01*
X120496005Y-108871537D01*
X120677290Y-108812634D01*
X120860803Y-108719129D01*
X121027430Y-108598068D01*
X121156267Y-108469230D01*
X121175499Y-108453516D01*
X121182782Y-108448694D01*
X121185363Y-108447626D01*
X121287767Y-108379201D01*
X121287921Y-108379100D01*
X121321253Y-108368821D01*
X121354152Y-108358520D01*
X121354674Y-108358515D01*
X121354688Y-108358511D01*
X121354702Y-108358515D01*
X121356365Y-108358500D01*
X121864457Y-108358500D01*
X121931496Y-108378185D01*
G37*
%TD.AperFunction*%
%TA.AperFunction,Conductor*%
G36*
X119709075Y-132722993D02*
G01*
X119774901Y-132837007D01*
X119867993Y-132930099D01*
X119982007Y-132995925D01*
X120045590Y-133012962D01*
X119449076Y-133609474D01*
X119493650Y-133641859D01*
X119675968Y-133734754D01*
X119853995Y-133792600D01*
X119911670Y-133832038D01*
X119938868Y-133896397D01*
X119926953Y-133965243D01*
X119879709Y-134016719D01*
X119853995Y-134028462D01*
X119672705Y-134087367D01*
X119489193Y-134180873D01*
X119322576Y-134301926D01*
X119322571Y-134301930D01*
X119176930Y-134447571D01*
X119176926Y-134447576D01*
X119055873Y-134614193D01*
X118962367Y-134797705D01*
X118898719Y-134993591D01*
X118866500Y-135197019D01*
X118866500Y-135402980D01*
X118898719Y-135606408D01*
X118962367Y-135802294D01*
X119056052Y-135986159D01*
X119068948Y-136054828D01*
X119042672Y-136119569D01*
X119033248Y-136130135D01*
X118796914Y-136366469D01*
X118735591Y-136399954D01*
X118665899Y-136394970D01*
X118609966Y-136353098D01*
X118591302Y-136317106D01*
X118585116Y-136298068D01*
X118547634Y-136182710D01*
X118454129Y-135999197D01*
X118438661Y-135977908D01*
X118333073Y-135832576D01*
X118333069Y-135832571D01*
X118187428Y-135686930D01*
X118187423Y-135686926D01*
X118020806Y-135565873D01*
X118020805Y-135565872D01*
X118020803Y-135565871D01*
X117963496Y-135536671D01*
X117837294Y-135472367D01*
X117669757Y-135417931D01*
X117612082Y-135378493D01*
X117584884Y-135314134D01*
X117596799Y-135245288D01*
X117644043Y-135193812D01*
X117669757Y-135182069D01*
X117700923Y-135171942D01*
X117837290Y-135127634D01*
X118020803Y-135034129D01*
X118187430Y-134913068D01*
X118333068Y-134767430D01*
X118454129Y-134600803D01*
X118547634Y-134417290D01*
X118611280Y-134221408D01*
X118643500Y-134017981D01*
X118643500Y-133812019D01*
X118640387Y-133792366D01*
X118611280Y-133608591D01*
X118574307Y-133494800D01*
X118547634Y-133412710D01*
X118547632Y-133412707D01*
X118547632Y-133412705D01*
X118485752Y-133291260D01*
X118472856Y-133222591D01*
X118499132Y-133157850D01*
X118548779Y-133120407D01*
X118649505Y-133078685D01*
X118668759Y-133070710D01*
X118724681Y-133033344D01*
X118780699Y-132995914D01*
X118780701Y-132995912D01*
X118780706Y-132995909D01*
X118780710Y-132995904D01*
X118783283Y-132993793D01*
X118784903Y-132993104D01*
X118785771Y-132992525D01*
X118785880Y-132992689D01*
X118847591Y-132966474D01*
X118916459Y-132978259D01*
X118968024Y-133025406D01*
X118972442Y-133033344D01*
X119063141Y-133211350D01*
X119063147Y-133211359D01*
X119095523Y-133255921D01*
X119095524Y-133255922D01*
X119692037Y-132659408D01*
X119709075Y-132722993D01*
G37*
%TD.AperFunction*%
%TA.AperFunction,Conductor*%
G36*
X124731682Y-96074664D02*
G01*
X124798667Y-96094531D01*
X124844278Y-96147460D01*
X124855344Y-96198317D01*
X124875176Y-103291480D01*
X124855678Y-103358575D01*
X124803003Y-103404477D01*
X124733872Y-103414614D01*
X124670236Y-103385767D01*
X124650858Y-103364713D01*
X124602931Y-103298748D01*
X124536792Y-103207715D01*
X124402285Y-103073208D01*
X124248392Y-102961398D01*
X124183591Y-102928380D01*
X124078907Y-102875040D01*
X123897991Y-102816256D01*
X123710116Y-102786500D01*
X123710111Y-102786500D01*
X123519889Y-102786500D01*
X123519884Y-102786500D01*
X123332008Y-102816256D01*
X123151092Y-102875040D01*
X122981604Y-102961400D01*
X122869542Y-103042818D01*
X122803736Y-103066298D01*
X122796657Y-103066500D01*
X116890290Y-103066500D01*
X116817024Y-103081074D01*
X116743760Y-103095647D01*
X116743752Y-103095649D01*
X116605717Y-103152825D01*
X116481482Y-103235835D01*
X116481481Y-103235836D01*
X115817137Y-103900181D01*
X115755814Y-103933666D01*
X115729456Y-103936500D01*
X115549884Y-103936500D01*
X115362008Y-103966256D01*
X115181092Y-104025040D01*
X115011607Y-104111398D01*
X114938625Y-104164423D01*
X114857715Y-104223208D01*
X114857713Y-104223210D01*
X114857712Y-104223210D01*
X114723210Y-104357712D01*
X114723210Y-104357713D01*
X114723208Y-104357715D01*
X114711283Y-104374129D01*
X114611398Y-104511607D01*
X114525040Y-104681092D01*
X114466256Y-104862008D01*
X114436500Y-105049883D01*
X114436500Y-105240116D01*
X114466256Y-105427991D01*
X114525040Y-105608907D01*
X114611398Y-105778393D01*
X114612285Y-105779613D01*
X114612479Y-105780158D01*
X114613944Y-105782548D01*
X114613442Y-105782855D01*
X114635766Y-105845419D01*
X114619942Y-105913473D01*
X114569837Y-105962169D01*
X114511968Y-105976500D01*
X113557500Y-105976500D01*
X113490461Y-105956815D01*
X113444706Y-105904011D01*
X113433500Y-105852500D01*
X113433500Y-105692019D01*
X113401280Y-105488591D01*
X113350197Y-105331376D01*
X113337634Y-105292710D01*
X113337632Y-105292707D01*
X113337632Y-105292705D01*
X113281091Y-105181739D01*
X113244129Y-105109197D01*
X113205223Y-105055647D01*
X113123073Y-104942576D01*
X113123069Y-104942571D01*
X112977428Y-104796930D01*
X112977423Y-104796926D01*
X112810806Y-104675873D01*
X112810805Y-104675872D01*
X112810803Y-104675871D01*
X112731540Y-104635484D01*
X112680745Y-104587510D01*
X112663950Y-104519689D01*
X112686487Y-104453554D01*
X112731541Y-104414515D01*
X112810803Y-104374129D01*
X112977430Y-104253068D01*
X113123068Y-104107430D01*
X113244129Y-103940803D01*
X113337634Y-103757290D01*
X113401280Y-103561408D01*
X113433500Y-103357981D01*
X113433500Y-103152019D01*
X113424572Y-103095649D01*
X113401280Y-102948591D01*
X113337632Y-102752705D01*
X113283970Y-102647389D01*
X113244129Y-102569197D01*
X113164417Y-102459482D01*
X113123073Y-102402576D01*
X113123069Y-102402571D01*
X112977428Y-102256930D01*
X112977423Y-102256926D01*
X112810806Y-102135873D01*
X112810805Y-102135872D01*
X112810803Y-102135871D01*
X112731540Y-102095484D01*
X112680745Y-102047510D01*
X112663950Y-101979689D01*
X112686487Y-101913554D01*
X112731541Y-101874515D01*
X112810803Y-101834129D01*
X112977430Y-101713068D01*
X113123068Y-101567430D01*
X113244129Y-101400803D01*
X113337634Y-101217290D01*
X113386013Y-101068394D01*
X113401279Y-101021412D01*
X113401279Y-101021411D01*
X113401280Y-101021408D01*
X113433500Y-100817981D01*
X113433500Y-100612019D01*
X113414145Y-100489820D01*
X113401280Y-100408591D01*
X113337632Y-100212705D01*
X113285911Y-100111199D01*
X113244129Y-100029197D01*
X113149672Y-99899187D01*
X113123073Y-99862576D01*
X113123069Y-99862571D01*
X112977428Y-99716930D01*
X112977423Y-99716926D01*
X112947181Y-99694954D01*
X112904515Y-99639625D01*
X112898536Y-99570011D01*
X112931141Y-99508216D01*
X112991980Y-99473859D01*
X113006810Y-99471347D01*
X113032372Y-99468598D01*
X113032379Y-99468596D01*
X113167086Y-99418354D01*
X113167093Y-99418350D01*
X113282187Y-99332190D01*
X113282190Y-99332187D01*
X113368350Y-99217093D01*
X113368354Y-99217086D01*
X113395391Y-99144598D01*
X115135000Y-99144598D01*
X115135000Y-99425401D01*
X115166437Y-99704412D01*
X115166439Y-99704424D01*
X115228921Y-99978178D01*
X115228922Y-99978180D01*
X115321662Y-100243217D01*
X115443492Y-100496200D01*
X115592884Y-100733956D01*
X115699187Y-100867257D01*
X116340747Y-100225697D01*
X116414588Y-100327330D01*
X116592670Y-100505412D01*
X116694300Y-100579251D01*
X116052741Y-101220810D01*
X116052741Y-101220811D01*
X116186043Y-101327115D01*
X116423799Y-101476507D01*
X116676782Y-101598337D01*
X116941819Y-101691077D01*
X116941821Y-101691078D01*
X117215575Y-101753560D01*
X117215587Y-101753562D01*
X117494598Y-101784999D01*
X117494600Y-101785000D01*
X117775400Y-101785000D01*
X117775401Y-101784999D01*
X118054412Y-101753562D01*
X118054424Y-101753560D01*
X118328178Y-101691078D01*
X118328180Y-101691077D01*
X118593217Y-101598337D01*
X118846200Y-101476507D01*
X119083956Y-101327116D01*
X119217257Y-101220810D01*
X118575698Y-100579251D01*
X118677330Y-100505412D01*
X118855412Y-100327330D01*
X118929251Y-100225698D01*
X119570810Y-100867257D01*
X119677116Y-100733956D01*
X119826507Y-100496200D01*
X119948337Y-100243217D01*
X120041077Y-99978180D01*
X120041078Y-99978178D01*
X120103560Y-99704424D01*
X120103562Y-99704412D01*
X120134999Y-99425401D01*
X120135000Y-99425399D01*
X120135000Y-99144600D01*
X120134999Y-99144598D01*
X120103562Y-98865587D01*
X120103560Y-98865575D01*
X120041078Y-98591821D01*
X120041077Y-98591819D01*
X119948337Y-98326782D01*
X119826507Y-98073799D01*
X119677115Y-97836043D01*
X119570810Y-97702741D01*
X118929251Y-98344300D01*
X118855412Y-98242670D01*
X118677330Y-98064588D01*
X118575697Y-97990747D01*
X119217257Y-97349187D01*
X119083956Y-97242884D01*
X118846200Y-97093492D01*
X118593217Y-96971662D01*
X118328180Y-96878922D01*
X118328178Y-96878921D01*
X118054424Y-96816439D01*
X118054412Y-96816437D01*
X117775401Y-96785000D01*
X117494598Y-96785000D01*
X117215587Y-96816437D01*
X117215575Y-96816439D01*
X116941821Y-96878921D01*
X116941819Y-96878922D01*
X116676782Y-96971662D01*
X116423799Y-97093492D01*
X116186043Y-97242884D01*
X116052741Y-97349187D01*
X116694301Y-97990747D01*
X116592670Y-98064588D01*
X116414588Y-98242670D01*
X116340747Y-98344301D01*
X115699187Y-97702741D01*
X115592884Y-97836043D01*
X115443492Y-98073799D01*
X115321662Y-98326782D01*
X115228922Y-98591819D01*
X115228921Y-98591821D01*
X115166439Y-98865575D01*
X115166437Y-98865587D01*
X115135000Y-99144598D01*
X113395391Y-99144598D01*
X113412849Y-99097791D01*
X113412849Y-99097790D01*
X113418596Y-99082383D01*
X113418598Y-99082372D01*
X113424999Y-99022844D01*
X113425000Y-99022827D01*
X113425000Y-98425000D01*
X112440686Y-98425000D01*
X112445080Y-98420606D01*
X112497741Y-98329394D01*
X112525000Y-98227661D01*
X112525000Y-98122339D01*
X112497741Y-98020606D01*
X112445080Y-97929394D01*
X112440686Y-97925000D01*
X113425000Y-97925000D01*
X113425000Y-97327172D01*
X113424999Y-97327155D01*
X113418598Y-97267627D01*
X113418596Y-97267620D01*
X113368354Y-97132913D01*
X113368350Y-97132906D01*
X113282190Y-97017812D01*
X113282187Y-97017809D01*
X113167093Y-96931649D01*
X113167086Y-96931645D01*
X113032379Y-96881403D01*
X113032372Y-96881401D01*
X112972844Y-96875000D01*
X112375000Y-96875000D01*
X112375000Y-97859314D01*
X112370606Y-97854920D01*
X112279394Y-97802259D01*
X112177661Y-97775000D01*
X112072339Y-97775000D01*
X111970606Y-97802259D01*
X111879394Y-97854920D01*
X111875000Y-97859314D01*
X111875000Y-96875000D01*
X111277155Y-96875000D01*
X111217627Y-96881401D01*
X111217620Y-96881403D01*
X111082913Y-96931645D01*
X111082906Y-96931649D01*
X110967812Y-97017809D01*
X110967809Y-97017812D01*
X110881649Y-97132906D01*
X110881645Y-97132913D01*
X110831403Y-97267620D01*
X110831401Y-97267627D01*
X110825000Y-97327155D01*
X110825000Y-97925000D01*
X111809314Y-97925000D01*
X111804920Y-97929394D01*
X111752259Y-98020606D01*
X111725000Y-98122339D01*
X111725000Y-98227661D01*
X111752259Y-98329394D01*
X111804920Y-98420606D01*
X111809314Y-98425000D01*
X110825000Y-98425000D01*
X110825000Y-99022844D01*
X110831401Y-99082372D01*
X110831403Y-99082379D01*
X110881645Y-99217086D01*
X110881649Y-99217093D01*
X110967809Y-99332187D01*
X110967812Y-99332190D01*
X111082906Y-99418350D01*
X111082913Y-99418354D01*
X111217620Y-99468596D01*
X111217626Y-99468598D01*
X111243190Y-99471347D01*
X111307740Y-99498086D01*
X111347588Y-99555478D01*
X111350081Y-99625304D01*
X111314428Y-99685392D01*
X111302819Y-99694953D01*
X111272578Y-99716924D01*
X111272571Y-99716930D01*
X111126930Y-99862571D01*
X111126926Y-99862576D01*
X111005873Y-100029193D01*
X110912367Y-100212705D01*
X110848719Y-100408591D01*
X110816500Y-100612019D01*
X110816500Y-100817980D01*
X110848719Y-101021408D01*
X110912367Y-101217294D01*
X110968325Y-101327115D01*
X111000516Y-101390294D01*
X111005873Y-101400806D01*
X111126926Y-101567423D01*
X111126930Y-101567428D01*
X111272571Y-101713069D01*
X111272576Y-101713073D01*
X111439195Y-101834128D01*
X111518459Y-101874516D01*
X111569254Y-101922490D01*
X111586049Y-101990311D01*
X111563511Y-102056446D01*
X111518459Y-102095484D01*
X111439195Y-102135871D01*
X111272576Y-102256926D01*
X111272571Y-102256930D01*
X111126930Y-102402571D01*
X111126926Y-102402576D01*
X111005873Y-102569193D01*
X110912367Y-102752705D01*
X110848719Y-102948591D01*
X110816500Y-103152019D01*
X110816500Y-103357981D01*
X110817487Y-103364212D01*
X110848719Y-103561408D01*
X110912367Y-103757294D01*
X110958123Y-103847093D01*
X111002234Y-103933666D01*
X111005873Y-103940806D01*
X111126926Y-104107423D01*
X111126930Y-104107428D01*
X111272571Y-104253069D01*
X111272576Y-104253073D01*
X111439195Y-104374128D01*
X111518459Y-104414516D01*
X111569254Y-104462490D01*
X111586049Y-104530311D01*
X111563511Y-104596446D01*
X111518459Y-104635484D01*
X111439195Y-104675871D01*
X111272576Y-104796926D01*
X111272571Y-104796930D01*
X111126930Y-104942571D01*
X111126926Y-104942576D01*
X111005873Y-105109193D01*
X110912367Y-105292705D01*
X110848719Y-105488591D01*
X110816500Y-105692019D01*
X110816500Y-105897981D01*
X110818181Y-105908592D01*
X110848719Y-106101408D01*
X110912367Y-106297294D01*
X110960265Y-106391297D01*
X110993831Y-106457174D01*
X111005873Y-106480806D01*
X111126926Y-106647423D01*
X111126930Y-106647428D01*
X111272571Y-106793069D01*
X111272576Y-106793073D01*
X111439195Y-106914128D01*
X111518459Y-106954516D01*
X111569254Y-107002490D01*
X111586049Y-107070311D01*
X111563511Y-107136446D01*
X111518459Y-107175484D01*
X111439195Y-107215871D01*
X111272576Y-107336926D01*
X111272571Y-107336930D01*
X111126930Y-107482571D01*
X111126926Y-107482576D01*
X111005873Y-107649193D01*
X110912367Y-107832705D01*
X110848719Y-108028591D01*
X110816500Y-108232019D01*
X110816500Y-108437980D01*
X110848719Y-108641408D01*
X110912367Y-108837294D01*
X110972687Y-108955676D01*
X111004479Y-109018072D01*
X111005873Y-109020806D01*
X111126926Y-109187423D01*
X111126930Y-109187428D01*
X111272571Y-109333069D01*
X111272576Y-109333073D01*
X111439195Y-109454128D01*
X111518459Y-109494516D01*
X111569254Y-109542490D01*
X111586049Y-109610311D01*
X111563511Y-109676446D01*
X111518459Y-109715484D01*
X111439195Y-109755871D01*
X111272576Y-109876926D01*
X111272571Y-109876930D01*
X111126930Y-110022571D01*
X111126926Y-110022576D01*
X111005873Y-110189193D01*
X110912367Y-110372705D01*
X110848719Y-110568591D01*
X110816500Y-110772019D01*
X110816500Y-110977980D01*
X110848719Y-111181408D01*
X110912367Y-111377294D01*
X111005873Y-111560806D01*
X111126926Y-111727423D01*
X111126930Y-111727428D01*
X111272571Y-111873069D01*
X111272576Y-111873073D01*
X111439195Y-111994128D01*
X111518459Y-112034516D01*
X111569254Y-112082490D01*
X111586049Y-112150311D01*
X111563511Y-112216446D01*
X111518459Y-112255484D01*
X111439195Y-112295871D01*
X111272576Y-112416926D01*
X111272571Y-112416930D01*
X111126930Y-112562571D01*
X111126926Y-112562576D01*
X111005873Y-112729193D01*
X110912367Y-112912705D01*
X110848719Y-113108591D01*
X110816500Y-113312019D01*
X110816500Y-113517980D01*
X110848719Y-113721408D01*
X110912367Y-113917294D01*
X111005873Y-114100806D01*
X111126926Y-114267423D01*
X111126930Y-114267428D01*
X111272571Y-114413069D01*
X111272576Y-114413073D01*
X111439195Y-114534128D01*
X111518459Y-114574516D01*
X111569254Y-114622490D01*
X111586049Y-114690311D01*
X111563511Y-114756446D01*
X111518459Y-114795484D01*
X111439195Y-114835871D01*
X111272576Y-114956926D01*
X111272571Y-114956930D01*
X111126930Y-115102571D01*
X111126926Y-115102576D01*
X111005873Y-115269193D01*
X110912367Y-115452705D01*
X110848719Y-115648591D01*
X110816500Y-115852019D01*
X110816500Y-116057980D01*
X110848719Y-116261408D01*
X110912367Y-116457294D01*
X111005873Y-116640806D01*
X111126926Y-116807423D01*
X111126930Y-116807428D01*
X111272571Y-116953069D01*
X111272576Y-116953073D01*
X111439195Y-117074128D01*
X111518459Y-117114516D01*
X111569254Y-117162490D01*
X111586049Y-117230311D01*
X111563511Y-117296446D01*
X111518459Y-117335484D01*
X111439195Y-117375871D01*
X111272576Y-117496926D01*
X111272571Y-117496930D01*
X111126930Y-117642571D01*
X111126926Y-117642576D01*
X111005873Y-117809193D01*
X110912367Y-117992705D01*
X110848719Y-118188591D01*
X110816500Y-118392019D01*
X110816500Y-118597980D01*
X110848719Y-118801408D01*
X110912367Y-118997294D01*
X111005873Y-119180806D01*
X111126926Y-119347423D01*
X111126930Y-119347428D01*
X111272571Y-119493069D01*
X111272576Y-119493073D01*
X111439195Y-119614128D01*
X111518459Y-119654516D01*
X111569254Y-119702490D01*
X111586049Y-119770311D01*
X111563511Y-119836446D01*
X111518459Y-119875484D01*
X111439195Y-119915871D01*
X111272576Y-120036926D01*
X111272571Y-120036930D01*
X111126930Y-120182571D01*
X111126926Y-120182576D01*
X111005873Y-120349193D01*
X110912367Y-120532705D01*
X110848719Y-120728591D01*
X110816500Y-120932019D01*
X110816500Y-121137980D01*
X110848719Y-121341408D01*
X110912367Y-121537294D01*
X110972760Y-121655820D01*
X110998928Y-121707177D01*
X111005873Y-121720806D01*
X111126926Y-121887423D01*
X111126930Y-121887428D01*
X111272571Y-122033069D01*
X111272576Y-122033073D01*
X111374651Y-122107234D01*
X111439197Y-122154129D01*
X111556128Y-122213709D01*
X111622705Y-122247632D01*
X111622707Y-122247632D01*
X111622710Y-122247634D01*
X111707386Y-122275147D01*
X111818591Y-122311280D01*
X111920305Y-122327390D01*
X112022019Y-122343500D01*
X112022020Y-122343500D01*
X112227980Y-122343500D01*
X112227981Y-122343500D01*
X112431408Y-122311280D01*
X112627290Y-122247634D01*
X112810803Y-122154129D01*
X112977430Y-122033068D01*
X113123068Y-121887430D01*
X113244129Y-121720803D01*
X113337634Y-121537290D01*
X113401280Y-121341408D01*
X113433500Y-121137981D01*
X113433500Y-120932019D01*
X113425454Y-120881221D01*
X113401280Y-120728591D01*
X113358710Y-120597576D01*
X113337634Y-120532710D01*
X113337632Y-120532707D01*
X113337632Y-120532705D01*
X113292536Y-120444200D01*
X113244129Y-120349197D01*
X113167654Y-120243937D01*
X113123073Y-120182576D01*
X113123069Y-120182571D01*
X112977428Y-120036930D01*
X112977423Y-120036926D01*
X112810806Y-119915873D01*
X112810805Y-119915872D01*
X112810803Y-119915871D01*
X112731540Y-119875484D01*
X112680745Y-119827510D01*
X112663950Y-119759689D01*
X112686487Y-119693554D01*
X112731541Y-119654515D01*
X112810803Y-119614129D01*
X112977430Y-119493068D01*
X113123068Y-119347430D01*
X113244129Y-119180803D01*
X113337634Y-118997290D01*
X113401280Y-118801408D01*
X113433500Y-118597981D01*
X113433500Y-118392019D01*
X113415667Y-118279426D01*
X113401280Y-118188591D01*
X113350197Y-118031376D01*
X113337634Y-117992710D01*
X113337632Y-117992707D01*
X113337632Y-117992705D01*
X113303709Y-117926128D01*
X113244129Y-117809197D01*
X113167654Y-117703937D01*
X113123073Y-117642576D01*
X113123069Y-117642571D01*
X112977428Y-117496930D01*
X112977423Y-117496926D01*
X112810806Y-117375873D01*
X112810805Y-117375872D01*
X112810803Y-117375871D01*
X112731540Y-117335484D01*
X112722387Y-117326839D01*
X112710722Y-117322105D01*
X112697468Y-117303304D01*
X112680745Y-117287510D01*
X112677718Y-117275290D01*
X112670464Y-117264999D01*
X112669478Y-117242015D01*
X112663950Y-117219689D01*
X112668011Y-117207771D01*
X112667472Y-117195193D01*
X112679066Y-117175329D01*
X112686487Y-117153554D01*
X112697190Y-117144279D01*
X112702694Y-117134851D01*
X112731541Y-117114515D01*
X112810803Y-117074129D01*
X112977430Y-116953068D01*
X113123068Y-116807430D01*
X113244129Y-116640803D01*
X113337634Y-116457290D01*
X113401280Y-116261408D01*
X113433500Y-116057981D01*
X113433500Y-115852019D01*
X113426373Y-115807019D01*
X113401280Y-115648591D01*
X113337632Y-115452705D01*
X113281662Y-115342860D01*
X113244129Y-115269197D01*
X113211432Y-115224193D01*
X113123073Y-115102576D01*
X113123069Y-115102571D01*
X112977428Y-114956930D01*
X112977423Y-114956926D01*
X112810806Y-114835873D01*
X112810805Y-114835872D01*
X112810803Y-114835871D01*
X112731540Y-114795484D01*
X112680745Y-114747510D01*
X112663950Y-114679689D01*
X112686487Y-114613554D01*
X112731541Y-114574515D01*
X112810803Y-114534129D01*
X112977430Y-114413068D01*
X113123068Y-114267430D01*
X113158097Y-114219216D01*
X113213425Y-114176551D01*
X113283038Y-114170570D01*
X113344834Y-114203175D01*
X113369316Y-114239250D01*
X113369953Y-114238910D01*
X113372822Y-114244278D01*
X113455835Y-114368517D01*
X115021482Y-115934164D01*
X115021485Y-115934166D01*
X115145716Y-116017174D01*
X115283753Y-116074351D01*
X115332212Y-116083990D01*
X115430291Y-116103500D01*
X116483751Y-116103500D01*
X116550790Y-116123185D01*
X116596545Y-116175989D01*
X116602342Y-116208789D01*
X117205591Y-116812037D01*
X117142007Y-116829075D01*
X117027993Y-116894901D01*
X116934901Y-116987993D01*
X116869075Y-117102007D01*
X116852037Y-117165590D01*
X116255524Y-116569077D01*
X116255523Y-116569077D01*
X116223143Y-116613644D01*
X116130244Y-116795968D01*
X116067009Y-116990582D01*
X116035000Y-117192682D01*
X116035000Y-117397317D01*
X116067009Y-117599417D01*
X116130244Y-117794031D01*
X116223141Y-117976350D01*
X116223147Y-117976359D01*
X116255523Y-118020921D01*
X116255524Y-118020922D01*
X116852037Y-117424409D01*
X116869075Y-117487993D01*
X116934901Y-117602007D01*
X117027993Y-117695099D01*
X117142007Y-117760925D01*
X117205590Y-117777962D01*
X116609076Y-118374474D01*
X116653650Y-118406859D01*
X116835968Y-118499754D01*
X117013995Y-118557600D01*
X117071670Y-118597038D01*
X117098868Y-118661397D01*
X117086953Y-118730243D01*
X117039709Y-118781719D01*
X117013995Y-118793462D01*
X116832705Y-118852367D01*
X116649193Y-118945873D01*
X116482576Y-119066926D01*
X116482571Y-119066930D01*
X116336930Y-119212571D01*
X116336926Y-119212576D01*
X116215873Y-119379193D01*
X116122367Y-119562705D01*
X116058719Y-119758591D01*
X116026500Y-119962019D01*
X116026500Y-120167980D01*
X116058719Y-120371408D01*
X116122367Y-120567293D01*
X116132003Y-120586203D01*
X116144900Y-120654872D01*
X116118625Y-120719613D01*
X116061519Y-120759871D01*
X116021519Y-120766500D01*
X115426604Y-120766500D01*
X115379151Y-120757061D01*
X115291246Y-120720649D01*
X115291238Y-120720647D01*
X115144708Y-120691500D01*
X115144705Y-120691500D01*
X114995295Y-120691500D01*
X114995292Y-120691500D01*
X114848760Y-120720647D01*
X114848752Y-120720649D01*
X114710718Y-120777825D01*
X114710708Y-120777830D01*
X114586483Y-120860834D01*
X113355835Y-122091482D01*
X113272823Y-122215719D01*
X113215650Y-122353749D01*
X113215647Y-122353761D01*
X113209214Y-122386102D01*
X113209214Y-122386103D01*
X113186500Y-122500291D01*
X113186500Y-123431105D01*
X113166815Y-123498144D01*
X113114011Y-123543899D01*
X113044853Y-123553843D01*
X113033994Y-123551784D01*
X113032376Y-123551401D01*
X112972844Y-123545000D01*
X112375000Y-123545000D01*
X112375000Y-124529314D01*
X112370606Y-124524920D01*
X112279394Y-124472259D01*
X112177661Y-124445000D01*
X112072339Y-124445000D01*
X111970606Y-124472259D01*
X111879394Y-124524920D01*
X111875000Y-124529314D01*
X111875000Y-123545000D01*
X111277155Y-123545000D01*
X111217627Y-123551401D01*
X111217620Y-123551403D01*
X111082913Y-123601645D01*
X111082906Y-123601649D01*
X110967812Y-123687809D01*
X110967809Y-123687812D01*
X110881649Y-123802906D01*
X110881645Y-123802913D01*
X110831403Y-123937620D01*
X110831401Y-123937627D01*
X110825000Y-123997155D01*
X110825000Y-124595000D01*
X111809314Y-124595000D01*
X111804920Y-124599394D01*
X111752259Y-124690606D01*
X111725000Y-124792339D01*
X111725000Y-124897661D01*
X111752259Y-124999394D01*
X111804920Y-125090606D01*
X111809314Y-125095000D01*
X110825000Y-125095000D01*
X110825000Y-125692844D01*
X110831401Y-125752372D01*
X110831403Y-125752379D01*
X110881645Y-125887086D01*
X110881649Y-125887093D01*
X110967809Y-126002187D01*
X110967812Y-126002190D01*
X111082906Y-126088350D01*
X111082913Y-126088354D01*
X111217620Y-126138596D01*
X111217626Y-126138598D01*
X111243190Y-126141347D01*
X111307740Y-126168086D01*
X111347588Y-126225478D01*
X111350081Y-126295304D01*
X111314428Y-126355392D01*
X111302819Y-126364953D01*
X111272578Y-126386924D01*
X111272571Y-126386930D01*
X111126930Y-126532571D01*
X111126926Y-126532576D01*
X111005873Y-126699193D01*
X110912367Y-126882705D01*
X110848719Y-127078591D01*
X110816500Y-127282019D01*
X110816500Y-127487980D01*
X110848719Y-127691408D01*
X110912367Y-127887294D01*
X110948586Y-127958375D01*
X110987795Y-128035327D01*
X111000691Y-128103995D01*
X110974415Y-128168735D01*
X110964991Y-128179302D01*
X109713783Y-129430511D01*
X109652460Y-129463996D01*
X109582768Y-129459012D01*
X109526835Y-129417140D01*
X109515617Y-129399125D01*
X109487080Y-129343119D01*
X109434129Y-129239197D01*
X109323702Y-129087206D01*
X109313073Y-129072576D01*
X109313069Y-129072571D01*
X109167428Y-128926930D01*
X109167423Y-128926926D01*
X109000806Y-128805873D01*
X109000805Y-128805872D01*
X109000803Y-128805871D01*
X108921540Y-128765484D01*
X108870745Y-128717510D01*
X108853950Y-128649689D01*
X108876487Y-128583554D01*
X108921541Y-128544515D01*
X109000803Y-128504129D01*
X109167430Y-128383068D01*
X109313068Y-128237430D01*
X109434129Y-128070803D01*
X109527634Y-127887290D01*
X109591280Y-127691408D01*
X109623500Y-127487981D01*
X109623500Y-127282019D01*
X109605799Y-127170260D01*
X109591280Y-127078591D01*
X109552285Y-126958578D01*
X109527634Y-126882710D01*
X109527632Y-126882707D01*
X109527632Y-126882705D01*
X109476911Y-126783161D01*
X109434129Y-126699197D01*
X109375206Y-126618096D01*
X109313073Y-126532576D01*
X109313069Y-126532571D01*
X109167426Y-126386928D01*
X109147477Y-126372435D01*
X109104810Y-126317106D01*
X109098830Y-126247492D01*
X109131436Y-126185697D01*
X109192274Y-126151339D01*
X109207092Y-126148828D01*
X109224201Y-126146989D01*
X109224206Y-126146987D01*
X109224207Y-126146987D01*
X109250535Y-126137166D01*
X109361204Y-126095889D01*
X109478261Y-126008261D01*
X109565889Y-125891204D01*
X109616989Y-125754201D01*
X109620591Y-125720692D01*
X109623499Y-125693654D01*
X109623500Y-125693637D01*
X109623500Y-125224832D01*
X109643185Y-125157793D01*
X109659819Y-125137151D01*
X110295325Y-124501645D01*
X110295328Y-124501642D01*
X110372865Y-124385601D01*
X110415115Y-124283600D01*
X110426273Y-124256662D01*
X110453500Y-124119781D01*
X110453500Y-99535219D01*
X110426273Y-99398338D01*
X110387576Y-99304916D01*
X110372865Y-99269399D01*
X110295327Y-99153357D01*
X110295323Y-99153353D01*
X110295321Y-99153350D01*
X109659819Y-98517848D01*
X109626334Y-98456525D01*
X109623500Y-98430167D01*
X109623500Y-97326362D01*
X109623499Y-97326345D01*
X109620157Y-97295270D01*
X109616989Y-97265799D01*
X109565889Y-97128796D01*
X109478261Y-97011739D01*
X109361204Y-96924111D01*
X109224203Y-96873011D01*
X109163654Y-96866500D01*
X109163638Y-96866500D01*
X107466362Y-96866500D01*
X107466345Y-96866500D01*
X107405797Y-96873011D01*
X107405795Y-96873011D01*
X107268795Y-96924111D01*
X107151739Y-97011739D01*
X107064111Y-97128795D01*
X107013011Y-97265795D01*
X107013011Y-97265797D01*
X107006500Y-97326345D01*
X107006500Y-99023654D01*
X107013011Y-99084202D01*
X107013011Y-99084204D01*
X107062575Y-99217086D01*
X107064111Y-99221204D01*
X107151739Y-99338261D01*
X107268796Y-99425889D01*
X107345564Y-99454522D01*
X107405795Y-99476988D01*
X107405798Y-99476989D01*
X107422893Y-99478827D01*
X107487444Y-99505565D01*
X107527293Y-99562957D01*
X107529786Y-99632782D01*
X107494134Y-99692871D01*
X107482524Y-99702434D01*
X107462571Y-99716930D01*
X107316930Y-99862571D01*
X107316926Y-99862576D01*
X107195873Y-100029193D01*
X107102367Y-100212705D01*
X107038719Y-100408591D01*
X107006500Y-100612019D01*
X107006500Y-100817980D01*
X107038719Y-101021408D01*
X107102367Y-101217294D01*
X107158325Y-101327115D01*
X107190516Y-101390294D01*
X107195873Y-101400806D01*
X107316926Y-101567423D01*
X107316930Y-101567428D01*
X107462571Y-101713069D01*
X107462576Y-101713073D01*
X107629195Y-101834128D01*
X107708459Y-101874516D01*
X107759254Y-101922490D01*
X107776049Y-101990311D01*
X107753511Y-102056446D01*
X107708459Y-102095484D01*
X107629195Y-102135871D01*
X107462576Y-102256926D01*
X107462571Y-102256930D01*
X107316930Y-102402571D01*
X107316926Y-102402576D01*
X107195873Y-102569193D01*
X107102367Y-102752705D01*
X107038719Y-102948591D01*
X107006500Y-103152019D01*
X107006500Y-103357981D01*
X107007487Y-103364212D01*
X107038719Y-103561408D01*
X107102367Y-103757294D01*
X107148123Y-103847093D01*
X107192234Y-103933666D01*
X107195873Y-103940806D01*
X107316926Y-104107423D01*
X107316930Y-104107428D01*
X107462571Y-104253069D01*
X107462576Y-104253073D01*
X107629195Y-104374128D01*
X107708459Y-104414516D01*
X107759254Y-104462490D01*
X107776049Y-104530311D01*
X107753511Y-104596446D01*
X107708459Y-104635484D01*
X107629195Y-104675871D01*
X107462576Y-104796926D01*
X107462571Y-104796930D01*
X107316930Y-104942571D01*
X107316926Y-104942576D01*
X107195873Y-105109193D01*
X107102367Y-105292705D01*
X107038719Y-105488591D01*
X107006500Y-105692019D01*
X107006500Y-105897981D01*
X107008181Y-105908592D01*
X107038719Y-106101408D01*
X107102367Y-106297294D01*
X107150265Y-106391297D01*
X107183831Y-106457174D01*
X107195873Y-106480806D01*
X107316926Y-106647423D01*
X107316930Y-106647428D01*
X107462571Y-106793069D01*
X107462576Y-106793073D01*
X107629195Y-106914128D01*
X107708459Y-106954516D01*
X107759254Y-107002490D01*
X107776049Y-107070311D01*
X107753511Y-107136446D01*
X107708459Y-107175484D01*
X107629195Y-107215871D01*
X107462576Y-107336926D01*
X107462571Y-107336930D01*
X107316930Y-107482571D01*
X107316926Y-107482576D01*
X107195873Y-107649193D01*
X107102367Y-107832705D01*
X107038719Y-108028591D01*
X107006500Y-108232019D01*
X107006500Y-108437980D01*
X107038719Y-108641408D01*
X107102367Y-108837294D01*
X107162687Y-108955676D01*
X107194479Y-109018072D01*
X107195873Y-109020806D01*
X107316926Y-109187423D01*
X107316930Y-109187428D01*
X107462571Y-109333069D01*
X107462576Y-109333073D01*
X107629195Y-109454128D01*
X107708459Y-109494516D01*
X107759254Y-109542490D01*
X107776049Y-109610311D01*
X107753511Y-109676446D01*
X107708459Y-109715484D01*
X107629195Y-109755871D01*
X107462576Y-109876926D01*
X107462571Y-109876930D01*
X107316930Y-110022571D01*
X107316926Y-110022576D01*
X107195873Y-110189193D01*
X107102367Y-110372705D01*
X107038719Y-110568591D01*
X107008949Y-110756559D01*
X107006500Y-110772019D01*
X107006500Y-110977981D01*
X107011720Y-111010937D01*
X107029281Y-111121815D01*
X107020326Y-111191109D01*
X106994489Y-111228894D01*
X106628113Y-111595270D01*
X106566790Y-111628755D01*
X106497098Y-111623771D01*
X106441165Y-111581899D01*
X106422501Y-111545908D01*
X106367973Y-111378091D01*
X106291952Y-111228894D01*
X106269925Y-111185663D01*
X106142979Y-111010937D01*
X105990263Y-110858221D01*
X105820825Y-110735117D01*
X105778161Y-110679788D01*
X105772182Y-110610175D01*
X105804788Y-110548380D01*
X105820826Y-110534482D01*
X105821638Y-110533892D01*
X105990263Y-110411379D01*
X106142979Y-110258663D01*
X106269925Y-110083937D01*
X106367975Y-109891504D01*
X106434715Y-109686101D01*
X106436244Y-109676446D01*
X106468500Y-109472792D01*
X106468500Y-109256807D01*
X106434715Y-109043498D01*
X106390002Y-108905888D01*
X106367975Y-108838096D01*
X106367973Y-108838093D01*
X106367973Y-108838091D01*
X106286703Y-108678592D01*
X106269925Y-108645663D01*
X106142979Y-108470937D01*
X105990263Y-108318221D01*
X105820825Y-108195117D01*
X105778161Y-108139788D01*
X105772182Y-108070175D01*
X105804788Y-108008380D01*
X105820826Y-107994482D01*
X105990263Y-107871379D01*
X106142979Y-107718663D01*
X106269925Y-107543937D01*
X106367975Y-107351504D01*
X106434715Y-107146101D01*
X106448931Y-107056345D01*
X106468500Y-106932792D01*
X106468500Y-106716807D01*
X106434715Y-106503498D01*
X106394099Y-106378498D01*
X106367975Y-106298096D01*
X106367973Y-106298093D01*
X106367973Y-106298091D01*
X106316248Y-106196578D01*
X106269925Y-106105663D01*
X106142979Y-105930937D01*
X105990263Y-105778221D01*
X105820824Y-105655116D01*
X105778161Y-105599788D01*
X105772182Y-105530175D01*
X105804788Y-105468380D01*
X105820826Y-105454482D01*
X105990263Y-105331379D01*
X106142979Y-105178663D01*
X106269925Y-105003937D01*
X106367975Y-104811504D01*
X106434715Y-104606101D01*
X106436244Y-104596446D01*
X106468500Y-104392792D01*
X106468500Y-104176807D01*
X106434715Y-103963498D01*
X106367973Y-103758091D01*
X106269924Y-103565662D01*
X106142979Y-103390937D01*
X105990263Y-103238221D01*
X105815537Y-103111275D01*
X105815535Y-103111274D01*
X105813596Y-103109865D01*
X105770931Y-103054535D01*
X105764952Y-102984922D01*
X105797558Y-102923127D01*
X105813596Y-102909229D01*
X105984728Y-102784893D01*
X106136493Y-102633128D01*
X106136493Y-102633127D01*
X106262655Y-102459482D01*
X106360096Y-102268243D01*
X106426424Y-102064107D01*
X106437402Y-101994800D01*
X105277251Y-101994800D01*
X105308381Y-101940881D01*
X105343000Y-101811680D01*
X105343000Y-101677920D01*
X105308381Y-101548719D01*
X105277251Y-101494800D01*
X106437402Y-101494800D01*
X106426424Y-101425492D01*
X106360096Y-101221356D01*
X106262655Y-101030117D01*
X106136493Y-100856472D01*
X106136493Y-100856471D01*
X105984728Y-100704706D01*
X105807140Y-100575680D01*
X105808390Y-100573959D01*
X105767466Y-100528764D01*
X105756014Y-100459840D01*
X105783643Y-100395665D01*
X105807757Y-100374769D01*
X105807140Y-100373920D01*
X105984727Y-100244893D01*
X105984728Y-100244893D01*
X106136493Y-100093128D01*
X106136493Y-100093127D01*
X106262655Y-99919482D01*
X106360096Y-99728243D01*
X106426424Y-99524107D01*
X106437402Y-99454800D01*
X105277251Y-99454800D01*
X105308381Y-99400881D01*
X105343000Y-99271680D01*
X105343000Y-99137920D01*
X105308381Y-99008719D01*
X105277251Y-98954800D01*
X106437402Y-98954800D01*
X106426424Y-98885492D01*
X106360096Y-98681356D01*
X106262655Y-98490117D01*
X106136493Y-98316472D01*
X106136493Y-98316471D01*
X105984728Y-98164706D01*
X105811082Y-98038544D01*
X105619845Y-97941103D01*
X105415711Y-97874775D01*
X105203723Y-97841200D01*
X105085000Y-97841200D01*
X105085000Y-98762548D01*
X105031081Y-98731419D01*
X104901880Y-98696800D01*
X104768120Y-98696800D01*
X104638919Y-98731419D01*
X104585000Y-98762548D01*
X104585000Y-97841200D01*
X104466277Y-97841200D01*
X104254287Y-97874776D01*
X104254284Y-97874776D01*
X104140818Y-97911644D01*
X104070977Y-97913639D01*
X104011144Y-97877558D01*
X103980316Y-97814857D01*
X103978500Y-97793713D01*
X103978500Y-96356362D01*
X103978499Y-96356345D01*
X103975157Y-96325270D01*
X103971989Y-96295799D01*
X103960874Y-96266000D01*
X103940913Y-96212483D01*
X103930928Y-96185713D01*
X103925943Y-96116023D01*
X103959428Y-96054700D01*
X104020750Y-96021214D01*
X104047439Y-96018380D01*
X124731682Y-96074664D01*
G37*
%TD.AperFunction*%
%TA.AperFunction,Conductor*%
G36*
X116098097Y-122153185D02*
G01*
X116143852Y-122205989D01*
X116153796Y-122275147D01*
X116141543Y-122313794D01*
X116130245Y-122335965D01*
X116067009Y-122530582D01*
X116035000Y-122732682D01*
X116035000Y-122937317D01*
X116067009Y-123139417D01*
X116130244Y-123334031D01*
X116223141Y-123516350D01*
X116223147Y-123516359D01*
X116255523Y-123560921D01*
X116255524Y-123560922D01*
X116852037Y-122964408D01*
X116869075Y-123027993D01*
X116934901Y-123142007D01*
X117027993Y-123235099D01*
X117142007Y-123300925D01*
X117205590Y-123317962D01*
X116609076Y-123914474D01*
X116653650Y-123946859D01*
X116835968Y-124039754D01*
X117013995Y-124097600D01*
X117071670Y-124137038D01*
X117098868Y-124201397D01*
X117086953Y-124270243D01*
X117039709Y-124321719D01*
X117013995Y-124333462D01*
X116832705Y-124392367D01*
X116649193Y-124485873D01*
X116482576Y-124606926D01*
X116482571Y-124606930D01*
X116336930Y-124752571D01*
X116336926Y-124752576D01*
X116215873Y-124919193D01*
X116122367Y-125102705D01*
X116058719Y-125298591D01*
X116026500Y-125502019D01*
X116026500Y-125707986D01*
X116035659Y-125765812D01*
X116026705Y-125835105D01*
X116000867Y-125872891D01*
X114915181Y-126958578D01*
X114853858Y-126992063D01*
X114784166Y-126987079D01*
X114728233Y-126945207D01*
X114703816Y-126879743D01*
X114703500Y-126870897D01*
X114703500Y-122940543D01*
X114723185Y-122873504D01*
X114739819Y-122852862D01*
X115422862Y-122169819D01*
X115484185Y-122136334D01*
X115510543Y-122133500D01*
X116031058Y-122133500D01*
X116098097Y-122153185D01*
G37*
%TD.AperFunction*%
%TA.AperFunction,Conductor*%
G36*
X118793410Y-121681111D02*
G01*
X118825706Y-121683421D01*
X118827907Y-121685069D01*
X118830642Y-121685383D01*
X118855710Y-121705881D01*
X118881640Y-121725292D01*
X118883253Y-121728404D01*
X118884731Y-121729612D01*
X118900304Y-121761284D01*
X118962367Y-121952294D01*
X119003525Y-122033069D01*
X119051993Y-122128193D01*
X119055873Y-122135806D01*
X119176926Y-122302423D01*
X119176930Y-122302428D01*
X119322571Y-122448069D01*
X119322576Y-122448073D01*
X119394449Y-122500291D01*
X119489197Y-122569129D01*
X119606128Y-122628709D01*
X119672705Y-122662632D01*
X119672707Y-122662632D01*
X119672710Y-122662634D01*
X119745804Y-122686383D01*
X119840242Y-122717069D01*
X119897917Y-122756507D01*
X119925115Y-122820866D01*
X119913200Y-122889712D01*
X119865956Y-122941188D01*
X119840242Y-122952931D01*
X119672705Y-123007367D01*
X119489193Y-123100873D01*
X119322576Y-123221926D01*
X119322571Y-123221930D01*
X119176930Y-123367571D01*
X119176926Y-123367576D01*
X119055873Y-123534193D01*
X118962367Y-123717705D01*
X118898719Y-123913591D01*
X118866500Y-124117019D01*
X118866500Y-124322980D01*
X118889281Y-124466815D01*
X118880326Y-124536109D01*
X118854489Y-124573894D01*
X118579959Y-124848424D01*
X118518636Y-124881909D01*
X118448944Y-124876925D01*
X118393011Y-124835053D01*
X118392008Y-124833695D01*
X118333068Y-124752570D01*
X118187430Y-124606932D01*
X118187428Y-124606930D01*
X118187423Y-124606926D01*
X118020806Y-124485873D01*
X118020805Y-124485872D01*
X118020803Y-124485871D01*
X117940590Y-124445000D01*
X117837294Y-124392367D01*
X117656004Y-124333462D01*
X117598329Y-124294024D01*
X117571131Y-124229665D01*
X117583046Y-124160819D01*
X117630290Y-124109343D01*
X117656005Y-124097600D01*
X117834029Y-124039755D01*
X118016349Y-123946859D01*
X118060921Y-123914474D01*
X117464409Y-123317962D01*
X117527993Y-123300925D01*
X117642007Y-123235099D01*
X117735099Y-123142007D01*
X117800925Y-123027993D01*
X117817962Y-122964409D01*
X118414474Y-123560921D01*
X118446859Y-123516349D01*
X118539755Y-123334031D01*
X118602990Y-123139417D01*
X118635000Y-122937317D01*
X118635000Y-122732682D01*
X118602990Y-122530582D01*
X118539755Y-122335968D01*
X118446859Y-122153650D01*
X118427517Y-122127028D01*
X118404037Y-122061222D01*
X118419862Y-121993168D01*
X118440154Y-121966461D01*
X118520909Y-121885706D01*
X118601585Y-121805030D01*
X118694694Y-121711920D01*
X118697106Y-121710603D01*
X118698527Y-121708248D01*
X118727590Y-121693957D01*
X118756015Y-121678437D01*
X118758758Y-121678633D01*
X118761228Y-121677419D01*
X118793410Y-121681111D01*
G37*
%TD.AperFunction*%
%TA.AperFunction,Conductor*%
G36*
X118578699Y-115280331D02*
G01*
X118579960Y-115281575D01*
X118854489Y-115556104D01*
X118887974Y-115617427D01*
X118889281Y-115663182D01*
X118875998Y-115747051D01*
X118866500Y-115807019D01*
X118866500Y-116012981D01*
X118869576Y-116032399D01*
X118898719Y-116216408D01*
X118962367Y-116412294D01*
X118985705Y-116458096D01*
X119042253Y-116569077D01*
X119055873Y-116595806D01*
X119176926Y-116762423D01*
X119176930Y-116762428D01*
X119322571Y-116908069D01*
X119322576Y-116908073D01*
X119384514Y-116953073D01*
X119489197Y-117029129D01*
X119606128Y-117088709D01*
X119672705Y-117122632D01*
X119672707Y-117122632D01*
X119672710Y-117122634D01*
X119735464Y-117143024D01*
X119840242Y-117177069D01*
X119897917Y-117216507D01*
X119925115Y-117280866D01*
X119913200Y-117349712D01*
X119865956Y-117401188D01*
X119840242Y-117412931D01*
X119672705Y-117467367D01*
X119489193Y-117560873D01*
X119322576Y-117681926D01*
X119322571Y-117681930D01*
X119176930Y-117827571D01*
X119176926Y-117827576D01*
X119055873Y-117994193D01*
X118962367Y-118177705D01*
X118898719Y-118373591D01*
X118866500Y-118577019D01*
X118866500Y-118782980D01*
X118898719Y-118986408D01*
X118962367Y-119182294D01*
X119032424Y-119319787D01*
X119045320Y-119388456D01*
X119019044Y-119453197D01*
X119009620Y-119463763D01*
X118779747Y-119693636D01*
X118718424Y-119727121D01*
X118648732Y-119722137D01*
X118592799Y-119680265D01*
X118574135Y-119644273D01*
X118570403Y-119632787D01*
X118547634Y-119562710D01*
X118454129Y-119379197D01*
X118410965Y-119319787D01*
X118333073Y-119212576D01*
X118333069Y-119212571D01*
X118187428Y-119066930D01*
X118187423Y-119066926D01*
X118020806Y-118945873D01*
X118020805Y-118945872D01*
X118020803Y-118945871D01*
X117963496Y-118916671D01*
X117837294Y-118852367D01*
X117656004Y-118793462D01*
X117598329Y-118754024D01*
X117571131Y-118689665D01*
X117583046Y-118620819D01*
X117630290Y-118569343D01*
X117656005Y-118557600D01*
X117834029Y-118499755D01*
X118016349Y-118406859D01*
X118060921Y-118374474D01*
X117464409Y-117777962D01*
X117527993Y-117760925D01*
X117642007Y-117695099D01*
X117735099Y-117602007D01*
X117800925Y-117487993D01*
X117817962Y-117424410D01*
X118414474Y-118020922D01*
X118414474Y-118020921D01*
X118446859Y-117976349D01*
X118539755Y-117794031D01*
X118602990Y-117599417D01*
X118635000Y-117397317D01*
X118635000Y-117192682D01*
X118602990Y-116990582D01*
X118539755Y-116795968D01*
X118446859Y-116613650D01*
X118414474Y-116569077D01*
X118414474Y-116569076D01*
X117817962Y-117165589D01*
X117800925Y-117102007D01*
X117735099Y-116987993D01*
X117642007Y-116894901D01*
X117527993Y-116829075D01*
X117464408Y-116812037D01*
X118060922Y-116215524D01*
X118060921Y-116215523D01*
X118016359Y-116183147D01*
X118016350Y-116183141D01*
X117834031Y-116090244D01*
X117656004Y-116032399D01*
X117598329Y-115992961D01*
X117571131Y-115928602D01*
X117583046Y-115859756D01*
X117630290Y-115808280D01*
X117656005Y-115796537D01*
X117837290Y-115737634D01*
X118020803Y-115644129D01*
X118187430Y-115523068D01*
X118333068Y-115377430D01*
X118391961Y-115296370D01*
X118447290Y-115253705D01*
X118516903Y-115247726D01*
X118578699Y-115280331D01*
G37*
%TD.AperFunction*%
%TA.AperFunction,Conductor*%
G36*
X94844539Y-96974685D02*
G01*
X94890294Y-97027489D01*
X94901500Y-97079000D01*
X94901500Y-97553654D01*
X94908011Y-97614202D01*
X94908012Y-97614207D01*
X94959108Y-97751198D01*
X94959113Y-97751207D01*
X94960263Y-97752743D01*
X94960933Y-97754541D01*
X94963362Y-97758988D01*
X94962722Y-97759336D01*
X94984684Y-97818206D01*
X94985000Y-97827058D01*
X94985000Y-98005000D01*
X95027500Y-98005000D01*
X95094539Y-98024685D01*
X95140294Y-98077489D01*
X95151500Y-98129000D01*
X95151500Y-101068394D01*
X95142061Y-101115846D01*
X95105650Y-101203749D01*
X95105647Y-101203759D01*
X95076500Y-101350291D01*
X95076500Y-106910450D01*
X95056815Y-106977489D01*
X95004011Y-107023244D01*
X94934853Y-107033188D01*
X94871297Y-107004163D01*
X94836319Y-106953785D01*
X94812876Y-106890934D01*
X94800889Y-106858796D01*
X94713261Y-106741739D01*
X94596204Y-106654111D01*
X94578292Y-106647430D01*
X94459203Y-106603011D01*
X94398654Y-106596500D01*
X94398638Y-106596500D01*
X92401362Y-106596500D01*
X92401345Y-106596500D01*
X92340797Y-106603011D01*
X92340795Y-106603011D01*
X92203795Y-106654111D01*
X92086739Y-106741739D01*
X91999111Y-106858795D01*
X91948011Y-106995795D01*
X91948011Y-106995797D01*
X91941500Y-107056345D01*
X91941500Y-108503654D01*
X91948011Y-108564202D01*
X91948011Y-108564204D01*
X91999111Y-108701203D01*
X91999111Y-108701204D01*
X92086739Y-108818261D01*
X92203796Y-108905889D01*
X92281191Y-108934756D01*
X92337278Y-108955676D01*
X92340799Y-108956989D01*
X92368050Y-108959918D01*
X92401345Y-108963499D01*
X92401362Y-108963500D01*
X94398638Y-108963500D01*
X94398654Y-108963499D01*
X94425692Y-108960591D01*
X94459201Y-108956989D01*
X94596204Y-108905889D01*
X94713261Y-108818261D01*
X94800889Y-108701204D01*
X94823192Y-108641408D01*
X94836319Y-108606215D01*
X94878190Y-108550281D01*
X94943655Y-108525865D01*
X95011928Y-108540717D01*
X95061333Y-108590123D01*
X95076500Y-108649549D01*
X95076500Y-112374456D01*
X95056815Y-112441495D01*
X95004011Y-112487250D01*
X94934853Y-112497194D01*
X94871297Y-112468169D01*
X94864819Y-112462137D01*
X91178317Y-108775635D01*
X91116093Y-108734059D01*
X91080637Y-108710368D01*
X91039044Y-108663560D01*
X91029925Y-108645663D01*
X91029924Y-108645661D01*
X91001164Y-108606078D01*
X90902979Y-108470937D01*
X90750263Y-108318221D01*
X90580825Y-108195117D01*
X90538161Y-108139788D01*
X90532182Y-108070175D01*
X90564788Y-108008380D01*
X90580826Y-107994482D01*
X90750263Y-107871379D01*
X90902979Y-107718663D01*
X91029925Y-107543937D01*
X91127975Y-107351504D01*
X91194715Y-107146101D01*
X91208931Y-107056345D01*
X91228500Y-106932792D01*
X91228500Y-106716807D01*
X91194715Y-106503498D01*
X91154099Y-106378498D01*
X91127975Y-106298096D01*
X91127973Y-106298093D01*
X91127973Y-106298091D01*
X91076248Y-106196578D01*
X91029925Y-106105663D01*
X90902979Y-105930937D01*
X90750263Y-105778221D01*
X90580824Y-105655116D01*
X90538161Y-105599788D01*
X90532182Y-105530175D01*
X90564788Y-105468380D01*
X90580826Y-105454482D01*
X90750263Y-105331379D01*
X90902979Y-105178663D01*
X91029925Y-105003937D01*
X91127975Y-104811504D01*
X91194715Y-104606101D01*
X91196244Y-104596446D01*
X91228500Y-104392792D01*
X91228500Y-104176807D01*
X91194715Y-103963498D01*
X91127973Y-103758091D01*
X91029924Y-103565662D01*
X90902979Y-103390937D01*
X90750263Y-103238221D01*
X90580825Y-103115117D01*
X90538161Y-103059788D01*
X90532182Y-102990175D01*
X90564788Y-102928380D01*
X90580826Y-102914482D01*
X90583279Y-102912700D01*
X90750263Y-102791379D01*
X90902979Y-102638663D01*
X91029925Y-102463937D01*
X91127975Y-102271504D01*
X91194715Y-102066101D01*
X91196244Y-102056446D01*
X91228500Y-101852792D01*
X91228500Y-101636807D01*
X91194715Y-101423498D01*
X91155842Y-101303860D01*
X91127975Y-101218096D01*
X91127973Y-101218093D01*
X91127973Y-101218091D01*
X91064265Y-101093059D01*
X91029925Y-101025663D01*
X90902979Y-100850937D01*
X90750263Y-100698221D01*
X90580825Y-100575117D01*
X90538161Y-100519788D01*
X90532182Y-100450175D01*
X90564788Y-100388380D01*
X90580826Y-100374482D01*
X90581600Y-100373920D01*
X90750263Y-100251379D01*
X90902979Y-100098663D01*
X91029925Y-99923937D01*
X91127975Y-99731504D01*
X91194715Y-99526101D01*
X91201462Y-99483500D01*
X91228500Y-99312792D01*
X91228500Y-99096807D01*
X91202309Y-98931446D01*
X91194715Y-98883499D01*
X91193867Y-98880890D01*
X91192219Y-98875815D01*
X91190226Y-98805974D01*
X91226308Y-98746142D01*
X91289010Y-98715316D01*
X91310151Y-98713500D01*
X92008638Y-98713500D01*
X92008654Y-98713499D01*
X92035692Y-98710591D01*
X92069201Y-98706989D01*
X92206204Y-98655889D01*
X92323261Y-98568261D01*
X92410889Y-98451204D01*
X92461989Y-98314201D01*
X92468140Y-98256988D01*
X92468499Y-98253654D01*
X92468500Y-98253637D01*
X92468500Y-98137500D01*
X92471050Y-98128814D01*
X92469762Y-98119853D01*
X92480740Y-98095812D01*
X92488185Y-98070461D01*
X92495025Y-98064533D01*
X92498787Y-98056297D01*
X92521021Y-98042007D01*
X92540989Y-98024706D01*
X92551503Y-98022418D01*
X92557565Y-98018523D01*
X92592500Y-98013500D01*
X92827500Y-98013500D01*
X92894539Y-98033185D01*
X92940294Y-98085989D01*
X92951500Y-98137500D01*
X92951500Y-99718394D01*
X92942061Y-99765846D01*
X92905650Y-99853749D01*
X92905647Y-99853759D01*
X92876500Y-100000291D01*
X92876500Y-104022786D01*
X92856815Y-104089825D01*
X92825386Y-104123103D01*
X92797721Y-104143203D01*
X92797712Y-104143210D01*
X92663210Y-104277712D01*
X92663210Y-104277713D01*
X92663208Y-104277715D01*
X92615189Y-104343806D01*
X92551398Y-104431607D01*
X92465040Y-104601092D01*
X92406256Y-104782008D01*
X92376500Y-104969883D01*
X92376500Y-105160116D01*
X92406256Y-105347991D01*
X92465040Y-105528907D01*
X92529341Y-105655103D01*
X92551398Y-105698392D01*
X92663208Y-105852285D01*
X92797715Y-105986792D01*
X92951608Y-106098602D01*
X93023642Y-106135305D01*
X93121092Y-106184959D01*
X93121094Y-106184959D01*
X93121097Y-106184961D01*
X93218070Y-106216469D01*
X93302008Y-106243743D01*
X93489884Y-106273500D01*
X93489889Y-106273500D01*
X93680116Y-106273500D01*
X93867991Y-106243743D01*
X94048903Y-106184961D01*
X94218392Y-106098602D01*
X94372285Y-105986792D01*
X94506792Y-105852285D01*
X94618602Y-105698392D01*
X94704961Y-105528903D01*
X94763743Y-105347991D01*
X94772499Y-105292710D01*
X94793500Y-105160116D01*
X94793500Y-104969883D01*
X94763743Y-104782008D01*
X94713830Y-104628393D01*
X94704961Y-104601097D01*
X94704959Y-104601094D01*
X94704959Y-104601092D01*
X94634337Y-104462490D01*
X94618602Y-104431608D01*
X94506792Y-104277715D01*
X94429819Y-104200742D01*
X94396334Y-104139419D01*
X94393500Y-104113061D01*
X94393500Y-100000291D01*
X94364352Y-99853759D01*
X94364351Y-99853758D01*
X94364351Y-99853754D01*
X94327939Y-99765846D01*
X94318500Y-99718394D01*
X94318500Y-98129000D01*
X94338185Y-98061961D01*
X94390989Y-98016206D01*
X94442500Y-98005000D01*
X94485000Y-98005000D01*
X94485000Y-97827058D01*
X94504685Y-97760019D01*
X94509737Y-97752743D01*
X94509852Y-97752589D01*
X94510889Y-97751204D01*
X94561989Y-97614201D01*
X94565591Y-97580692D01*
X94568499Y-97553654D01*
X94568500Y-97553637D01*
X94568500Y-97079000D01*
X94571050Y-97070314D01*
X94569762Y-97061353D01*
X94580740Y-97037312D01*
X94588185Y-97011961D01*
X94595025Y-97006033D01*
X94598787Y-96997797D01*
X94621021Y-96983507D01*
X94640989Y-96966206D01*
X94651503Y-96963918D01*
X94657565Y-96960023D01*
X94692500Y-96955000D01*
X94777500Y-96955000D01*
X94844539Y-96974685D01*
G37*
%TD.AperFunction*%
%TA.AperFunction,Conductor*%
G36*
X101378256Y-97522297D02*
G01*
X101409530Y-97584777D01*
X101411500Y-97606792D01*
X101411500Y-97803654D01*
X101418011Y-97864202D01*
X101418011Y-97864204D01*
X101452209Y-97955889D01*
X101469111Y-98001204D01*
X101556739Y-98118261D01*
X101673796Y-98205889D01*
X101772409Y-98242670D01*
X101801857Y-98253654D01*
X101810799Y-98256989D01*
X101838050Y-98259918D01*
X101871345Y-98263499D01*
X101871362Y-98263500D01*
X103328628Y-98263500D01*
X103395667Y-98283185D01*
X103441422Y-98335989D01*
X103451366Y-98405147D01*
X103428946Y-98460386D01*
X103407344Y-98490117D01*
X103309903Y-98681356D01*
X103243575Y-98885492D01*
X103232598Y-98954800D01*
X104392749Y-98954800D01*
X104361619Y-99008719D01*
X104327000Y-99137920D01*
X104327000Y-99271680D01*
X104361619Y-99400881D01*
X104392749Y-99454800D01*
X103232598Y-99454800D01*
X103243575Y-99524107D01*
X103309903Y-99728243D01*
X103407344Y-99919482D01*
X103533506Y-100093127D01*
X103533506Y-100093128D01*
X103685271Y-100244893D01*
X103862860Y-100373920D01*
X103861616Y-100375631D01*
X103902559Y-100420890D01*
X103913978Y-100489820D01*
X103886318Y-100553982D01*
X103862248Y-100574837D01*
X103862860Y-100575680D01*
X103685272Y-100704706D01*
X103685271Y-100704706D01*
X103533506Y-100856471D01*
X103533506Y-100856472D01*
X103407344Y-101030117D01*
X103309903Y-101221356D01*
X103243575Y-101425492D01*
X103232598Y-101494800D01*
X104392749Y-101494800D01*
X104361619Y-101548719D01*
X104327000Y-101677920D01*
X104327000Y-101811680D01*
X104361619Y-101940881D01*
X104392749Y-101994800D01*
X103232597Y-101994800D01*
X103221347Y-102007971D01*
X103218386Y-102030893D01*
X103173391Y-102084346D01*
X103125999Y-102099000D01*
X103120000Y-102105000D01*
X103120000Y-104105000D01*
X103137667Y-104122667D01*
X103144539Y-104124685D01*
X103190294Y-104177489D01*
X103201500Y-104229000D01*
X103201500Y-104392792D01*
X103235284Y-104606101D01*
X103302026Y-104811508D01*
X103392504Y-104989079D01*
X103400075Y-105003937D01*
X103527021Y-105178663D01*
X103679737Y-105331379D01*
X103722668Y-105362570D01*
X103849172Y-105454481D01*
X103866341Y-105476746D01*
X103885946Y-105496911D01*
X103887393Y-105504047D01*
X103891838Y-105509811D01*
X103894244Y-105537825D01*
X103899834Y-105565387D01*
X103897194Y-105572171D01*
X103897817Y-105579424D01*
X103884694Y-105604294D01*
X103874497Y-105630500D01*
X103867044Y-105637744D01*
X103865211Y-105641219D01*
X103849192Y-105655103D01*
X103849173Y-105655116D01*
X103849173Y-105655117D01*
X103848510Y-105655598D01*
X103841403Y-105660763D01*
X103679737Y-105778221D01*
X103679561Y-105778396D01*
X103675417Y-105781409D01*
X103646830Y-105791614D01*
X103619117Y-105803988D01*
X103613009Y-105803689D01*
X103609615Y-105804901D01*
X103602101Y-105803155D01*
X103587064Y-105802419D01*
X103586912Y-105803840D01*
X103518654Y-105796500D01*
X103518638Y-105796500D01*
X102221362Y-105796500D01*
X102221345Y-105796500D01*
X102160797Y-105803011D01*
X102160795Y-105803011D01*
X102033915Y-105850336D01*
X102023796Y-105854111D01*
X102023793Y-105854112D01*
X102023789Y-105854115D01*
X102008580Y-105865500D01*
X101976618Y-105877419D01*
X101943121Y-105889914D01*
X101943117Y-105889913D01*
X101943115Y-105889914D01*
X101913413Y-105883451D01*
X101874848Y-105875063D01*
X101874844Y-105875060D01*
X101874842Y-105875060D01*
X101846594Y-105853912D01*
X101798517Y-105805836D01*
X101798516Y-105805835D01*
X101188518Y-105195836D01*
X101188517Y-105195835D01*
X101067476Y-105114959D01*
X101064284Y-105112826D01*
X101055513Y-105109193D01*
X100926247Y-105055649D01*
X100926239Y-105055647D01*
X100852976Y-105041074D01*
X100779709Y-105026500D01*
X100779706Y-105026500D01*
X100017500Y-105026500D01*
X99950461Y-105006815D01*
X99904706Y-104954011D01*
X99893500Y-104902500D01*
X99893500Y-103652844D01*
X101770000Y-103652844D01*
X101776401Y-103712372D01*
X101776403Y-103712379D01*
X101826645Y-103847086D01*
X101826649Y-103847093D01*
X101912809Y-103962187D01*
X101912812Y-103962190D01*
X102027906Y-104048350D01*
X102027913Y-104048354D01*
X102162620Y-104098596D01*
X102162627Y-104098598D01*
X102222155Y-104104999D01*
X102222172Y-104105000D01*
X102620000Y-104105000D01*
X102620000Y-103355000D01*
X101770000Y-103355000D01*
X101770000Y-103652844D01*
X99893500Y-103652844D01*
X99893500Y-102557155D01*
X101770000Y-102557155D01*
X101770000Y-102855000D01*
X102620000Y-102855000D01*
X102620000Y-102105000D01*
X102222155Y-102105000D01*
X102162627Y-102111401D01*
X102162620Y-102111403D01*
X102027913Y-102161645D01*
X102027906Y-102161649D01*
X101912812Y-102247809D01*
X101912809Y-102247812D01*
X101826649Y-102362906D01*
X101826645Y-102362913D01*
X101776403Y-102497620D01*
X101776401Y-102497627D01*
X101770000Y-102557155D01*
X99893500Y-102557155D01*
X99893500Y-98137500D01*
X99913185Y-98070461D01*
X99965989Y-98024706D01*
X100017500Y-98013500D01*
X100708638Y-98013500D01*
X100708654Y-98013499D01*
X100735692Y-98010591D01*
X100769201Y-98006989D01*
X100906204Y-97955889D01*
X101023261Y-97868261D01*
X101110889Y-97751204D01*
X101161989Y-97614201D01*
X101164211Y-97593536D01*
X101190949Y-97528985D01*
X101248342Y-97489137D01*
X101318167Y-97486644D01*
X101378256Y-97522297D01*
G37*
%TD.AperFunction*%
%TA.AperFunction,Conductor*%
G36*
X105085000Y-101302548D02*
G01*
X105031081Y-101271419D01*
X104901880Y-101236800D01*
X104768120Y-101236800D01*
X104638919Y-101271419D01*
X104585000Y-101302548D01*
X104585000Y-99647051D01*
X104638919Y-99678181D01*
X104768120Y-99712800D01*
X104901880Y-99712800D01*
X105031081Y-99678181D01*
X105085000Y-99647051D01*
X105085000Y-101302548D01*
G37*
%TD.AperFunction*%
%TD*%
D34*
X87831000Y-149701000D02*
X87835000Y-96139000D01*
X124714000Y-95885000D02*
X88089000Y-95885000D01*
X124841000Y-149959000D02*
X88085000Y-149955000D01*
X87835000Y-96139000D02*
G75*
G02*
X88089000Y-95885000I254000J0D01*
G01*
X88085000Y-149955000D02*
G75*
G02*
X87831000Y-149701000I0J254000D01*
G01*
X124714000Y-95885000D02*
G75*
G02*
X125095000Y-96266000I0J-381000D01*
G01*
X125095000Y-149705000D02*
X125095000Y-96266000D01*
X125095000Y-149705000D02*
G75*
G02*
X124841000Y-149959000I-254000J0D01*
G01*
M02*
