M48
; DRILL file {KiCad 9.0.0} date 2025-04-09T09:16:36-0300
; FORMAT={-:-/ absolute / metric / decimal}
; #@! TF.CreationDate,2025-04-09T09:16:36-03:00
; #@! TF.GenerationSoftware,Kicad,Pcbnew,9.0.0
; #@! TF.FileFunction,MixedPlating,1,2
FMAT,2
METRIC
; #@! TA.AperFunction,Plated,PTH,ViaDrill
T1C0.500
; #@! TA.AperFunction,Plated,PTH,ViaDrill
T2C0.650
; #@! TA.AperFunction,Plated,PTH,ComponentDrill
T3C0.800
; #@! TA.AperFunction,Plated,PTH,ComponentDrill
T4C0.900
; #@! TA.AperFunction,Plated,PTH,ComponentDrill
T5C1.000
; #@! TA.AperFunction,Plated,PTH,ComponentDrill
T6C1.016
; #@! TA.AperFunction,Plated,PTH,ViaDrill
T7C3.000
; #@! TA.AperFunction,Plated,PTH,ComponentDrill
T8C3.200
%
G90
G05
T1
X94.745Y-98.785
X96.885Y-100.205
X110.045Y-131.235
X115.655Y-113.675
T2
X92.265Y-119.255
X92.875Y-136.675
X93.585Y-105.065
X95.785Y-123.835
X97.45Y-114.5
X98.065Y-141.765
X98.265Y-146.045
X98.675Y-111.865
X114.165Y-108.145
X115.645Y-105.145
X123.615Y-103.995
T3
X108.315Y-98.175
X108.315Y-100.715
X108.315Y-103.255
X108.315Y-105.795
X108.315Y-108.335
X108.315Y-110.875
X108.315Y-113.415
X108.315Y-115.955
X108.315Y-118.495
X108.315Y-121.035
X108.315Y-124.845
X108.315Y-127.385
X108.315Y-129.925
X108.315Y-132.465
X108.315Y-135.005
X108.315Y-137.545
X108.315Y-140.085
X108.315Y-142.625
X108.315Y-145.165
X108.315Y-147.705
X112.125Y-98.175
X112.125Y-100.715
X112.125Y-103.255
X112.125Y-105.795
X112.125Y-108.335
X112.125Y-110.875
X112.125Y-113.415
X112.125Y-115.955
X112.125Y-118.495
X112.125Y-121.035
X112.125Y-124.845
X112.125Y-127.385
X112.125Y-129.925
X112.125Y-132.465
X112.125Y-135.005
X112.125Y-137.545
X112.125Y-140.085
X112.125Y-142.625
X112.125Y-145.165
X112.125Y-147.705
T4
X95.375Y-140.925
X95.375Y-148.545
T5
X117.335Y-106.215
X117.335Y-108.985
X117.335Y-111.755
X117.335Y-114.525
X117.335Y-117.295
X117.335Y-120.065
X117.335Y-122.835
X117.335Y-125.605
X117.335Y-128.375
X117.335Y-131.145
X117.335Y-133.915
X117.335Y-136.685
X117.335Y-139.455
X120.175Y-107.6
X120.175Y-110.37
X120.175Y-113.14
X120.175Y-115.91
X120.175Y-118.68
X120.175Y-121.45
X120.175Y-124.22
X120.175Y-126.99
X120.175Y-129.76
X120.175Y-132.53
X120.175Y-135.3
X120.175Y-138.07
T6
X89.595Y-99.205
X89.595Y-101.745
X89.595Y-104.285
X89.595Y-106.825
X89.595Y-109.365
X89.595Y-111.905
X89.595Y-114.445
X89.595Y-116.985
X89.595Y-119.525
X89.595Y-122.065
X89.595Y-124.605
X89.595Y-127.145
X89.595Y-129.685
X89.595Y-132.225
X89.595Y-134.765
X89.595Y-137.305
X89.595Y-139.845
X89.595Y-142.385
X89.595Y-144.925
X89.595Y-147.516
X104.835Y-99.205
X104.835Y-101.745
X104.835Y-104.285
X104.835Y-106.825
X104.835Y-109.365
X104.835Y-111.905
X104.835Y-114.445
X104.835Y-116.985
X104.835Y-119.525
X104.835Y-122.065
X104.835Y-124.605
X104.835Y-127.145
X104.835Y-129.685
X104.835Y-132.225
X104.835Y-134.765
X104.835Y-137.305
X104.835Y-139.845
X104.835Y-142.385
X104.835Y-144.925
X104.835Y-147.465
T7
X73.089Y-96.139
X73.089Y-149.955
X139.714Y-96.139
X139.714Y-149.955
T8
X117.635Y-99.285
X117.635Y-146.385
M30
