%TF.GenerationSoftware,KiCad,Pcbnew,9.0.0*%
%TF.CreationDate,2025-04-24T11:29:24-03:00*%
%TF.ProjectId,bluepill_scsi,626c7565-7069-46c6-9c5f-736373692e6b,rev?*%
%TF.SameCoordinates,Original*%
%TF.FileFunction,Copper,L1,Top*%
%TF.FilePolarity,Positive*%
%FSLAX46Y46*%
G04 Gerber Fmt 4.6, Leading zero omitted, Abs format (unit mm)*
G04 Created by KiCad (PCBNEW 9.0.0) date 2025-04-24 11:29:24*
%MOMM*%
%LPD*%
G01*
G04 APERTURE LIST*
%TA.AperFunction,ComponentPad*%
%ADD10R,1.600000X1.600000*%
%TD*%
%TA.AperFunction,ComponentPad*%
%ADD11O,1.600000X1.600000*%
%TD*%
%TA.AperFunction,ComponentPad*%
%ADD12O,1.000000X1.600000*%
%TD*%
%TA.AperFunction,ComponentPad*%
%ADD13C,4.000000*%
%TD*%
%TA.AperFunction,ComponentPad*%
%ADD14C,1.600000*%
%TD*%
%TA.AperFunction,ComponentPad*%
%ADD15R,2.000000X1.500000*%
%TD*%
%TA.AperFunction,ComponentPad*%
%ADD16O,1.100000X1.100000*%
%TD*%
%TA.AperFunction,ComponentPad*%
%ADD17O,1.700000X1.727200*%
%TD*%
%TA.AperFunction,ComponentPad*%
%ADD18O,2.250000X1.727200*%
%TD*%
%TA.AperFunction,ComponentPad*%
%ADD19R,1.800000X1.800000*%
%TD*%
%TA.AperFunction,ComponentPad*%
%ADD20O,1.800000X1.800000*%
%TD*%
%TA.AperFunction,ViaPad*%
%ADD21C,1.400000*%
%TD*%
%TA.AperFunction,ViaPad*%
%ADD22C,1.200000*%
%TD*%
%TA.AperFunction,ViaPad*%
%ADD23C,5.000000*%
%TD*%
%TA.AperFunction,Conductor*%
%ADD24C,0.500000*%
%TD*%
%TA.AperFunction,Conductor*%
%ADD25C,0.250000*%
%TD*%
%TA.AperFunction,Conductor*%
%ADD26C,0.350000*%
%TD*%
%TA.AperFunction,Profile*%
%ADD27C,0.050000*%
%TD*%
G04 APERTURE END LIST*
D10*
%TO.P,RN1,1*%
%TO.N,VCC*%
X108315000Y-98175000D03*
D11*
%TO.P,RN1,2*%
%TO.N,/SCSI_DAT0*%
X108315000Y-100715000D03*
%TO.P,RN1,3*%
%TO.N,/SCSI_DAT1*%
X108315000Y-103255000D03*
%TO.P,RN1,4*%
%TO.N,/SCSI_DAT3*%
X108315000Y-105795000D03*
%TO.P,RN1,5*%
%TO.N,/SCSI_DAT2*%
X108315000Y-108335000D03*
%TO.P,RN1,6*%
%TO.N,/SCSI_DBP*%
X108315000Y-110875000D03*
%TO.P,RN1,7*%
%TO.N,/SCSI_DAT4*%
X108315000Y-113415000D03*
%TO.P,RN1,8*%
%TO.N,/SCSI_DAT5*%
X108315000Y-115955000D03*
%TO.P,RN1,9*%
%TO.N,/SCSI_DAT6*%
X108315000Y-118495000D03*
%TO.P,RN1,10*%
%TO.N,/SCSI_DAT7*%
X108315000Y-121035000D03*
%TD*%
D10*
%TO.P,RN2,1*%
%TO.N,GND*%
X112125000Y-98175000D03*
D11*
%TO.P,RN2,2*%
%TO.N,/SCSI_DAT0*%
X112125000Y-100715000D03*
%TO.P,RN2,3*%
%TO.N,/SCSI_DAT1*%
X112125000Y-103255000D03*
%TO.P,RN2,4*%
%TO.N,/SCSI_DAT3*%
X112125000Y-105795000D03*
%TO.P,RN2,5*%
%TO.N,/SCSI_DAT2*%
X112125000Y-108335000D03*
%TO.P,RN2,6*%
%TO.N,/SCSI_DBP*%
X112125000Y-110875000D03*
%TO.P,RN2,7*%
%TO.N,/SCSI_DAT4*%
X112125000Y-113415000D03*
%TO.P,RN2,8*%
%TO.N,/SCSI_DAT5*%
X112125000Y-115955000D03*
%TO.P,RN2,9*%
%TO.N,/SCSI_DAT6*%
X112125000Y-118495000D03*
%TO.P,RN2,10*%
%TO.N,/SCSI_DAT7*%
X112125000Y-121035000D03*
%TD*%
D10*
%TO.P,RN3,1*%
%TO.N,VCC*%
X108315000Y-124845000D03*
D12*
%TO.P,RN3,2*%
%TO.N,/SCSI_ATN*%
X108315000Y-127385000D03*
D11*
%TO.P,RN3,3*%
%TO.N,/SCSI_BSY*%
X108315000Y-129925000D03*
%TO.P,RN3,4*%
%TO.N,/SCSI_ACK*%
X108315000Y-132465000D03*
%TO.P,RN3,5*%
%TO.N,/SCSI_RST*%
X108315000Y-135005000D03*
%TO.P,RN3,6*%
%TO.N,/SCSI_MSG*%
X108315000Y-137545000D03*
%TO.P,RN3,7*%
%TO.N,/SCSI_SEL*%
X108315000Y-140085000D03*
%TO.P,RN3,8*%
%TO.N,/SCSI_CD*%
X108315000Y-142625000D03*
%TO.P,RN3,9*%
%TO.N,/SCSI_REQ*%
X108315000Y-145165000D03*
%TO.P,RN3,10*%
%TO.N,/SCSI_IO*%
X108315000Y-147705000D03*
%TD*%
D10*
%TO.P,RN4,1*%
%TO.N,GND*%
X112125000Y-124845000D03*
D11*
%TO.P,RN4,2*%
%TO.N,/SCSI_ATN*%
X112125000Y-127385000D03*
%TO.P,RN4,3*%
%TO.N,/SCSI_BSY*%
X112125000Y-129925000D03*
%TO.P,RN4,4*%
%TO.N,/SCSI_ACK*%
X112125000Y-132465000D03*
%TO.P,RN4,5*%
%TO.N,/SCSI_RST*%
X112125000Y-135005000D03*
%TO.P,RN4,6*%
%TO.N,/SCSI_MSG*%
X112125000Y-137545000D03*
%TO.P,RN4,7*%
%TO.N,/SCSI_SEL*%
X112125000Y-140085000D03*
%TO.P,RN4,8*%
%TO.N,/SCSI_CD*%
X112125000Y-142625000D03*
%TO.P,RN4,9*%
%TO.N,/SCSI_REQ*%
X112125000Y-145165000D03*
%TO.P,RN4,10*%
%TO.N,/SCSI_IO*%
X112125000Y-147705000D03*
%TD*%
D13*
%TO.P,J2,0*%
%TO.N,GND*%
X117635000Y-146385000D03*
X117635000Y-99285000D03*
D10*
%TO.P,J2,1*%
%TO.N,/SCSI_REQ*%
X117335000Y-139455000D03*
D14*
%TO.P,J2,2*%
%TO.N,/SCSI_MSG*%
X117335000Y-136685000D03*
%TO.P,J2,3*%
%TO.N,/SCSI_IO*%
X117335000Y-133915000D03*
%TO.P,J2,4*%
%TO.N,/SCSI_RST*%
X117335000Y-131145000D03*
%TO.P,J2,5*%
%TO.N,/SCSI_ACK*%
X117335000Y-128375000D03*
%TO.P,J2,6*%
%TO.N,/SCSI_BSY*%
X117335000Y-125605000D03*
%TO.P,J2,7*%
%TO.N,GND*%
X117335000Y-122835000D03*
%TO.P,J2,8*%
%TO.N,/SCSI_DAT0*%
X117335000Y-120065000D03*
%TO.P,J2,9*%
%TO.N,GND*%
X117335000Y-117295000D03*
%TO.P,J2,10*%
%TO.N,/SCSI_DAT3*%
X117335000Y-114525000D03*
%TO.P,J2,11*%
%TO.N,/SCSI_DAT5*%
X117335000Y-111755000D03*
%TO.P,J2,12*%
%TO.N,/SCSI_DAT6*%
X117335000Y-108985000D03*
%TO.P,J2,13*%
%TO.N,/SCSI_DAT7*%
X117335000Y-106215000D03*
%TO.P,J2,14*%
%TO.N,GND*%
X120175000Y-138070000D03*
%TO.P,J2,15*%
%TO.N,/SCSI_CD*%
X120175000Y-135300000D03*
%TO.P,J2,16*%
%TO.N,GND*%
X120175000Y-132530000D03*
%TO.P,J2,17*%
%TO.N,/SCSI_ATN*%
X120175000Y-129760000D03*
%TO.P,J2,18*%
%TO.N,GND*%
X120175000Y-126990000D03*
%TO.P,J2,19*%
%TO.N,/SCSI_SEL*%
X120175000Y-124220000D03*
%TO.P,J2,20*%
%TO.N,/SCSI_DBP*%
X120175000Y-121450000D03*
%TO.P,J2,21*%
%TO.N,/SCSI_DAT1*%
X120175000Y-118680000D03*
%TO.P,J2,22*%
%TO.N,/SCSI_DAT2*%
X120175000Y-115910000D03*
%TO.P,J2,23*%
%TO.N,/SCSI_DAT4*%
X120175000Y-113140000D03*
%TO.P,J2,24*%
%TO.N,GND*%
X120175000Y-110370000D03*
%TO.P,J2,25*%
%TO.N,/TERM_PWR*%
X120175000Y-107600000D03*
%TD*%
D15*
%TO.P,U1,1*%
%TO.N,N/C*%
X104835000Y-147464800D03*
D16*
%TO.P,U1,2*%
X104835000Y-144924800D03*
%TO.P,U1,3*%
X104835000Y-142384800D03*
%TO.P,U1,4*%
X104835000Y-139844800D03*
%TO.P,U1,5*%
X104835000Y-137304800D03*
%TO.P,U1,6*%
X104835000Y-134764800D03*
%TO.P,U1,7*%
X104835000Y-132224800D03*
%TO.P,U1,8*%
X104835000Y-129684800D03*
D17*
%TO.P,U1,9*%
%TO.N,/SD_CS*%
X104835000Y-127144800D03*
%TO.P,U1,10*%
%TO.N,/SD_CLK*%
X104835000Y-124604800D03*
%TO.P,U1,11*%
%TO.N,/SD_MISO*%
X104835000Y-122064800D03*
%TO.P,U1,12*%
%TO.N,/SD_MOSI*%
X104835000Y-119524800D03*
%TO.P,U1,13*%
%TO.N,/SCSI_DBP*%
X104835000Y-116984800D03*
D16*
%TO.P,U1,14*%
%TO.N,N/C*%
X104835000Y-114444800D03*
D18*
%TO.P,U1,15*%
%TO.N,/SCSI_DAT2*%
X104835000Y-111904800D03*
%TO.P,U1,16*%
%TO.N,/SCSI_DAT3*%
X104835000Y-109364800D03*
D16*
%TO.P,U1,17*%
%TO.N,N/C*%
X104835000Y-106824800D03*
D18*
%TO.P,U1,18*%
%TO.N,+3V3*%
X104835000Y-104284800D03*
%TO.P,U1,19*%
%TO.N,GND*%
X104835000Y-101744800D03*
%TO.P,U1,20*%
X104835000Y-99204800D03*
%TO.P,U1,21*%
%TO.N,/SCSI_DAT4*%
X89595000Y-99204800D03*
%TO.P,U1,22*%
%TO.N,/SCSI_DAT5*%
X89595000Y-101744800D03*
%TO.P,U1,23*%
%TO.N,/SCSI_DAT6*%
X89595000Y-104284800D03*
%TO.P,U1,24*%
%TO.N,/SCSI_DAT7*%
X89595000Y-106824800D03*
%TO.P,U1,25*%
%TO.N,/SCSI_ATN*%
X89595000Y-109364800D03*
%TO.P,U1,26*%
%TO.N,/SCSI_BSY*%
X89595000Y-111904800D03*
%TO.P,U1,27*%
%TO.N,/SCSI_ACK*%
X89595000Y-114444800D03*
%TO.P,U1,28*%
%TO.N,N/C*%
X89595000Y-116984800D03*
%TO.P,U1,29*%
X89595000Y-119524800D03*
%TO.P,U1,30*%
%TO.N,/SCSI_RST*%
X89595000Y-122064800D03*
%TO.P,U1,31*%
%TO.N,/SCSI_MSG*%
X89595000Y-124604800D03*
%TO.P,U1,32*%
%TO.N,/SCSI_SEL*%
X89595000Y-127144800D03*
%TO.P,U1,33*%
%TO.N,/SCSI_CD*%
X89595000Y-129684800D03*
%TO.P,U1,34*%
%TO.N,/SCSI_REQ*%
X89595000Y-132224800D03*
%TO.P,U1,35*%
%TO.N,/SCSI_IO*%
X89595000Y-134764800D03*
%TO.P,U1,36*%
%TO.N,/SCSI_DAT0*%
X89595000Y-137304800D03*
%TO.P,U1,37*%
%TO.N,/SCSI_DAT1*%
X89595000Y-139844800D03*
%TO.P,U1,38*%
%TO.N,VCC*%
X89595000Y-142384800D03*
%TO.P,U1,39*%
%TO.N,GND*%
X89595000Y-144924800D03*
%TO.P,U1,40*%
%TO.N,+3V3*%
X89595000Y-147515600D03*
%TD*%
D19*
%TO.P,D5,1*%
%TO.N,VCC*%
X95375000Y-140925000D03*
D20*
%TO.P,D5,2*%
%TO.N,/TERM_PWR*%
X95375000Y-148545000D03*
%TD*%
D21*
%TO.N,GND*%
X95785000Y-123835000D03*
%TO.N,/SD_MISO*%
X93585000Y-105065000D03*
D22*
%TO.N,+3V3*%
X96885000Y-100205000D03*
D21*
%TO.N,/SD_CS*%
X98675000Y-111865000D03*
%TO.N,GND*%
X92265000Y-119255000D03*
D22*
X94745000Y-98785000D03*
D21*
X98265000Y-146045000D03*
%TO.N,/SCSI_DBP*%
X115645000Y-105145000D03*
D22*
%TO.N,/SCSI_DAT6*%
X115655000Y-113675000D03*
D21*
%TO.N,/SCSI_DAT3*%
X114165000Y-108145000D03*
%TO.N,/SCSI_DAT0*%
X92875000Y-136675000D03*
%TO.N,/SCSI_DAT7*%
X97450000Y-114500000D03*
D22*
%TO.N,/SCSI_DAT1*%
X110045000Y-131235000D03*
D21*
X98065000Y-141765000D03*
%TO.N,/SCSI_DBP*%
X123615000Y-103995000D03*
D23*
%TO.N,*%
X73089000Y-149955000D03*
X139714000Y-149955000D03*
X139714000Y-96139000D03*
X73089000Y-96139000D03*
%TD*%
D24*
%TO.N,/SD_MISO*%
X99785000Y-111055000D02*
X100165000Y-111435000D01*
X100165000Y-111435000D02*
X100165000Y-118405000D01*
X100165000Y-118405000D02*
X103824900Y-122064900D01*
D25*
X104834900Y-122064900D02*
X104835000Y-122065000D01*
D24*
X99775000Y-111055000D02*
X99785000Y-111055000D01*
X93585000Y-105065000D02*
X93785000Y-105065000D01*
D25*
X104835000Y-122064800D02*
X104834900Y-122064900D01*
D24*
X103824900Y-122064900D02*
X104834900Y-122064900D01*
D25*
%TO.N,GND*%
X117335000Y-117295000D02*
X117335000Y-116955000D01*
D24*
%TO.N,/SD_MISO*%
X93785000Y-105065000D02*
X99775000Y-111055000D01*
%TO.N,/SCSI_IO*%
X114385000Y-145445000D02*
X112125000Y-147705000D01*
D25*
%TO.N,+3V3*%
X104835000Y-104285000D02*
X104834800Y-104285000D01*
D24*
%TO.N,/SCSI_REQ*%
X108315000Y-145165000D02*
X112125000Y-145165000D01*
%TO.N,+3V3*%
X97835000Y-100205000D02*
X102135000Y-104505000D01*
%TO.N,/SD_CS*%
X98675000Y-111865000D02*
X98675000Y-112035000D01*
D25*
X104834900Y-127144900D02*
X104835000Y-127145000D01*
D24*
X99095000Y-121405000D02*
X104834900Y-127144900D01*
%TO.N,+3V3*%
X102135000Y-104505000D02*
X104614800Y-104505000D01*
D25*
X104834800Y-104285000D02*
X104835000Y-104284800D01*
D24*
X96885000Y-100205000D02*
X97835000Y-100205000D01*
%TO.N,/SD_CS*%
X98675000Y-112035000D02*
X99095000Y-112455000D01*
%TO.N,+3V3*%
X104614800Y-104505000D02*
X104834800Y-104285000D01*
D25*
%TO.N,/SD_CS*%
X104835000Y-127144800D02*
X104834900Y-127144900D01*
D24*
X99095000Y-112455000D02*
X99095000Y-121405000D01*
%TO.N,/SCSI_IO*%
X117335000Y-133915000D02*
X114385000Y-136865000D01*
X108315000Y-147705000D02*
X112125000Y-147705000D01*
X114385000Y-136865000D02*
X114385000Y-145445000D01*
%TO.N,/SCSI_CD*%
X108315000Y-142625000D02*
X112125000Y-142625000D01*
%TO.N,/SCSI_SEL*%
X108315000Y-140085000D02*
X112125000Y-140085000D01*
%TO.N,/SCSI_MSG*%
X112125000Y-137040000D02*
X112125000Y-137263046D01*
X117335000Y-136685000D02*
X117335000Y-135965000D01*
D26*
X118835000Y-133335000D02*
X118025000Y-132525000D01*
X118835000Y-134465000D02*
X118835000Y-133335000D01*
D24*
%TO.N,/SCSI_DBP*%
X115225000Y-109415000D02*
X114685000Y-109415000D01*
X124055000Y-118701370D02*
X121306370Y-121450000D01*
X108315000Y-110875000D02*
X112125000Y-110875000D01*
D25*
%TO.N,/SCSI_ATN*%
X119915000Y-129500000D02*
X120175000Y-129760000D01*
D24*
%TO.N,/SCSI_DBP*%
X121306370Y-121450000D02*
X120175000Y-121450000D01*
X115645000Y-109405000D02*
X115235000Y-109405000D01*
D26*
%TO.N,/SCSI_MSG*%
X117335000Y-135965000D02*
X118835000Y-134465000D01*
D24*
%TO.N,/SCSI_DBP*%
X115645000Y-105145000D02*
X115645000Y-109405000D01*
D26*
%TO.N,/SCSI_MSG*%
X118025000Y-132525000D02*
X116640000Y-132525000D01*
D24*
X116640000Y-132525000D02*
X112125000Y-137040000D01*
%TO.N,/SCSI_ATN*%
X108315000Y-127385000D02*
X112125000Y-127385000D01*
D25*
%TO.N,/SCSI_MSG*%
X112125000Y-137263046D02*
X112125000Y-137545000D01*
D24*
X108315000Y-137545000D02*
X112125000Y-137545000D01*
%TO.N,/SCSI_DBP*%
X114685000Y-109415000D02*
X113225000Y-110875000D01*
%TO.N,/SCSI_BSY*%
X108315000Y-129925000D02*
X112125000Y-129925000D01*
%TO.N,/SCSI_ATN*%
X112125000Y-127385000D02*
X114485000Y-129745000D01*
D26*
X114485000Y-129745000D02*
X119670000Y-129745000D01*
D24*
X119670000Y-129745000D02*
X119915000Y-129500000D01*
%TO.N,/SCSI_ACK*%
X108315000Y-132465000D02*
X112125000Y-132465000D01*
%TO.N,/SCSI_RST*%
X108315000Y-135005000D02*
X112125000Y-135005000D01*
%TO.N,/SCSI_DAT5*%
X102135000Y-113795000D02*
X102185000Y-113845000D01*
D25*
X89595200Y-101745000D02*
X89595000Y-101745000D01*
D24*
X108315000Y-115955000D02*
X112125000Y-115955000D01*
D26*
%TO.N,/SCSI_DAT7*%
X120105000Y-108945000D02*
X119405000Y-108945000D01*
D24*
%TO.N,/SCSI_DAT5*%
X103795000Y-115515000D02*
X107875000Y-115515000D01*
X94274800Y-101744800D02*
X102135000Y-109605000D01*
%TO.N,/SCSI_DAT7*%
X118765000Y-117875000D02*
X118765000Y-118385000D01*
%TO.N,/SCSI_DBP*%
X115235000Y-109405000D02*
X115225000Y-109415000D01*
%TO.N,/SCSI_DAT7*%
X97450000Y-114500000D02*
X89774800Y-106824800D01*
D26*
X121055000Y-108955000D02*
X121035000Y-108935000D01*
D25*
X118765000Y-117875000D02*
X118755000Y-117865000D01*
D24*
X114475000Y-118685000D02*
X112125000Y-121035000D01*
X118765000Y-118385000D02*
X118465000Y-118685000D01*
%TO.N,/SCSI_DAT6*%
X101145000Y-110415000D02*
X94135000Y-103405000D01*
D25*
X94085000Y-103405000D02*
X94035000Y-103355000D01*
D26*
%TO.N,/SCSI_DAT7*%
X121555000Y-113465000D02*
X121555000Y-109465000D01*
D24*
X119525000Y-114535000D02*
X120915000Y-114535000D01*
D26*
X120115000Y-108935000D02*
X120105000Y-108945000D01*
D24*
%TO.N,/SCSI_DAT6*%
X94085000Y-103405000D02*
X90474800Y-103405000D01*
X90474800Y-103405000D02*
X89595000Y-104284800D01*
%TO.N,/SCSI_DBP*%
X113225000Y-110875000D02*
X112125000Y-110875000D01*
%TO.N,/SCSI_DAT7*%
X89774800Y-106824800D02*
X89595000Y-106824800D01*
%TO.N,/SCSI_DAT6*%
X115675000Y-114945000D02*
X112125000Y-118495000D01*
X103655000Y-118235000D02*
X101145000Y-115725000D01*
%TO.N,/SCSI_DAT7*%
X108315000Y-121035000D02*
X112125000Y-121035000D01*
X118755000Y-115305000D02*
X119525000Y-114535000D01*
%TO.N,/SCSI_DAT5*%
X115925000Y-111755000D02*
X117335000Y-111755000D01*
%TO.N,/SCSI_DBP*%
X123615000Y-103995000D02*
X124055000Y-104435000D01*
D26*
%TO.N,/SCSI_DAT7*%
X121555000Y-113895000D02*
X121555000Y-113465000D01*
D24*
X120915000Y-114535000D02*
X120985000Y-114465000D01*
D26*
X121035000Y-108935000D02*
X120115000Y-108935000D01*
X119405000Y-108945000D02*
X117335000Y-106875000D01*
D24*
X117335000Y-106875000D02*
X117335000Y-106215000D01*
%TO.N,/SCSI_DAT6*%
X115675000Y-113695000D02*
X115675000Y-114945000D01*
X94135000Y-103405000D02*
X94085000Y-103405000D01*
%TO.N,/SCSI_DAT7*%
X118755000Y-117865000D02*
X118755000Y-115305000D01*
D25*
%TO.N,/SCSI_DAT6*%
X103980000Y-118235000D02*
X103655000Y-118235000D01*
D26*
%TO.N,/SCSI_DAT7*%
X120985000Y-114465000D02*
X121555000Y-113895000D01*
D24*
%TO.N,/SCSI_DAT6*%
X101145000Y-115725000D02*
X101145000Y-110415000D01*
D25*
X108055000Y-118235000D02*
X103980000Y-118235000D01*
%TO.N,/SCSI_DAT7*%
X121055000Y-108965000D02*
X121055000Y-108955000D01*
D26*
X121555000Y-109465000D02*
X121055000Y-108965000D01*
D24*
%TO.N,/SCSI_DAT6*%
X115655000Y-113675000D02*
X115675000Y-113695000D01*
%TO.N,/SCSI_DBP*%
X124055000Y-104435000D02*
X124055000Y-118701370D01*
D25*
%TO.N,/SCSI_DAT6*%
X108315000Y-118495000D02*
X108055000Y-118235000D01*
D24*
X108315000Y-118495000D02*
X112125000Y-118495000D01*
D25*
%TO.N,/SCSI_DBP*%
X120430000Y-121705000D02*
X120175000Y-121450000D01*
D24*
%TO.N,/SCSI_DAT7*%
X118465000Y-118685000D02*
X114475000Y-118685000D01*
%TO.N,/SCSI_DAT4*%
X90305200Y-99915000D02*
X94245000Y-99915000D01*
X89595000Y-99204800D02*
X90305200Y-99915000D01*
%TO.N,/SCSI_DAT5*%
X107875000Y-115515000D02*
X108315000Y-115955000D01*
%TO.N,/SCSI_DAT4*%
X103045000Y-108715000D02*
X103045000Y-112625000D01*
D25*
X108225000Y-113505000D02*
X108315000Y-113415000D01*
D26*
X117945000Y-110395000D02*
X120175000Y-112625000D01*
D24*
%TO.N,/SCSI_DAT5*%
X102185000Y-113905000D02*
X103795000Y-115515000D01*
D26*
%TO.N,/SCSI_DAT4*%
X115145000Y-110395000D02*
X117945000Y-110395000D01*
D24*
X112125000Y-113415000D02*
X115145000Y-110395000D01*
X111560300Y-113415000D02*
X108315000Y-113415000D01*
%TO.N,/SCSI_DAT5*%
X102135000Y-109605000D02*
X102135000Y-113795000D01*
%TO.N,/SCSI_DAT4*%
X120175000Y-112625000D02*
X120175000Y-113140000D01*
D25*
%TO.N,/SCSI_DAT5*%
X89595200Y-101745000D02*
X89595000Y-101744800D01*
D24*
X89595000Y-101744800D02*
X94274800Y-101744800D01*
X102185000Y-113845000D02*
X102185000Y-113905000D01*
%TO.N,/SCSI_DAT4*%
X103805000Y-113385000D02*
X108105000Y-113385000D01*
X94245000Y-99915000D02*
X103045000Y-108715000D01*
D26*
%TO.N,/SCSI_DAT5*%
X112125000Y-115555000D02*
X115925000Y-111755000D01*
D24*
%TO.N,/SCSI_DAT4*%
X108105000Y-113385000D02*
X108225000Y-113505000D01*
%TO.N,/SCSI_DAT5*%
X112125000Y-115955000D02*
X112125000Y-115555000D01*
D25*
%TO.N,/SCSI_DAT3*%
X104835000Y-109365000D02*
X104835000Y-109364800D01*
D24*
%TO.N,/SCSI_DAT1*%
X106185200Y-131924800D02*
X106896000Y-131214000D01*
X98065000Y-139265000D02*
X103925000Y-133405000D01*
%TO.N,/SCSI_DAT3*%
X114165000Y-106635000D02*
X113325000Y-105795000D01*
D25*
X104835000Y-109364800D02*
X104835000Y-109275000D01*
D24*
%TO.N,/SCSI_DAT1*%
X118195000Y-103255000D02*
X122295000Y-107355000D01*
X120175000Y-118495000D02*
X120175000Y-118680000D01*
X108315000Y-103255000D02*
X112125000Y-103255000D01*
%TO.N,/SCSI_DAT2*%
X104835000Y-111815000D02*
X108315000Y-108335000D01*
%TO.N,/SCSI_DAT4*%
X103045000Y-112625000D02*
X103805000Y-113385000D01*
%TO.N,/SCSI_DAT1*%
X103925000Y-133405000D02*
X105755400Y-133405000D01*
X110024000Y-131214000D02*
X110045000Y-131235000D01*
%TO.N,/SCSI_DAT0*%
X106590700Y-123699300D02*
X106590700Y-124955000D01*
%TO.N,/SCSI_DAT2*%
X108315000Y-108335000D02*
X112125000Y-108335000D01*
D25*
%TO.N,/SCSI_DAT0*%
X106590700Y-127719300D02*
X105895200Y-128414800D01*
%TO.N,/SCSI_DAT2*%
X104835000Y-111905000D02*
X104835000Y-111904800D01*
D24*
%TO.N,/SCSI_DAT1*%
X122295000Y-107355000D02*
X122295000Y-116375000D01*
%TO.N,/SCSI_DAT0*%
X113595000Y-102185000D02*
X119345000Y-102185000D01*
X120975000Y-120065000D02*
X117709300Y-120065000D01*
%TO.N,/SCSI_DAT3*%
X114165000Y-108145000D02*
X114165000Y-106635000D01*
%TO.N,/SCSI_DAT0*%
X93165000Y-136585000D02*
X92875000Y-136295000D01*
D25*
%TO.N,/SCSI_DAT1*%
X106185200Y-132835000D02*
X106185200Y-132975200D01*
D24*
X98065000Y-141765000D02*
X98065000Y-139265000D01*
X122295000Y-116375000D02*
X120175000Y-118495000D01*
D26*
X106896000Y-131214000D02*
X110024000Y-131214000D01*
D24*
%TO.N,/SCSI_DAT3*%
X113325000Y-105795000D02*
X112125000Y-105795000D01*
X104835000Y-109275000D02*
X108315000Y-105795000D01*
X108315000Y-105795000D02*
X112125000Y-105795000D01*
D25*
%TO.N,/SCSI_DAT1*%
X118157259Y-103255000D02*
X118195000Y-103255000D01*
D24*
X112125000Y-103255000D02*
X118157259Y-103255000D01*
D25*
%TO.N,/SCSI_DAT2*%
X104835000Y-111904800D02*
X104835000Y-111815000D01*
D24*
%TO.N,/SCSI_DAT1*%
X105755400Y-133405000D02*
X106185200Y-132975200D01*
%TO.N,/SCSI_DAT0*%
X112125000Y-100715000D02*
X113595000Y-102185000D01*
X108315000Y-100715000D02*
X112125000Y-100715000D01*
%TO.N,/SCSI_DAT1*%
X106185200Y-132835000D02*
X106185200Y-131924800D01*
%TO.N,/SCSI_DAT0*%
X123125000Y-105965000D02*
X123125000Y-117915000D01*
D25*
X106590700Y-124955000D02*
X106590700Y-127719300D01*
D24*
X119345000Y-102185000D02*
X123125000Y-105965000D01*
D25*
X117709300Y-120065000D02*
X117335000Y-120065000D01*
D24*
X95065000Y-136585000D02*
X93165000Y-136585000D01*
D25*
%TO.N,VCC*%
X107949700Y-125210300D02*
X107949700Y-125700300D01*
D24*
%TO.N,/SCSI_DAT0*%
X105735000Y-128575000D02*
X103075000Y-128575000D01*
X107645000Y-122645000D02*
X106590700Y-123699300D01*
X123125000Y-117915000D02*
X120975000Y-120065000D01*
X108396200Y-122645000D02*
X107645000Y-122645000D01*
%TO.N,VCC*%
X108315000Y-124845000D02*
X108155000Y-125005000D01*
%TO.N,/SCSI_DAT0*%
X92875000Y-136295000D02*
X92875000Y-136675000D01*
X117709300Y-120065000D02*
X115129300Y-122645000D01*
X103075000Y-128575000D02*
X95065000Y-136585000D01*
X115129300Y-122645000D02*
X108396200Y-122645000D01*
D25*
%TO.N,VCC*%
X107949700Y-125700300D02*
X107155000Y-126495000D01*
X108315000Y-124845000D02*
X107949700Y-125210300D01*
D24*
X106845000Y-129545000D02*
X105535000Y-130855000D01*
D25*
X106845000Y-129545000D02*
X106845000Y-128993000D01*
D24*
X103955000Y-130855000D02*
X96575000Y-138235000D01*
D25*
X106845000Y-128993000D02*
X107155000Y-128683000D01*
D24*
X95375000Y-139405000D02*
X95375000Y-140925000D01*
X96575000Y-138235000D02*
X96545000Y-138235000D01*
X96545000Y-138235000D02*
X95375000Y-139405000D01*
X105535000Y-130855000D02*
X103955000Y-130855000D01*
D25*
X107155000Y-128683000D02*
X107155000Y-126495000D01*
%TD*%
%TA.AperFunction,Conductor*%
%TO.N,GND*%
G36*
X91366160Y-109509107D02*
G01*
X91417211Y-109539892D01*
X96205181Y-114327862D01*
X96238666Y-114389185D01*
X96241500Y-114415543D01*
X96241500Y-114595116D01*
X96271256Y-114782991D01*
X96330040Y-114963907D01*
X96369737Y-115041815D01*
X96416398Y-115133392D01*
X96528208Y-115287285D01*
X96662715Y-115421792D01*
X96816608Y-115533602D01*
X96896683Y-115574402D01*
X96986092Y-115619959D01*
X96986094Y-115619959D01*
X96986097Y-115619961D01*
X97074199Y-115648587D01*
X97167008Y-115678743D01*
X97354884Y-115708500D01*
X97354889Y-115708500D01*
X97545116Y-115708500D01*
X97732991Y-115678743D01*
X97913903Y-115619961D01*
X98083392Y-115533602D01*
X98139615Y-115492753D01*
X98205419Y-115469273D01*
X98273473Y-115485098D01*
X98322169Y-115535203D01*
X98336500Y-115593071D01*
X98336500Y-121479709D01*
X98365647Y-121626239D01*
X98365649Y-121626247D01*
X98419563Y-121756408D01*
X98422826Y-121764284D01*
X98456052Y-121814011D01*
X98505835Y-121888517D01*
X98505836Y-121888518D01*
X103231957Y-126614638D01*
X103265442Y-126675961D01*
X103262207Y-126740636D01*
X103235285Y-126823495D01*
X103201500Y-127036807D01*
X103201500Y-127252792D01*
X103233673Y-127455925D01*
X103235285Y-127466101D01*
X103243050Y-127490000D01*
X103245672Y-127498069D01*
X103247666Y-127567910D01*
X103211584Y-127627742D01*
X103151932Y-127658002D01*
X103013959Y-127685447D01*
X103013949Y-127685450D01*
X102875919Y-127742623D01*
X102751682Y-127825635D01*
X102751681Y-127825636D01*
X94787138Y-135790181D01*
X94725815Y-135823666D01*
X94699457Y-135826500D01*
X93786939Y-135826500D01*
X93719900Y-135806815D01*
X93699258Y-135790181D01*
X93662287Y-135753210D01*
X93662285Y-135753208D01*
X93508392Y-135641398D01*
X93464104Y-135618832D01*
X93338907Y-135555040D01*
X93157991Y-135496256D01*
X92970116Y-135466500D01*
X92970111Y-135466500D01*
X92779889Y-135466500D01*
X92779884Y-135466500D01*
X92592008Y-135496256D01*
X92411092Y-135555040D01*
X92241607Y-135641398D01*
X92173608Y-135690803D01*
X92087715Y-135753208D01*
X92087713Y-135753210D01*
X92087712Y-135753210D01*
X91953210Y-135887712D01*
X91953210Y-135887713D01*
X91953208Y-135887715D01*
X91919230Y-135934482D01*
X91841398Y-136041607D01*
X91755040Y-136211092D01*
X91696256Y-136392008D01*
X91666500Y-136579883D01*
X91666500Y-136770116D01*
X91696256Y-136957991D01*
X91755040Y-137138907D01*
X91805833Y-137238592D01*
X91841398Y-137308392D01*
X91953208Y-137462285D01*
X92087715Y-137596792D01*
X92241608Y-137708602D01*
X92286705Y-137731580D01*
X92411092Y-137794959D01*
X92411094Y-137794959D01*
X92411097Y-137794961D01*
X92481899Y-137817966D01*
X92592008Y-137853743D01*
X92779884Y-137883500D01*
X92779889Y-137883500D01*
X92970116Y-137883500D01*
X93157991Y-137853743D01*
X93184394Y-137845164D01*
X93338903Y-137794961D01*
X93508392Y-137708602D01*
X93662285Y-137596792D01*
X93796792Y-137462285D01*
X93845958Y-137394613D01*
X93901289Y-137351949D01*
X93946276Y-137343500D01*
X95139708Y-137343500D01*
X95210349Y-137329448D01*
X95245671Y-137322422D01*
X95286247Y-137314351D01*
X95424284Y-137257174D01*
X95548515Y-137174166D01*
X102992281Y-129730398D01*
X103053602Y-129696915D01*
X103123294Y-129701899D01*
X103179227Y-129743771D01*
X103202433Y-129798683D01*
X103235284Y-130006101D01*
X103266081Y-130100880D01*
X103268076Y-130170721D01*
X103231996Y-130230554D01*
X103195603Y-130253760D01*
X103125918Y-130282624D01*
X103001682Y-130365635D01*
X95750256Y-137617061D01*
X95746365Y-137620787D01*
X95739360Y-137627207D01*
X95711484Y-137645835D01*
X95628367Y-137728950D01*
X95626363Y-137730788D01*
X95624749Y-137731580D01*
X95611469Y-137742480D01*
X95591486Y-137755833D01*
X95591481Y-137755837D01*
X94785836Y-138561481D01*
X94785835Y-138561482D01*
X94702828Y-138685712D01*
X94702822Y-138685723D01*
X94646678Y-138821270D01*
X94646672Y-138821285D01*
X94645649Y-138823753D01*
X94616500Y-138970291D01*
X94616500Y-139392500D01*
X94596815Y-139459539D01*
X94544011Y-139505294D01*
X94492500Y-139516500D01*
X94426345Y-139516500D01*
X94365797Y-139523011D01*
X94365795Y-139523011D01*
X94228795Y-139574111D01*
X94111739Y-139661739D01*
X94024111Y-139778795D01*
X93973011Y-139915795D01*
X93973011Y-139915797D01*
X93966500Y-139976345D01*
X93966500Y-141873654D01*
X93973011Y-141934202D01*
X93973011Y-141934204D01*
X94015453Y-142047991D01*
X94024111Y-142071204D01*
X94111739Y-142188261D01*
X94228796Y-142275889D01*
X94365799Y-142326989D01*
X94393050Y-142329918D01*
X94426345Y-142333499D01*
X94426362Y-142333500D01*
X96323638Y-142333500D01*
X96323654Y-142333499D01*
X96350692Y-142330591D01*
X96384201Y-142326989D01*
X96521204Y-142275889D01*
X96638261Y-142188261D01*
X96699675Y-142106220D01*
X96755608Y-142064351D01*
X96825299Y-142059367D01*
X96886622Y-142092852D01*
X96916872Y-142142214D01*
X96945040Y-142228907D01*
X97031398Y-142398392D01*
X97143208Y-142552285D01*
X97277715Y-142686792D01*
X97431608Y-142798602D01*
X97511683Y-142839402D01*
X97601092Y-142884959D01*
X97601094Y-142884959D01*
X97601097Y-142884961D01*
X97677793Y-142909881D01*
X97782008Y-142943743D01*
X97969884Y-142973500D01*
X97969889Y-142973500D01*
X98160116Y-142973500D01*
X98347991Y-142943743D01*
X98385954Y-142931408D01*
X98528903Y-142884961D01*
X98698392Y-142798602D01*
X98852285Y-142686792D01*
X98986792Y-142552285D01*
X99098602Y-142398392D01*
X99184961Y-142228903D01*
X99243743Y-142047991D01*
X99273500Y-141860116D01*
X99273500Y-141669883D01*
X99243743Y-141482008D01*
X99202475Y-141355000D01*
X99184961Y-141301097D01*
X99184959Y-141301094D01*
X99184959Y-141301092D01*
X99098601Y-141131607D01*
X99086390Y-141114800D01*
X98986792Y-140977715D01*
X98859819Y-140850742D01*
X98826334Y-140789419D01*
X98823500Y-140763061D01*
X98823500Y-139586242D01*
X98843185Y-139519203D01*
X98859814Y-139498566D01*
X103101972Y-135256407D01*
X103163293Y-135222924D01*
X103232985Y-135227908D01*
X103288918Y-135269780D01*
X103300136Y-135287795D01*
X103302023Y-135291499D01*
X103302025Y-135291504D01*
X103400075Y-135483937D01*
X103527021Y-135658663D01*
X103679737Y-135811379D01*
X103792351Y-135893198D01*
X103849173Y-135934482D01*
X103891838Y-135989812D01*
X103897817Y-136059426D01*
X103865211Y-136121221D01*
X103849173Y-136135118D01*
X103783676Y-136182705D01*
X103679737Y-136258221D01*
X103679735Y-136258223D01*
X103679734Y-136258223D01*
X103527023Y-136410934D01*
X103527023Y-136410935D01*
X103527021Y-136410937D01*
X103505120Y-136441081D01*
X103400075Y-136585662D01*
X103302026Y-136778091D01*
X103235284Y-136983498D01*
X103201500Y-137196807D01*
X103201500Y-137412792D01*
X103235284Y-137626101D01*
X103302026Y-137831508D01*
X103384566Y-137993500D01*
X103400075Y-138023937D01*
X103527021Y-138198663D01*
X103679737Y-138351379D01*
X103758765Y-138408796D01*
X103849173Y-138474482D01*
X103891838Y-138529812D01*
X103897817Y-138599426D01*
X103865211Y-138661221D01*
X103849173Y-138675118D01*
X103776180Y-138728150D01*
X103679737Y-138798221D01*
X103679735Y-138798223D01*
X103679734Y-138798223D01*
X103527023Y-138950934D01*
X103527023Y-138950935D01*
X103527021Y-138950937D01*
X103501793Y-138985661D01*
X103400075Y-139125662D01*
X103302026Y-139318091D01*
X103235284Y-139523498D01*
X103201500Y-139736807D01*
X103201500Y-139952792D01*
X103235284Y-140166101D01*
X103302026Y-140371508D01*
X103400075Y-140563937D01*
X103527021Y-140738663D01*
X103679737Y-140891379D01*
X103792351Y-140973198D01*
X103849173Y-141014482D01*
X103891838Y-141069812D01*
X103897817Y-141139426D01*
X103865211Y-141201221D01*
X103849173Y-141215118D01*
X103776180Y-141268150D01*
X103679737Y-141338221D01*
X103679735Y-141338223D01*
X103679734Y-141338223D01*
X103527023Y-141490934D01*
X103527023Y-141490935D01*
X103527021Y-141490937D01*
X103479116Y-141556873D01*
X103400075Y-141665662D01*
X103302026Y-141858091D01*
X103235284Y-142063498D01*
X103201500Y-142276807D01*
X103201500Y-142492792D01*
X103235284Y-142706101D01*
X103302026Y-142911508D01*
X103400075Y-143103937D01*
X103527021Y-143278663D01*
X103679737Y-143431379D01*
X103792351Y-143513198D01*
X103849173Y-143554482D01*
X103891838Y-143609812D01*
X103897817Y-143679426D01*
X103865211Y-143741221D01*
X103849173Y-143755118D01*
X103776180Y-143808150D01*
X103679737Y-143878221D01*
X103679735Y-143878223D01*
X103679734Y-143878223D01*
X103527023Y-144030934D01*
X103527023Y-144030935D01*
X103527021Y-144030937D01*
X103497433Y-144071662D01*
X103400075Y-144205662D01*
X103302026Y-144398091D01*
X103235284Y-144603498D01*
X103201500Y-144816807D01*
X103201500Y-145032792D01*
X103235284Y-145246101D01*
X103302026Y-145451508D01*
X103375311Y-145595336D01*
X103400075Y-145643937D01*
X103527021Y-145818663D01*
X103527023Y-145818665D01*
X103614963Y-145906605D01*
X103648448Y-145967928D01*
X103643464Y-146037620D01*
X103601592Y-146093553D01*
X103570617Y-146110467D01*
X103463795Y-146150311D01*
X103346739Y-146237939D01*
X103259111Y-146354995D01*
X103208011Y-146491995D01*
X103208011Y-146491997D01*
X103201500Y-146552545D01*
X103201500Y-148377054D01*
X103208011Y-148437602D01*
X103208011Y-148437604D01*
X103254477Y-148562179D01*
X103259111Y-148574604D01*
X103346739Y-148691661D01*
X103463796Y-148779289D01*
X103600799Y-148830389D01*
X103628050Y-148833318D01*
X103661345Y-148836899D01*
X103661362Y-148836900D01*
X106008638Y-148836900D01*
X106008654Y-148836899D01*
X106035692Y-148833991D01*
X106069201Y-148830389D01*
X106206204Y-148779289D01*
X106323261Y-148691661D01*
X106410889Y-148574604D01*
X106461989Y-148437601D01*
X106467020Y-148390806D01*
X106468499Y-148377054D01*
X106468500Y-148377037D01*
X106468500Y-146552562D01*
X106468499Y-146552545D01*
X106462028Y-146492366D01*
X106461989Y-146491999D01*
X106453419Y-146469023D01*
X106422080Y-146385000D01*
X106410889Y-146354996D01*
X106323261Y-146237939D01*
X106206204Y-146150311D01*
X106099382Y-146110467D01*
X106043449Y-146068595D01*
X106019033Y-146003130D01*
X106033886Y-145934858D01*
X106055030Y-145906611D01*
X106142979Y-145818663D01*
X106269925Y-145643937D01*
X106367975Y-145451504D01*
X106434715Y-145246101D01*
X106446008Y-145174800D01*
X106468500Y-145032792D01*
X106468500Y-144816807D01*
X106434715Y-144603498D01*
X106403748Y-144508195D01*
X106367975Y-144398096D01*
X106367973Y-144398093D01*
X106367973Y-144398091D01*
X106269924Y-144205662D01*
X106241785Y-144166932D01*
X106142979Y-144030937D01*
X105990263Y-143878221D01*
X105820825Y-143755117D01*
X105778161Y-143699788D01*
X105772182Y-143630175D01*
X105804788Y-143568380D01*
X105820826Y-143554482D01*
X105990263Y-143431379D01*
X106142979Y-143278663D01*
X106269925Y-143103937D01*
X106367975Y-142911504D01*
X106434715Y-142706101D01*
X106437774Y-142686789D01*
X106468500Y-142492792D01*
X106468500Y-142276807D01*
X106434715Y-142063498D01*
X106403748Y-141968195D01*
X106367975Y-141858096D01*
X106367973Y-141858093D01*
X106367973Y-141858091D01*
X106269924Y-141665662D01*
X106241785Y-141626932D01*
X106142979Y-141490937D01*
X105990263Y-141338221D01*
X105820825Y-141215117D01*
X105778161Y-141159788D01*
X105772182Y-141090175D01*
X105804788Y-141028380D01*
X105820826Y-141014482D01*
X105990263Y-140891379D01*
X106142979Y-140738663D01*
X106269925Y-140563937D01*
X106367975Y-140371504D01*
X106434715Y-140166101D01*
X106468500Y-139952792D01*
X106468500Y-139736807D01*
X106434715Y-139523498D01*
X106403748Y-139428195D01*
X106367975Y-139318096D01*
X106367973Y-139318093D01*
X106367973Y-139318091D01*
X106280284Y-139145994D01*
X106269925Y-139125663D01*
X106142979Y-138950937D01*
X105990263Y-138798221D01*
X105820825Y-138675117D01*
X105778161Y-138619788D01*
X105772182Y-138550175D01*
X105804788Y-138488380D01*
X105820826Y-138474482D01*
X105826859Y-138470099D01*
X105990263Y-138351379D01*
X106142979Y-138198663D01*
X106269925Y-138023937D01*
X106367975Y-137831504D01*
X106434715Y-137626101D01*
X106439357Y-137596792D01*
X106468500Y-137412792D01*
X106468500Y-137196807D01*
X106434715Y-136983498D01*
X106396291Y-136865244D01*
X106367975Y-136778096D01*
X106367973Y-136778093D01*
X106367973Y-136778091D01*
X106281561Y-136608500D01*
X106269925Y-136585663D01*
X106142979Y-136410937D01*
X105990263Y-136258221D01*
X105820825Y-136135117D01*
X105778161Y-136079788D01*
X105772182Y-136010175D01*
X105804788Y-135948380D01*
X105820826Y-135934482D01*
X105853248Y-135910926D01*
X105990263Y-135811379D01*
X106142979Y-135658663D01*
X106269925Y-135483937D01*
X106367975Y-135291504D01*
X106434715Y-135086101D01*
X106449367Y-134993591D01*
X106468500Y-134872792D01*
X106468500Y-134656807D01*
X106434715Y-134443498D01*
X106403966Y-134348865D01*
X106401971Y-134279024D01*
X106438051Y-134219191D01*
X106474445Y-134195985D01*
X106475894Y-134195385D01*
X106544484Y-134166974D01*
X106668715Y-134083966D01*
X107264166Y-133488515D01*
X107269884Y-133479958D01*
X107323495Y-133435152D01*
X107392820Y-133426443D01*
X107455848Y-133456597D01*
X107460668Y-133461166D01*
X107462571Y-133463069D01*
X107462576Y-133463073D01*
X107629195Y-133584128D01*
X107708459Y-133624516D01*
X107759254Y-133672490D01*
X107776049Y-133740311D01*
X107753511Y-133806446D01*
X107708459Y-133845484D01*
X107629195Y-133885871D01*
X107462576Y-134006926D01*
X107462571Y-134006930D01*
X107316930Y-134152571D01*
X107316926Y-134152576D01*
X107195873Y-134319193D01*
X107102367Y-134502705D01*
X107038719Y-134698591D01*
X107006500Y-134902019D01*
X107006500Y-135107980D01*
X107038719Y-135311408D01*
X107102367Y-135507294D01*
X107195873Y-135690806D01*
X107316926Y-135857423D01*
X107316930Y-135857428D01*
X107462571Y-136003069D01*
X107462576Y-136003073D01*
X107629195Y-136124128D01*
X107708459Y-136164516D01*
X107759254Y-136212490D01*
X107776049Y-136280311D01*
X107753511Y-136346446D01*
X107708459Y-136385484D01*
X107629195Y-136425871D01*
X107462576Y-136546926D01*
X107462571Y-136546930D01*
X107316930Y-136692571D01*
X107316926Y-136692576D01*
X107195873Y-136859193D01*
X107102367Y-137042705D01*
X107038719Y-137238591D01*
X107006500Y-137442019D01*
X107006500Y-137647980D01*
X107038719Y-137851408D01*
X107102367Y-138047294D01*
X107195873Y-138230806D01*
X107316926Y-138397423D01*
X107316930Y-138397428D01*
X107462571Y-138543069D01*
X107462576Y-138543073D01*
X107629195Y-138664128D01*
X107708459Y-138704516D01*
X107759254Y-138752490D01*
X107776049Y-138820311D01*
X107753511Y-138886446D01*
X107708459Y-138925484D01*
X107629195Y-138965871D01*
X107462576Y-139086926D01*
X107462571Y-139086930D01*
X107316930Y-139232571D01*
X107316926Y-139232576D01*
X107195873Y-139399193D01*
X107102367Y-139582705D01*
X107038719Y-139778591D01*
X107006500Y-139982019D01*
X107006500Y-140187980D01*
X107038719Y-140391408D01*
X107102367Y-140587294D01*
X107166671Y-140713496D01*
X107192149Y-140763499D01*
X107195873Y-140770806D01*
X107316926Y-140937423D01*
X107316930Y-140937428D01*
X107462571Y-141083069D01*
X107462576Y-141083073D01*
X107629195Y-141204128D01*
X107708459Y-141244516D01*
X107759254Y-141292490D01*
X107776049Y-141360311D01*
X107753511Y-141426446D01*
X107708459Y-141465484D01*
X107629195Y-141505871D01*
X107462576Y-141626926D01*
X107462571Y-141626930D01*
X107316930Y-141772571D01*
X107316926Y-141772576D01*
X107195873Y-141939193D01*
X107102367Y-142122705D01*
X107038719Y-142318591D01*
X107006500Y-142522019D01*
X107006500Y-142727980D01*
X107038719Y-142931408D01*
X107102367Y-143127294D01*
X107195873Y-143310806D01*
X107316926Y-143477423D01*
X107316930Y-143477428D01*
X107462571Y-143623069D01*
X107462576Y-143623073D01*
X107629195Y-143744128D01*
X107708459Y-143784516D01*
X107759254Y-143832490D01*
X107776049Y-143900311D01*
X107753511Y-143966446D01*
X107708459Y-144005484D01*
X107629195Y-144045871D01*
X107462576Y-144166926D01*
X107462571Y-144166930D01*
X107316930Y-144312571D01*
X107316926Y-144312576D01*
X107195873Y-144479193D01*
X107102367Y-144662705D01*
X107038719Y-144858591D01*
X107006500Y-145062019D01*
X107006500Y-145267980D01*
X107038719Y-145471408D01*
X107102367Y-145667294D01*
X107135860Y-145733026D01*
X107193283Y-145845724D01*
X107195873Y-145850806D01*
X107316926Y-146017423D01*
X107316930Y-146017428D01*
X107462571Y-146163069D01*
X107462576Y-146163073D01*
X107629195Y-146284128D01*
X107708459Y-146324516D01*
X107759254Y-146372490D01*
X107776049Y-146440311D01*
X107753511Y-146506446D01*
X107708459Y-146545484D01*
X107629195Y-146585871D01*
X107462576Y-146706926D01*
X107462571Y-146706930D01*
X107316930Y-146852571D01*
X107316926Y-146852576D01*
X107195873Y-147019193D01*
X107102367Y-147202705D01*
X107038719Y-147398591D01*
X107006500Y-147602019D01*
X107006500Y-147807980D01*
X107038719Y-148011408D01*
X107102367Y-148207294D01*
X107160208Y-148320810D01*
X107190004Y-148379289D01*
X107195873Y-148390806D01*
X107316926Y-148557423D01*
X107316930Y-148557428D01*
X107462571Y-148703069D01*
X107462576Y-148703073D01*
X107583706Y-148791078D01*
X107629197Y-148824129D01*
X107728691Y-148874824D01*
X107812705Y-148917632D01*
X107812707Y-148917632D01*
X107812710Y-148917634D01*
X107917707Y-148951749D01*
X108008591Y-148981280D01*
X108110305Y-148997390D01*
X108212019Y-149013500D01*
X108212020Y-149013500D01*
X108417980Y-149013500D01*
X108417981Y-149013500D01*
X108621408Y-148981280D01*
X108817290Y-148917634D01*
X109000803Y-148824129D01*
X109167430Y-148703068D01*
X109313068Y-148557430D01*
X109344175Y-148514615D01*
X109399505Y-148471949D01*
X109444493Y-148463500D01*
X110995507Y-148463500D01*
X111062546Y-148483185D01*
X111095825Y-148514615D01*
X111126929Y-148557426D01*
X111126934Y-148557432D01*
X111272571Y-148703069D01*
X111272576Y-148703073D01*
X111393706Y-148791078D01*
X111439197Y-148824129D01*
X111538691Y-148874824D01*
X111622705Y-148917632D01*
X111622707Y-148917632D01*
X111622710Y-148917634D01*
X111727707Y-148951749D01*
X111818591Y-148981280D01*
X111920305Y-148997390D01*
X112022019Y-149013500D01*
X112022020Y-149013500D01*
X112227980Y-149013500D01*
X112227981Y-149013500D01*
X112431408Y-148981280D01*
X112627290Y-148917634D01*
X112810803Y-148824129D01*
X112977430Y-148703068D01*
X113123068Y-148557430D01*
X113244129Y-148390803D01*
X113333617Y-148215175D01*
X113337632Y-148207294D01*
X113337632Y-148207293D01*
X113337634Y-148207290D01*
X113401280Y-148011408D01*
X113433500Y-147807981D01*
X113433500Y-147602019D01*
X113425220Y-147549743D01*
X113434174Y-147480454D01*
X113460009Y-147442670D01*
X114944981Y-145957700D01*
X115006304Y-145924215D01*
X115075996Y-145929199D01*
X115131929Y-145971071D01*
X115156346Y-146036535D01*
X115155882Y-146059264D01*
X115135000Y-146244596D01*
X115135000Y-146525401D01*
X115166437Y-146804412D01*
X115166439Y-146804424D01*
X115228921Y-147078178D01*
X115228922Y-147078180D01*
X115321662Y-147343217D01*
X115443492Y-147596200D01*
X115592884Y-147833956D01*
X115699187Y-147967257D01*
X116340747Y-147325697D01*
X116414588Y-147427330D01*
X116592670Y-147605412D01*
X116694300Y-147679251D01*
X116052741Y-148320810D01*
X116052741Y-148320811D01*
X116186043Y-148427115D01*
X116423799Y-148576507D01*
X116676782Y-148698337D01*
X116941819Y-148791077D01*
X116941821Y-148791078D01*
X117215575Y-148853560D01*
X117215587Y-148853562D01*
X117494598Y-148884999D01*
X117494600Y-148885000D01*
X117775400Y-148885000D01*
X117775401Y-148884999D01*
X118054412Y-148853562D01*
X118054424Y-148853560D01*
X118328178Y-148791078D01*
X118328180Y-148791077D01*
X118593217Y-148698337D01*
X118846200Y-148576507D01*
X119083956Y-148427116D01*
X119217257Y-148320810D01*
X118575698Y-147679251D01*
X118677330Y-147605412D01*
X118855412Y-147427330D01*
X118929251Y-147325698D01*
X119570810Y-147967257D01*
X119677116Y-147833956D01*
X119826507Y-147596200D01*
X119948337Y-147343217D01*
X120041077Y-147078180D01*
X120041078Y-147078178D01*
X120103560Y-146804424D01*
X120103562Y-146804412D01*
X120134999Y-146525401D01*
X120135000Y-146525399D01*
X120135000Y-146244600D01*
X120134999Y-146244598D01*
X120103562Y-145965587D01*
X120103560Y-145965575D01*
X120041078Y-145691821D01*
X120041077Y-145691819D01*
X119948337Y-145426782D01*
X119826507Y-145173799D01*
X119677115Y-144936043D01*
X119570810Y-144802741D01*
X118929251Y-145444300D01*
X118855412Y-145342670D01*
X118677330Y-145164588D01*
X118575697Y-145090747D01*
X119217257Y-144449187D01*
X119083956Y-144342884D01*
X118846200Y-144193492D01*
X118593217Y-144071662D01*
X118328180Y-143978922D01*
X118328178Y-143978921D01*
X118054424Y-143916439D01*
X118054412Y-143916437D01*
X117775401Y-143885000D01*
X117494598Y-143885000D01*
X117215587Y-143916437D01*
X117215575Y-143916439D01*
X116941821Y-143978921D01*
X116941819Y-143978922D01*
X116676782Y-144071662D01*
X116423799Y-144193492D01*
X116186043Y-144342884D01*
X116052741Y-144449187D01*
X116694301Y-145090747D01*
X116592670Y-145164588D01*
X116414588Y-145342670D01*
X116340747Y-145444301D01*
X115699187Y-144802741D01*
X115592884Y-144936043D01*
X115443492Y-145173799D01*
X115379220Y-145307262D01*
X115332397Y-145359121D01*
X115264970Y-145377434D01*
X115198346Y-145356386D01*
X115153678Y-145302660D01*
X115143500Y-145253460D01*
X115143500Y-137230542D01*
X115163185Y-137163503D01*
X115179815Y-137142865D01*
X115814819Y-136507860D01*
X115876142Y-136474376D01*
X115945834Y-136479360D01*
X116001767Y-136521232D01*
X116026184Y-136586696D01*
X116026500Y-136595542D01*
X116026500Y-136787981D01*
X116029576Y-136807399D01*
X116058719Y-136991408D01*
X116122367Y-137187294D01*
X116184071Y-137308392D01*
X116206264Y-137351949D01*
X116215873Y-137370806D01*
X116336926Y-137537423D01*
X116336930Y-137537428D01*
X116482571Y-137683069D01*
X116482576Y-137683073D01*
X116582728Y-137755837D01*
X116649197Y-137804129D01*
X116832710Y-137897634D01*
X116854056Y-137904569D01*
X116911730Y-137944007D01*
X116938928Y-138008366D01*
X116927013Y-138077212D01*
X116879768Y-138128688D01*
X116815736Y-138146500D01*
X116486345Y-138146500D01*
X116425797Y-138153011D01*
X116425795Y-138153011D01*
X116288795Y-138204111D01*
X116171739Y-138291739D01*
X116084111Y-138408795D01*
X116033011Y-138545795D01*
X116033011Y-138545797D01*
X116026500Y-138606345D01*
X116026500Y-140303654D01*
X116033011Y-140364202D01*
X116033011Y-140364204D01*
X116076634Y-140481158D01*
X116084111Y-140501204D01*
X116171739Y-140618261D01*
X116288796Y-140705889D01*
X116425799Y-140756989D01*
X116453050Y-140759918D01*
X116486345Y-140763499D01*
X116486362Y-140763500D01*
X118183638Y-140763500D01*
X118183654Y-140763499D01*
X118210692Y-140760591D01*
X118244201Y-140756989D01*
X118381204Y-140705889D01*
X118498261Y-140618261D01*
X118585889Y-140501204D01*
X118634265Y-140371504D01*
X118636988Y-140364204D01*
X118636988Y-140364203D01*
X118636989Y-140364201D01*
X118640591Y-140330692D01*
X118643499Y-140303654D01*
X118643500Y-140303637D01*
X118643500Y-138606362D01*
X118643499Y-138606345D01*
X118639591Y-138570000D01*
X118636989Y-138545799D01*
X118635972Y-138543073D01*
X118591393Y-138423553D01*
X118585889Y-138408796D01*
X118498261Y-138291739D01*
X118381204Y-138204111D01*
X118366600Y-138198664D01*
X118244203Y-138153011D01*
X118183654Y-138146500D01*
X118183638Y-138146500D01*
X117854264Y-138146500D01*
X117846009Y-138144076D01*
X117837503Y-138145362D01*
X117812992Y-138134381D01*
X117787225Y-138126815D01*
X117781591Y-138120313D01*
X117773740Y-138116796D01*
X117759056Y-138094307D01*
X117741470Y-138074011D01*
X117740245Y-138065496D01*
X117735542Y-138058292D01*
X117735348Y-138031435D01*
X117731526Y-138004853D01*
X117735100Y-137997026D01*
X117735038Y-137988425D01*
X117749393Y-137965728D01*
X117760551Y-137941297D01*
X117768764Y-137935101D01*
X117772387Y-137929375D01*
X117788598Y-137920142D01*
X117801940Y-137910080D01*
X117808772Y-137906899D01*
X117837290Y-137897634D01*
X118020803Y-137804129D01*
X118187430Y-137683068D01*
X118333068Y-137537430D01*
X118454129Y-137370803D01*
X118547634Y-137187290D01*
X118611280Y-136991408D01*
X118643500Y-136787981D01*
X118643500Y-136582019D01*
X118618638Y-136425047D01*
X118611280Y-136378591D01*
X118572169Y-136258221D01*
X118547634Y-136182710D01*
X118547632Y-136182707D01*
X118547632Y-136182705D01*
X118484817Y-136059426D01*
X118454129Y-135999197D01*
X118454127Y-135999194D01*
X118437808Y-135976732D01*
X118414329Y-135910926D01*
X118430155Y-135842872D01*
X118450442Y-135816171D01*
X118697145Y-135569469D01*
X118758467Y-135535985D01*
X118828159Y-135540969D01*
X118884092Y-135582841D01*
X118902756Y-135618832D01*
X118962367Y-135802294D01*
X119055873Y-135985806D01*
X119176926Y-136152423D01*
X119176930Y-136152428D01*
X119322571Y-136298069D01*
X119322576Y-136298073D01*
X119396819Y-136352013D01*
X119489197Y-136419129D01*
X119672710Y-136512634D01*
X119826448Y-136562586D01*
X119853994Y-136571537D01*
X119911670Y-136610975D01*
X119938868Y-136675333D01*
X119926953Y-136744180D01*
X119879709Y-136795655D01*
X119853995Y-136807399D01*
X119675968Y-136865244D01*
X119493644Y-136958143D01*
X119449077Y-136990523D01*
X119449077Y-136990524D01*
X120045591Y-137587037D01*
X119982007Y-137604075D01*
X119867993Y-137669901D01*
X119774901Y-137762993D01*
X119709075Y-137877007D01*
X119692037Y-137940590D01*
X119095524Y-137344077D01*
X119095523Y-137344077D01*
X119063143Y-137388644D01*
X118970244Y-137570968D01*
X118907009Y-137765582D01*
X118875000Y-137967682D01*
X118875000Y-138172317D01*
X118907009Y-138374417D01*
X118970244Y-138569031D01*
X119063141Y-138751350D01*
X119063147Y-138751359D01*
X119095523Y-138795921D01*
X119095524Y-138795922D01*
X119692037Y-138199409D01*
X119709075Y-138262993D01*
X119774901Y-138377007D01*
X119867993Y-138470099D01*
X119982007Y-138535925D01*
X120045590Y-138552962D01*
X119449076Y-139149474D01*
X119493650Y-139181859D01*
X119675968Y-139274755D01*
X119870582Y-139337990D01*
X120072683Y-139370000D01*
X120277317Y-139370000D01*
X120479417Y-139337990D01*
X120674031Y-139274755D01*
X120856349Y-139181859D01*
X120900921Y-139149474D01*
X120304409Y-138552962D01*
X120367993Y-138535925D01*
X120482007Y-138470099D01*
X120575099Y-138377007D01*
X120640925Y-138262993D01*
X120657962Y-138199409D01*
X121254474Y-138795921D01*
X121286859Y-138751349D01*
X121379755Y-138569031D01*
X121442990Y-138374417D01*
X121475000Y-138172317D01*
X121475000Y-137967682D01*
X121442990Y-137765582D01*
X121379755Y-137570968D01*
X121286859Y-137388650D01*
X121254474Y-137344077D01*
X121254474Y-137344076D01*
X120657962Y-137940589D01*
X120640925Y-137877007D01*
X120575099Y-137762993D01*
X120482007Y-137669901D01*
X120367993Y-137604075D01*
X120304408Y-137587037D01*
X120900922Y-136990524D01*
X120900921Y-136990523D01*
X120856359Y-136958147D01*
X120856350Y-136958141D01*
X120674031Y-136865244D01*
X120496004Y-136807399D01*
X120438329Y-136767961D01*
X120411131Y-136703602D01*
X120423046Y-136634756D01*
X120470290Y-136583280D01*
X120496005Y-136571537D01*
X120677290Y-136512634D01*
X120860803Y-136419129D01*
X121027430Y-136298068D01*
X121173068Y-136152430D01*
X121294129Y-135985803D01*
X121387634Y-135802290D01*
X121451280Y-135606408D01*
X121483500Y-135402981D01*
X121483500Y-135197019D01*
X121469398Y-135107981D01*
X121451280Y-134993591D01*
X121387632Y-134797705D01*
X121353709Y-134731128D01*
X121294129Y-134614197D01*
X121216173Y-134506899D01*
X121173073Y-134447576D01*
X121173069Y-134447571D01*
X121027428Y-134301930D01*
X121027423Y-134301926D01*
X120860806Y-134180873D01*
X120860805Y-134180872D01*
X120860803Y-134180871D01*
X120803496Y-134151671D01*
X120677294Y-134087367D01*
X120496004Y-134028462D01*
X120438329Y-133989024D01*
X120411131Y-133924665D01*
X120423046Y-133855819D01*
X120470290Y-133804343D01*
X120496005Y-133792600D01*
X120674029Y-133734755D01*
X120856349Y-133641859D01*
X120900921Y-133609474D01*
X120304408Y-133012962D01*
X120367993Y-132995925D01*
X120482007Y-132930099D01*
X120575099Y-132837007D01*
X120640925Y-132722993D01*
X120657962Y-132659409D01*
X121254474Y-133255921D01*
X121286859Y-133211349D01*
X121379755Y-133029031D01*
X121442990Y-132834417D01*
X121475000Y-132632317D01*
X121475000Y-132427682D01*
X121442990Y-132225582D01*
X121379755Y-132030968D01*
X121286859Y-131848650D01*
X121254474Y-131804077D01*
X121254474Y-131804076D01*
X120657962Y-132400589D01*
X120640925Y-132337007D01*
X120575099Y-132222993D01*
X120482007Y-132129901D01*
X120367993Y-132064075D01*
X120304408Y-132047037D01*
X120900922Y-131450524D01*
X120900921Y-131450523D01*
X120856359Y-131418147D01*
X120856350Y-131418141D01*
X120674031Y-131325244D01*
X120496004Y-131267399D01*
X120438329Y-131227961D01*
X120411131Y-131163602D01*
X120423046Y-131094756D01*
X120470290Y-131043280D01*
X120496005Y-131031537D01*
X120677290Y-130972634D01*
X120860803Y-130879129D01*
X121027430Y-130758068D01*
X121173068Y-130612430D01*
X121294129Y-130445803D01*
X121387634Y-130262290D01*
X121451280Y-130066408D01*
X121483500Y-129862981D01*
X121483500Y-129657019D01*
X121451280Y-129453591D01*
X121387632Y-129257705D01*
X121315115Y-129115385D01*
X121294129Y-129074197D01*
X121258517Y-129025181D01*
X121173073Y-128907576D01*
X121173069Y-128907571D01*
X121027428Y-128761930D01*
X121027423Y-128761926D01*
X120860806Y-128640873D01*
X120860805Y-128640872D01*
X120860803Y-128640871D01*
X120775946Y-128597634D01*
X120677294Y-128547367D01*
X120496004Y-128488462D01*
X120438329Y-128449024D01*
X120411131Y-128384665D01*
X120423046Y-128315819D01*
X120470290Y-128264343D01*
X120496005Y-128252600D01*
X120674029Y-128194755D01*
X120856349Y-128101859D01*
X120900921Y-128069474D01*
X120304409Y-127472962D01*
X120367993Y-127455925D01*
X120482007Y-127390099D01*
X120575099Y-127297007D01*
X120640925Y-127182993D01*
X120657962Y-127119409D01*
X121254474Y-127715921D01*
X121286859Y-127671349D01*
X121379755Y-127489031D01*
X121442990Y-127294417D01*
X121475000Y-127092317D01*
X121475000Y-126887682D01*
X121442990Y-126685582D01*
X121379755Y-126490968D01*
X121286859Y-126308650D01*
X121254474Y-126264077D01*
X121254474Y-126264076D01*
X120657962Y-126860589D01*
X120640925Y-126797007D01*
X120575099Y-126682993D01*
X120482007Y-126589901D01*
X120367993Y-126524075D01*
X120304408Y-126507037D01*
X120900922Y-125910524D01*
X120900921Y-125910523D01*
X120856359Y-125878147D01*
X120856350Y-125878141D01*
X120674031Y-125785244D01*
X120496004Y-125727399D01*
X120438329Y-125687961D01*
X120411131Y-125623602D01*
X120423046Y-125554756D01*
X120470290Y-125503280D01*
X120496005Y-125491537D01*
X120677290Y-125432634D01*
X120860803Y-125339129D01*
X121027430Y-125218068D01*
X121173068Y-125072430D01*
X121294129Y-124905803D01*
X121387634Y-124722290D01*
X121451280Y-124526408D01*
X121483500Y-124322981D01*
X121483500Y-124117019D01*
X121477334Y-124078091D01*
X121451280Y-123913591D01*
X121387632Y-123717705D01*
X121332092Y-123608703D01*
X121294129Y-123534197D01*
X121225559Y-123439818D01*
X121173073Y-123367576D01*
X121173069Y-123367571D01*
X121027428Y-123221930D01*
X121027423Y-123221926D01*
X120860806Y-123100873D01*
X120860805Y-123100872D01*
X120860803Y-123100871D01*
X120799201Y-123069483D01*
X120677294Y-123007367D01*
X120509757Y-122952931D01*
X120452082Y-122913493D01*
X120424884Y-122849134D01*
X120436799Y-122780288D01*
X120484043Y-122728812D01*
X120509757Y-122717069D01*
X120540923Y-122706942D01*
X120677290Y-122662634D01*
X120860803Y-122569129D01*
X121027430Y-122448068D01*
X121173068Y-122302430D01*
X121204175Y-122259615D01*
X121231299Y-122238698D01*
X121258185Y-122217472D01*
X121259042Y-122217305D01*
X121259505Y-122216949D01*
X121292468Y-122209084D01*
X121298462Y-122208500D01*
X121381075Y-122208500D01*
X121381076Y-122208500D01*
X121454346Y-122193925D01*
X121460396Y-122192721D01*
X121460402Y-122192721D01*
X121493429Y-122186151D01*
X121527617Y-122179351D01*
X121665654Y-122122174D01*
X121789885Y-122039166D01*
X123134569Y-120694482D01*
X124523319Y-119305733D01*
X124584642Y-119272248D01*
X124654334Y-119277232D01*
X124710267Y-119319104D01*
X124734684Y-119384568D01*
X124735000Y-119393414D01*
X124735000Y-149670661D01*
X124715315Y-149737700D01*
X124662511Y-149783455D01*
X124610662Y-149794661D01*
X96492897Y-149718045D01*
X96425912Y-149698177D01*
X96380301Y-149645249D01*
X96370546Y-149576064D01*
X96399744Y-149512587D01*
X96405540Y-149506378D01*
X96449343Y-149462576D01*
X96579657Y-149283215D01*
X96680308Y-149085676D01*
X96748818Y-148874824D01*
X96783500Y-148655851D01*
X96783500Y-148434149D01*
X96748818Y-148215176D01*
X96680308Y-148004324D01*
X96680306Y-148004321D01*
X96680306Y-148004319D01*
X96580266Y-147807981D01*
X96579657Y-147806785D01*
X96449343Y-147627424D01*
X96292576Y-147470657D01*
X96113215Y-147340343D01*
X95915680Y-147239693D01*
X95704824Y-147171182D01*
X95485851Y-147136500D01*
X95264149Y-147136500D01*
X95154662Y-147153841D01*
X95045175Y-147171182D01*
X94834319Y-147239693D01*
X94636784Y-147340343D01*
X94544204Y-147407607D01*
X94457424Y-147470657D01*
X94457422Y-147470659D01*
X94457421Y-147470659D01*
X94300659Y-147627421D01*
X94300659Y-147627422D01*
X94300657Y-147627424D01*
X94244692Y-147704452D01*
X94170343Y-147806784D01*
X94069693Y-148004319D01*
X94001182Y-148215175D01*
X93975543Y-148377054D01*
X93966500Y-148434149D01*
X93966500Y-148655851D01*
X93973979Y-148703069D01*
X94001182Y-148874824D01*
X94069693Y-149085680D01*
X94170343Y-149283215D01*
X94300657Y-149462576D01*
X94300659Y-149462578D01*
X94338335Y-149500254D01*
X94371820Y-149561577D01*
X94366836Y-149631269D01*
X94324964Y-149687202D01*
X94259500Y-149711619D01*
X94250316Y-149711935D01*
X88158823Y-149695337D01*
X88091838Y-149675469D01*
X88046227Y-149622541D01*
X88035161Y-149571179D01*
X88036633Y-148446297D01*
X88056404Y-148379289D01*
X88109268Y-148333603D01*
X88178440Y-148323750D01*
X88241957Y-148352858D01*
X88260948Y-148373577D01*
X88287021Y-148409463D01*
X88439737Y-148562179D01*
X88614463Y-148689125D01*
X88705378Y-148735448D01*
X88806891Y-148787173D01*
X88806893Y-148787173D01*
X88806896Y-148787175D01*
X88916995Y-148822948D01*
X89012298Y-148853915D01*
X89225608Y-148887700D01*
X89225613Y-148887700D01*
X89964392Y-148887700D01*
X90177701Y-148853915D01*
X90230070Y-148836899D01*
X90383104Y-148787175D01*
X90575537Y-148689125D01*
X90750263Y-148562179D01*
X90902979Y-148409463D01*
X91029925Y-148234737D01*
X91127975Y-148042304D01*
X91194715Y-147836901D01*
X91195181Y-147833956D01*
X91228500Y-147623592D01*
X91228500Y-147407607D01*
X91194715Y-147194298D01*
X91137819Y-147019193D01*
X91127975Y-146988896D01*
X91127973Y-146988893D01*
X91127973Y-146988891D01*
X91058516Y-146852576D01*
X91029925Y-146796463D01*
X90902979Y-146621737D01*
X90750263Y-146469021D01*
X90575537Y-146342075D01*
X90575536Y-146342074D01*
X90575534Y-146342073D01*
X90543821Y-146325914D01*
X90493025Y-146277939D01*
X90476231Y-146210118D01*
X90498769Y-146143983D01*
X90543824Y-146104944D01*
X90571082Y-146091055D01*
X90744727Y-145964893D01*
X90744728Y-145964893D01*
X90896493Y-145813128D01*
X90896493Y-145813127D01*
X91022655Y-145639482D01*
X91120096Y-145448243D01*
X91186424Y-145244107D01*
X91197402Y-145174800D01*
X90037251Y-145174800D01*
X90068381Y-145120881D01*
X90103000Y-144991680D01*
X90103000Y-144857920D01*
X90068381Y-144728719D01*
X90037251Y-144674800D01*
X91197402Y-144674800D01*
X91186424Y-144605492D01*
X91120096Y-144401356D01*
X91022655Y-144210117D01*
X90896493Y-144036472D01*
X90896493Y-144036471D01*
X90744728Y-143884706D01*
X90573596Y-143760370D01*
X90530931Y-143705040D01*
X90524952Y-143635426D01*
X90557558Y-143573631D01*
X90573597Y-143559734D01*
X90575534Y-143558326D01*
X90575537Y-143558325D01*
X90750263Y-143431379D01*
X90902979Y-143278663D01*
X91029925Y-143103937D01*
X91127975Y-142911504D01*
X91194715Y-142706101D01*
X91197774Y-142686789D01*
X91228500Y-142492792D01*
X91228500Y-142276807D01*
X91194715Y-142063498D01*
X91163748Y-141968195D01*
X91127975Y-141858096D01*
X91127973Y-141858093D01*
X91127973Y-141858091D01*
X91029924Y-141665662D01*
X91001785Y-141626932D01*
X90902979Y-141490937D01*
X90750263Y-141338221D01*
X90580825Y-141215117D01*
X90538161Y-141159788D01*
X90532182Y-141090175D01*
X90564788Y-141028380D01*
X90580826Y-141014482D01*
X90750263Y-140891379D01*
X90902979Y-140738663D01*
X91029925Y-140563937D01*
X91127975Y-140371504D01*
X91194715Y-140166101D01*
X91228500Y-139952792D01*
X91228500Y-139736807D01*
X91194715Y-139523498D01*
X91163748Y-139428195D01*
X91127975Y-139318096D01*
X91127973Y-139318093D01*
X91127973Y-139318091D01*
X91040284Y-139145994D01*
X91029925Y-139125663D01*
X90902979Y-138950937D01*
X90750263Y-138798221D01*
X90580825Y-138675117D01*
X90538161Y-138619788D01*
X90532182Y-138550175D01*
X90564788Y-138488380D01*
X90580826Y-138474482D01*
X90586859Y-138470099D01*
X90750263Y-138351379D01*
X90902979Y-138198663D01*
X91029925Y-138023937D01*
X91127975Y-137831504D01*
X91194715Y-137626101D01*
X91199357Y-137596792D01*
X91228500Y-137412792D01*
X91228500Y-137196807D01*
X91194715Y-136983498D01*
X91156291Y-136865244D01*
X91127975Y-136778096D01*
X91127973Y-136778093D01*
X91127973Y-136778091D01*
X91041561Y-136608500D01*
X91029925Y-136585663D01*
X90902979Y-136410937D01*
X90750263Y-136258221D01*
X90580825Y-136135117D01*
X90538161Y-136079788D01*
X90532182Y-136010175D01*
X90564788Y-135948380D01*
X90580826Y-135934482D01*
X90613248Y-135910926D01*
X90750263Y-135811379D01*
X90902979Y-135658663D01*
X91029925Y-135483937D01*
X91127975Y-135291504D01*
X91194715Y-135086101D01*
X91209367Y-134993591D01*
X91228500Y-134872792D01*
X91228500Y-134656807D01*
X91194715Y-134443498D01*
X91163748Y-134348195D01*
X91127975Y-134238096D01*
X91127973Y-134238093D01*
X91127973Y-134238091D01*
X91029924Y-134045662D01*
X90902979Y-133870937D01*
X90750263Y-133718221D01*
X90580825Y-133595117D01*
X90538161Y-133539788D01*
X90532182Y-133470175D01*
X90564788Y-133408380D01*
X90580826Y-133394482D01*
X90622390Y-133364284D01*
X90750263Y-133271379D01*
X90902979Y-133118663D01*
X91029925Y-132943937D01*
X91127975Y-132751504D01*
X91194715Y-132546101D01*
X91200129Y-132511916D01*
X91228500Y-132332792D01*
X91228500Y-132116807D01*
X91194715Y-131903498D01*
X91155116Y-131781626D01*
X91127975Y-131698096D01*
X91127973Y-131698093D01*
X91127973Y-131698091D01*
X91029924Y-131505662D01*
X91001785Y-131466932D01*
X90902979Y-131330937D01*
X90750263Y-131178221D01*
X90580825Y-131055117D01*
X90538161Y-130999788D01*
X90532182Y-130930175D01*
X90564788Y-130868380D01*
X90580826Y-130854482D01*
X90750263Y-130731379D01*
X90902979Y-130578663D01*
X91029925Y-130403937D01*
X91127975Y-130211504D01*
X91194715Y-130006101D01*
X91199790Y-129974060D01*
X91228500Y-129792792D01*
X91228500Y-129576807D01*
X91194715Y-129363498D01*
X91160340Y-129257705D01*
X91127975Y-129158096D01*
X91127973Y-129158093D01*
X91127973Y-129158091D01*
X91074452Y-129053051D01*
X91029925Y-128965663D01*
X90902979Y-128790937D01*
X90750263Y-128638221D01*
X90580825Y-128515117D01*
X90538161Y-128459788D01*
X90532182Y-128390175D01*
X90564788Y-128328380D01*
X90580826Y-128314482D01*
X90750263Y-128191379D01*
X90902979Y-128038663D01*
X91029925Y-127863937D01*
X91127975Y-127671504D01*
X91194715Y-127466101D01*
X91196327Y-127455925D01*
X91228500Y-127252792D01*
X91228500Y-127036807D01*
X91194715Y-126823498D01*
X91162427Y-126724129D01*
X91127975Y-126618096D01*
X91127973Y-126618093D01*
X91127973Y-126618091D01*
X91063200Y-126490968D01*
X91029925Y-126425663D01*
X90902979Y-126250937D01*
X90750263Y-126098221D01*
X90580825Y-125975117D01*
X90538161Y-125919788D01*
X90532182Y-125850175D01*
X90564788Y-125788380D01*
X90580826Y-125774482D01*
X90750263Y-125651379D01*
X90902979Y-125498663D01*
X91029925Y-125323937D01*
X91127975Y-125131504D01*
X91194715Y-124926101D01*
X91199219Y-124897661D01*
X91228500Y-124712792D01*
X91228500Y-124496807D01*
X91194715Y-124283498D01*
X91163748Y-124188195D01*
X91127975Y-124078096D01*
X91127973Y-124078093D01*
X91127973Y-124078091D01*
X91056402Y-123937627D01*
X91029925Y-123885663D01*
X90902979Y-123710937D01*
X90750263Y-123558221D01*
X90580825Y-123435117D01*
X90538161Y-123379788D01*
X90532182Y-123310175D01*
X90564788Y-123248380D01*
X90580826Y-123234482D01*
X90581261Y-123234166D01*
X90750263Y-123111379D01*
X90902979Y-122958663D01*
X91029925Y-122783937D01*
X91127975Y-122591504D01*
X91194715Y-122386101D01*
X91202655Y-122335968D01*
X91228500Y-122172792D01*
X91228500Y-121956806D01*
X91228499Y-121956799D01*
X91194715Y-121743498D01*
X91127973Y-121538091D01*
X91057487Y-121399756D01*
X91029925Y-121345663D01*
X90902979Y-121170937D01*
X90750263Y-121018221D01*
X90580825Y-120895117D01*
X90538161Y-120839788D01*
X90532182Y-120770175D01*
X90564788Y-120708380D01*
X90580826Y-120694482D01*
X90750263Y-120571379D01*
X90902979Y-120418663D01*
X91029925Y-120243937D01*
X91127975Y-120051504D01*
X91194715Y-119846101D01*
X91196244Y-119836446D01*
X91228500Y-119632792D01*
X91228500Y-119416807D01*
X91194715Y-119203498D01*
X91127973Y-118998091D01*
X91065492Y-118875467D01*
X91029925Y-118805663D01*
X90902979Y-118630937D01*
X90750263Y-118478221D01*
X90580825Y-118355117D01*
X90538161Y-118299788D01*
X90532182Y-118230175D01*
X90564788Y-118168380D01*
X90580826Y-118154482D01*
X90750263Y-118031379D01*
X90902979Y-117878663D01*
X91029925Y-117703937D01*
X91127975Y-117511504D01*
X91194715Y-117306101D01*
X91196244Y-117296446D01*
X91228500Y-117092792D01*
X91228500Y-116876807D01*
X91194715Y-116663498D01*
X91127973Y-116458091D01*
X91071972Y-116348185D01*
X91029925Y-116265663D01*
X90902979Y-116090937D01*
X90750263Y-115938221D01*
X90580825Y-115815117D01*
X90538161Y-115759788D01*
X90532182Y-115690175D01*
X90564788Y-115628380D01*
X90580826Y-115614482D01*
X90595815Y-115603592D01*
X90750263Y-115491379D01*
X90902979Y-115338663D01*
X91029925Y-115163937D01*
X91127975Y-114971504D01*
X91194715Y-114766101D01*
X91196244Y-114756446D01*
X91228500Y-114552792D01*
X91228500Y-114336807D01*
X91194715Y-114123498D01*
X91145106Y-113970819D01*
X91127975Y-113918096D01*
X91127973Y-113918093D01*
X91127973Y-113918091D01*
X91056849Y-113778504D01*
X91029925Y-113725663D01*
X90902979Y-113550937D01*
X90750263Y-113398221D01*
X90580825Y-113275117D01*
X90538161Y-113219788D01*
X90532182Y-113150175D01*
X90564788Y-113088380D01*
X90580826Y-113074482D01*
X90750263Y-112951379D01*
X90902979Y-112798663D01*
X91029925Y-112623937D01*
X91127975Y-112431504D01*
X91194715Y-112226101D01*
X91196244Y-112216446D01*
X91228500Y-112012792D01*
X91228500Y-111796807D01*
X91194715Y-111583498D01*
X91145720Y-111432709D01*
X91127975Y-111378096D01*
X91127973Y-111378093D01*
X91127973Y-111378091D01*
X91029924Y-111185662D01*
X90902979Y-111010937D01*
X90750263Y-110858221D01*
X90580825Y-110735117D01*
X90538161Y-110679788D01*
X90532182Y-110610175D01*
X90564788Y-110548380D01*
X90580826Y-110534482D01*
X90750263Y-110411379D01*
X90902979Y-110258663D01*
X91029925Y-110083937D01*
X91127975Y-109891504D01*
X91194715Y-109686101D01*
X91205422Y-109618500D01*
X91207057Y-109608176D01*
X91236986Y-109545041D01*
X91296297Y-109508109D01*
X91366160Y-109509107D01*
G37*
%TD.AperFunction*%
%TA.AperFunction,Conductor*%
G36*
X119047158Y-130448185D02*
G01*
X119080433Y-130479611D01*
X119153760Y-130580536D01*
X119176932Y-130612430D01*
X119322571Y-130758069D01*
X119322576Y-130758073D01*
X119349222Y-130777432D01*
X119489197Y-130879129D01*
X119672710Y-130972634D01*
X119826448Y-131022586D01*
X119853994Y-131031537D01*
X119911670Y-131070975D01*
X119938868Y-131135333D01*
X119926953Y-131204180D01*
X119879709Y-131255655D01*
X119853995Y-131267399D01*
X119675968Y-131325244D01*
X119493644Y-131418143D01*
X119449077Y-131450523D01*
X119449077Y-131450524D01*
X120045591Y-132047037D01*
X119982007Y-132064075D01*
X119867993Y-132129901D01*
X119774901Y-132222993D01*
X119709075Y-132337007D01*
X119692037Y-132400591D01*
X119095524Y-131804077D01*
X119095523Y-131804077D01*
X119063143Y-131848644D01*
X118970244Y-132030968D01*
X118916859Y-132195270D01*
X118877421Y-132252945D01*
X118813062Y-132280143D01*
X118744216Y-132268228D01*
X118711247Y-132244632D01*
X118463071Y-131996455D01*
X118429586Y-131935132D01*
X118434570Y-131865440D01*
X118450437Y-131835885D01*
X118454127Y-131830806D01*
X118467747Y-131804077D01*
X118547634Y-131647290D01*
X118611280Y-131451408D01*
X118643500Y-131247981D01*
X118643500Y-131042019D01*
X118629686Y-130954800D01*
X118611280Y-130838591D01*
X118576443Y-130731376D01*
X118547634Y-130642710D01*
X118547631Y-130642706D01*
X118547631Y-130642703D01*
X118530354Y-130608796D01*
X118517457Y-130540127D01*
X118543732Y-130475386D01*
X118600838Y-130435129D01*
X118640838Y-130428500D01*
X118980119Y-130428500D01*
X119047158Y-130448185D01*
G37*
%TD.AperFunction*%
%TA.AperFunction,Conductor*%
G36*
X116869075Y-123027993D02*
G01*
X116934901Y-123142007D01*
X117027993Y-123235099D01*
X117142007Y-123300925D01*
X117205590Y-123317962D01*
X116609076Y-123914474D01*
X116653650Y-123946859D01*
X116835968Y-124039754D01*
X117013995Y-124097600D01*
X117071670Y-124137038D01*
X117098868Y-124201397D01*
X117086953Y-124270243D01*
X117039709Y-124321719D01*
X117013995Y-124333462D01*
X116832705Y-124392367D01*
X116649193Y-124485873D01*
X116482576Y-124606926D01*
X116482571Y-124606930D01*
X116336930Y-124752571D01*
X116336926Y-124752576D01*
X116215873Y-124919193D01*
X116122367Y-125102705D01*
X116058719Y-125298591D01*
X116029507Y-125483034D01*
X116026500Y-125502019D01*
X116026500Y-125707981D01*
X116029576Y-125727399D01*
X116058719Y-125911408D01*
X116122367Y-126107294D01*
X116165727Y-126192391D01*
X116203167Y-126265871D01*
X116215873Y-126290806D01*
X116336926Y-126457423D01*
X116336930Y-126457428D01*
X116482571Y-126603069D01*
X116482576Y-126603073D01*
X116528511Y-126636446D01*
X116649197Y-126724129D01*
X116766128Y-126783709D01*
X116832705Y-126817632D01*
X116832707Y-126817632D01*
X116832710Y-126817634D01*
X116850758Y-126823498D01*
X117000242Y-126872069D01*
X117057917Y-126911507D01*
X117085115Y-126975866D01*
X117073200Y-127044712D01*
X117025956Y-127096188D01*
X117000242Y-127107931D01*
X116832705Y-127162367D01*
X116649193Y-127255873D01*
X116482576Y-127376926D01*
X116482571Y-127376930D01*
X116336930Y-127522571D01*
X116336926Y-127522576D01*
X116215873Y-127689193D01*
X116122367Y-127872705D01*
X116058719Y-128068591D01*
X116026500Y-128272019D01*
X116026500Y-128477980D01*
X116058719Y-128681408D01*
X116122367Y-128877292D01*
X116124359Y-128881201D01*
X116137257Y-128949870D01*
X116110983Y-129014611D01*
X116053878Y-129054870D01*
X116013876Y-129061500D01*
X114925543Y-129061500D01*
X114858504Y-129041815D01*
X114837862Y-129025181D01*
X113460012Y-127647331D01*
X113426527Y-127586008D01*
X113425220Y-127540256D01*
X113433500Y-127487981D01*
X113433500Y-127282019D01*
X113401280Y-127078592D01*
X113337634Y-126882710D01*
X113337632Y-126882707D01*
X113337632Y-126882705D01*
X113293966Y-126797007D01*
X113244129Y-126699197D01*
X113185206Y-126618096D01*
X113123073Y-126532576D01*
X113123069Y-126532571D01*
X112977428Y-126386930D01*
X112977423Y-126386926D01*
X112947181Y-126364954D01*
X112904515Y-126309625D01*
X112898536Y-126240011D01*
X112931141Y-126178216D01*
X112991980Y-126143859D01*
X113006810Y-126141347D01*
X113032372Y-126138598D01*
X113032379Y-126138596D01*
X113167086Y-126088354D01*
X113167093Y-126088350D01*
X113282187Y-126002190D01*
X113282190Y-126002187D01*
X113368350Y-125887093D01*
X113368354Y-125887086D01*
X113418596Y-125752379D01*
X113418598Y-125752372D01*
X113424999Y-125692844D01*
X113425000Y-125692827D01*
X113425000Y-125095000D01*
X112440686Y-125095000D01*
X112445080Y-125090606D01*
X112497741Y-124999394D01*
X112525000Y-124897661D01*
X112525000Y-124792339D01*
X112497741Y-124690606D01*
X112445080Y-124599394D01*
X112440686Y-124595000D01*
X113425000Y-124595000D01*
X113425000Y-123997172D01*
X113424999Y-123997155D01*
X113418598Y-123937627D01*
X113418596Y-123937620D01*
X113368354Y-123802913D01*
X113368350Y-123802906D01*
X113282190Y-123687812D01*
X113200644Y-123626766D01*
X113158774Y-123570832D01*
X113153790Y-123501140D01*
X113187276Y-123439818D01*
X113248599Y-123406333D01*
X113274956Y-123403500D01*
X115204006Y-123403500D01*
X115277276Y-123388925D01*
X115277277Y-123388925D01*
X115295719Y-123385256D01*
X115350547Y-123374351D01*
X115488584Y-123317174D01*
X115612815Y-123234166D01*
X115845782Y-123001198D01*
X115907101Y-122967716D01*
X115976793Y-122972700D01*
X116032727Y-123014571D01*
X116055933Y-123069483D01*
X116067010Y-123139418D01*
X116130244Y-123334031D01*
X116223141Y-123516350D01*
X116223147Y-123516359D01*
X116255523Y-123560921D01*
X116255524Y-123560922D01*
X116852037Y-122964408D01*
X116869075Y-123027993D01*
G37*
%TD.AperFunction*%
%TA.AperFunction,Conductor*%
G36*
X118899092Y-120843185D02*
G01*
X118944847Y-120895989D01*
X118954791Y-120965147D01*
X118949984Y-120985819D01*
X118898719Y-121143591D01*
X118866500Y-121347019D01*
X118866500Y-121552980D01*
X118898719Y-121756408D01*
X118962367Y-121952294D01*
X119026671Y-122078496D01*
X119042253Y-122109077D01*
X119055873Y-122135806D01*
X119176926Y-122302423D01*
X119176930Y-122302428D01*
X119322571Y-122448069D01*
X119322576Y-122448073D01*
X119369579Y-122482222D01*
X119489197Y-122569129D01*
X119606128Y-122628709D01*
X119672705Y-122662632D01*
X119672707Y-122662632D01*
X119672710Y-122662634D01*
X119745804Y-122686383D01*
X119840242Y-122717069D01*
X119897917Y-122756507D01*
X119925115Y-122820866D01*
X119913200Y-122889712D01*
X119865956Y-122941188D01*
X119840242Y-122952931D01*
X119672705Y-123007367D01*
X119489193Y-123100873D01*
X119322576Y-123221926D01*
X119322571Y-123221930D01*
X119176930Y-123367571D01*
X119176926Y-123367576D01*
X119055873Y-123534193D01*
X118962367Y-123717705D01*
X118898719Y-123913591D01*
X118866500Y-124117019D01*
X118866500Y-124322980D01*
X118898719Y-124526408D01*
X118962367Y-124722294D01*
X119026671Y-124848496D01*
X119051722Y-124897661D01*
X119055873Y-124905806D01*
X119176926Y-125072423D01*
X119176930Y-125072428D01*
X119322571Y-125218069D01*
X119322576Y-125218073D01*
X119433401Y-125298591D01*
X119489197Y-125339129D01*
X119672710Y-125432634D01*
X119826448Y-125482586D01*
X119853994Y-125491537D01*
X119911670Y-125530975D01*
X119938868Y-125595333D01*
X119926953Y-125664180D01*
X119879709Y-125715655D01*
X119853995Y-125727399D01*
X119675968Y-125785244D01*
X119493644Y-125878143D01*
X119449077Y-125910523D01*
X119449077Y-125910524D01*
X120045591Y-126507037D01*
X119982007Y-126524075D01*
X119867993Y-126589901D01*
X119774901Y-126682993D01*
X119709075Y-126797007D01*
X119692037Y-126860590D01*
X119095524Y-126264077D01*
X119095523Y-126264077D01*
X119063143Y-126308644D01*
X118970244Y-126490968D01*
X118907009Y-126685582D01*
X118875000Y-126887682D01*
X118875000Y-127092317D01*
X118907009Y-127294417D01*
X118970244Y-127489031D01*
X119063141Y-127671350D01*
X119063147Y-127671359D01*
X119095523Y-127715921D01*
X119095524Y-127715922D01*
X119692037Y-127119409D01*
X119709075Y-127182993D01*
X119774901Y-127297007D01*
X119867993Y-127390099D01*
X119982007Y-127455925D01*
X120045590Y-127472962D01*
X119449076Y-128069474D01*
X119493650Y-128101859D01*
X119675968Y-128194754D01*
X119853995Y-128252600D01*
X119911670Y-128292038D01*
X119938868Y-128356397D01*
X119926953Y-128425243D01*
X119879709Y-128476719D01*
X119853995Y-128488462D01*
X119672705Y-128547367D01*
X119489193Y-128640873D01*
X119322576Y-128761926D01*
X119322571Y-128761930D01*
X119176928Y-128907573D01*
X119102234Y-129010384D01*
X119046904Y-129053051D01*
X119001915Y-129061500D01*
X118656124Y-129061500D01*
X118589085Y-129041815D01*
X118543330Y-128989011D01*
X118533386Y-128919853D01*
X118545641Y-128881201D01*
X118547634Y-128877290D01*
X118611280Y-128681408D01*
X118643500Y-128477981D01*
X118643500Y-128272019D01*
X118638021Y-128237426D01*
X118611280Y-128068591D01*
X118547632Y-127872705D01*
X118513709Y-127806128D01*
X118454129Y-127689197D01*
X118391254Y-127602656D01*
X118333073Y-127522576D01*
X118333069Y-127522571D01*
X118187428Y-127376930D01*
X118187423Y-127376926D01*
X118020806Y-127255873D01*
X118020805Y-127255872D01*
X118020803Y-127255871D01*
X117963496Y-127226671D01*
X117837294Y-127162367D01*
X117669757Y-127107931D01*
X117612082Y-127068493D01*
X117584884Y-127004134D01*
X117596799Y-126935288D01*
X117644043Y-126883812D01*
X117669757Y-126872069D01*
X117700923Y-126861942D01*
X117837290Y-126817634D01*
X118020803Y-126724129D01*
X118187430Y-126603068D01*
X118333068Y-126457430D01*
X118454129Y-126290803D01*
X118547634Y-126107290D01*
X118611280Y-125911408D01*
X118643500Y-125707981D01*
X118643500Y-125502019D01*
X118632510Y-125432632D01*
X118611280Y-125298591D01*
X118556991Y-125131508D01*
X118547634Y-125102710D01*
X118547632Y-125102707D01*
X118547632Y-125102705D01*
X118513709Y-125036128D01*
X118454129Y-124919197D01*
X118361962Y-124792339D01*
X118333073Y-124752576D01*
X118333069Y-124752571D01*
X118187428Y-124606930D01*
X118187423Y-124606926D01*
X118020806Y-124485873D01*
X118020805Y-124485872D01*
X118020803Y-124485871D01*
X117940590Y-124445000D01*
X117837294Y-124392367D01*
X117656004Y-124333462D01*
X117598329Y-124294024D01*
X117571131Y-124229665D01*
X117583046Y-124160819D01*
X117630290Y-124109343D01*
X117656005Y-124097600D01*
X117834029Y-124039755D01*
X118016349Y-123946859D01*
X118060921Y-123914474D01*
X117464409Y-123317962D01*
X117527993Y-123300925D01*
X117642007Y-123235099D01*
X117735099Y-123142007D01*
X117800925Y-123027993D01*
X117817962Y-122964410D01*
X118414474Y-123560922D01*
X118414474Y-123560921D01*
X118446859Y-123516349D01*
X118539755Y-123334031D01*
X118602990Y-123139417D01*
X118635000Y-122937317D01*
X118635000Y-122732682D01*
X118602990Y-122530582D01*
X118539755Y-122335968D01*
X118446859Y-122153650D01*
X118414474Y-122109077D01*
X118414474Y-122109076D01*
X117817962Y-122705589D01*
X117800925Y-122642007D01*
X117735099Y-122527993D01*
X117642007Y-122434901D01*
X117527993Y-122369075D01*
X117464408Y-122352037D01*
X118060922Y-121755524D01*
X118060921Y-121755523D01*
X118016359Y-121723147D01*
X118016350Y-121723141D01*
X117834031Y-121630244D01*
X117656004Y-121572399D01*
X117598329Y-121532961D01*
X117571131Y-121468602D01*
X117583046Y-121399756D01*
X117630290Y-121348280D01*
X117656005Y-121336537D01*
X117837290Y-121277634D01*
X118020803Y-121184129D01*
X118187430Y-121063068D01*
X118333068Y-120917430D01*
X118364175Y-120874615D01*
X118419505Y-120831949D01*
X118464493Y-120823500D01*
X118832053Y-120823500D01*
X118899092Y-120843185D01*
G37*
%TD.AperFunction*%
%TA.AperFunction,Conductor*%
G36*
X111042083Y-123423185D02*
G01*
X111087838Y-123475989D01*
X111097782Y-123545147D01*
X111068757Y-123608703D01*
X111049356Y-123626766D01*
X110967809Y-123687812D01*
X110881649Y-123802906D01*
X110881645Y-123802913D01*
X110831403Y-123937620D01*
X110831401Y-123937627D01*
X110825000Y-123997155D01*
X110825000Y-124595000D01*
X111809314Y-124595000D01*
X111804920Y-124599394D01*
X111752259Y-124690606D01*
X111725000Y-124792339D01*
X111725000Y-124897661D01*
X111752259Y-124999394D01*
X111804920Y-125090606D01*
X111809314Y-125095000D01*
X110825000Y-125095000D01*
X110825000Y-125692844D01*
X110831401Y-125752372D01*
X110831403Y-125752379D01*
X110881645Y-125887086D01*
X110881649Y-125887093D01*
X110967809Y-126002187D01*
X110967812Y-126002190D01*
X111082906Y-126088350D01*
X111082913Y-126088354D01*
X111217620Y-126138596D01*
X111217626Y-126138598D01*
X111243190Y-126141347D01*
X111307740Y-126168086D01*
X111347588Y-126225478D01*
X111350081Y-126295304D01*
X111314428Y-126355392D01*
X111302819Y-126364953D01*
X111272578Y-126386924D01*
X111272571Y-126386930D01*
X111126934Y-126532567D01*
X111126929Y-126532573D01*
X111095825Y-126575385D01*
X111040495Y-126618051D01*
X110995507Y-126626500D01*
X109444493Y-126626500D01*
X109377454Y-126606815D01*
X109344175Y-126575385D01*
X109313070Y-126532573D01*
X109313068Y-126532570D01*
X109167430Y-126386932D01*
X109167426Y-126386928D01*
X109147477Y-126372435D01*
X109104810Y-126317106D01*
X109098830Y-126247492D01*
X109131436Y-126185697D01*
X109192274Y-126151339D01*
X109207092Y-126148828D01*
X109224201Y-126146989D01*
X109224206Y-126146987D01*
X109224207Y-126146987D01*
X109250535Y-126137166D01*
X109361204Y-126095889D01*
X109478261Y-126008261D01*
X109565889Y-125891204D01*
X109616989Y-125754201D01*
X109621958Y-125707980D01*
X109623499Y-125693654D01*
X109623500Y-125693637D01*
X109623500Y-123996362D01*
X109623499Y-123996345D01*
X109618178Y-123946859D01*
X109616989Y-123935799D01*
X109565889Y-123798796D01*
X109478261Y-123681739D01*
X109404826Y-123626766D01*
X109362956Y-123570833D01*
X109357972Y-123501141D01*
X109391457Y-123439818D01*
X109452781Y-123406334D01*
X109479138Y-123403500D01*
X110975044Y-123403500D01*
X111042083Y-123423185D01*
G37*
%TD.AperFunction*%
%TA.AperFunction,Conductor*%
G36*
X116343065Y-115423883D02*
G01*
X116369425Y-115425769D01*
X116378478Y-115431587D01*
X116385518Y-115433119D01*
X116413772Y-115454270D01*
X116482571Y-115523069D01*
X116482576Y-115523073D01*
X116499272Y-115535203D01*
X116649197Y-115644129D01*
X116832710Y-115737634D01*
X116986448Y-115787586D01*
X117013994Y-115796537D01*
X117071670Y-115835975D01*
X117098868Y-115900333D01*
X117086953Y-115969180D01*
X117039709Y-116020655D01*
X117013995Y-116032399D01*
X116835968Y-116090244D01*
X116653644Y-116183143D01*
X116609077Y-116215523D01*
X116609077Y-116215524D01*
X117205590Y-116812037D01*
X117142007Y-116829075D01*
X117027993Y-116894901D01*
X116934901Y-116987993D01*
X116869075Y-117102007D01*
X116852037Y-117165590D01*
X116255524Y-116569077D01*
X116255523Y-116569077D01*
X116223143Y-116613644D01*
X116130244Y-116795968D01*
X116067009Y-116990582D01*
X116035000Y-117192682D01*
X116035000Y-117397317D01*
X116067009Y-117599417D01*
X116120546Y-117764181D01*
X116122541Y-117834022D01*
X116086461Y-117893855D01*
X116023761Y-117924684D01*
X116002615Y-117926500D01*
X114400292Y-117926500D01*
X114345527Y-117937394D01*
X114345526Y-117937394D01*
X114253760Y-117955647D01*
X114253752Y-117955649D01*
X114115717Y-118012825D01*
X113991482Y-118095835D01*
X113641378Y-118445939D01*
X113580055Y-118479424D01*
X113510363Y-118474440D01*
X113454430Y-118432568D01*
X113431226Y-118377662D01*
X113425219Y-118339739D01*
X113434175Y-118270451D01*
X113460009Y-118232670D01*
X116238412Y-115454268D01*
X116246355Y-115449931D01*
X116251781Y-115442684D01*
X116276540Y-115433449D01*
X116299733Y-115420785D01*
X116308762Y-115421430D01*
X116317245Y-115418267D01*
X116343065Y-115423883D01*
G37*
%TD.AperFunction*%
%TA.AperFunction,Conductor*%
G36*
X124677726Y-96094826D02*
G01*
X124723639Y-96147492D01*
X124735000Y-96199342D01*
X124735000Y-103106561D01*
X124715315Y-103173600D01*
X124662511Y-103219355D01*
X124593353Y-103229299D01*
X124529797Y-103200274D01*
X124523319Y-103194242D01*
X124402287Y-103073210D01*
X124402285Y-103073208D01*
X124248392Y-102961398D01*
X124219124Y-102946485D01*
X124078907Y-102875040D01*
X123897991Y-102816256D01*
X123710116Y-102786500D01*
X123710111Y-102786500D01*
X123519889Y-102786500D01*
X123519884Y-102786500D01*
X123332008Y-102816256D01*
X123151092Y-102875040D01*
X122981607Y-102961398D01*
X122893806Y-103025189D01*
X122827715Y-103073208D01*
X122827713Y-103073210D01*
X122827712Y-103073210D01*
X122693210Y-103207712D01*
X122693210Y-103207713D01*
X122693208Y-103207715D01*
X122671045Y-103238220D01*
X122581398Y-103361607D01*
X122495040Y-103531092D01*
X122436257Y-103712007D01*
X122407115Y-103895998D01*
X122377185Y-103959132D01*
X122317874Y-103996063D01*
X122248011Y-103995065D01*
X122196961Y-103964280D01*
X119828518Y-101595836D01*
X119828517Y-101595835D01*
X119758002Y-101548719D01*
X119704284Y-101512826D01*
X119610441Y-101473955D01*
X119566247Y-101455649D01*
X119566239Y-101455647D01*
X119499874Y-101442446D01*
X119499872Y-101442445D01*
X119492976Y-101441074D01*
X119419706Y-101426500D01*
X119308539Y-101426500D01*
X119303403Y-101426072D01*
X119275426Y-101415261D01*
X119246663Y-101406815D01*
X119243185Y-101402802D01*
X119238230Y-101400887D01*
X119220537Y-101376664D01*
X119200908Y-101354011D01*
X119200152Y-101348755D01*
X119197019Y-101344466D01*
X119195231Y-101314531D01*
X119190964Y-101284853D01*
X119193170Y-101280021D01*
X119192854Y-101274720D01*
X119207531Y-101248575D01*
X119216842Y-101228186D01*
X119217257Y-101220810D01*
X118575698Y-100579251D01*
X118677330Y-100505412D01*
X118855412Y-100327330D01*
X118929251Y-100225698D01*
X119570810Y-100867257D01*
X119677116Y-100733956D01*
X119826507Y-100496200D01*
X119948337Y-100243217D01*
X120041077Y-99978180D01*
X120041078Y-99978178D01*
X120103560Y-99704424D01*
X120103562Y-99704412D01*
X120134999Y-99425401D01*
X120135000Y-99425399D01*
X120135000Y-99144600D01*
X120134999Y-99144598D01*
X120103562Y-98865587D01*
X120103560Y-98865575D01*
X120041078Y-98591821D01*
X120041077Y-98591819D01*
X119948337Y-98326782D01*
X119826507Y-98073799D01*
X119677115Y-97836043D01*
X119570810Y-97702741D01*
X118929251Y-98344300D01*
X118855412Y-98242670D01*
X118677330Y-98064588D01*
X118575697Y-97990747D01*
X119217257Y-97349187D01*
X119083956Y-97242884D01*
X118846200Y-97093492D01*
X118593217Y-96971662D01*
X118328180Y-96878922D01*
X118328178Y-96878921D01*
X118054424Y-96816439D01*
X118054412Y-96816437D01*
X117775401Y-96785000D01*
X117494598Y-96785000D01*
X117215587Y-96816437D01*
X117215575Y-96816439D01*
X116941821Y-96878921D01*
X116941819Y-96878922D01*
X116676782Y-96971662D01*
X116423799Y-97093492D01*
X116186043Y-97242884D01*
X116052741Y-97349187D01*
X116694301Y-97990747D01*
X116592670Y-98064588D01*
X116414588Y-98242670D01*
X116340747Y-98344301D01*
X115699187Y-97702741D01*
X115592884Y-97836043D01*
X115443492Y-98073799D01*
X115321662Y-98326782D01*
X115228922Y-98591819D01*
X115228921Y-98591821D01*
X115166439Y-98865575D01*
X115166437Y-98865587D01*
X115135000Y-99144598D01*
X115135000Y-99425401D01*
X115166437Y-99704412D01*
X115166439Y-99704424D01*
X115228921Y-99978178D01*
X115228922Y-99978180D01*
X115321662Y-100243217D01*
X115443492Y-100496200D01*
X115592884Y-100733956D01*
X115699187Y-100867257D01*
X116340747Y-100225697D01*
X116414588Y-100327330D01*
X116592670Y-100505412D01*
X116694300Y-100579251D01*
X116052741Y-101220810D01*
X116053474Y-101233856D01*
X116073749Y-101262741D01*
X116076599Y-101332552D01*
X116041254Y-101392823D01*
X115978935Y-101424416D01*
X115956296Y-101426500D01*
X113960543Y-101426500D01*
X113893504Y-101406815D01*
X113872862Y-101390181D01*
X113460012Y-100977331D01*
X113426527Y-100916008D01*
X113425220Y-100870256D01*
X113433500Y-100817981D01*
X113433500Y-100612019D01*
X113414145Y-100489820D01*
X113401280Y-100408591D01*
X113337632Y-100212705D01*
X113288933Y-100117130D01*
X113244129Y-100029197D01*
X113191312Y-99956500D01*
X113123073Y-99862576D01*
X113123069Y-99862571D01*
X112977428Y-99716930D01*
X112977423Y-99716926D01*
X112947181Y-99694954D01*
X112904515Y-99639625D01*
X112898536Y-99570011D01*
X112931141Y-99508216D01*
X112991980Y-99473859D01*
X113006810Y-99471347D01*
X113032372Y-99468598D01*
X113032379Y-99468596D01*
X113167086Y-99418354D01*
X113167093Y-99418350D01*
X113282187Y-99332190D01*
X113282190Y-99332187D01*
X113368350Y-99217093D01*
X113368354Y-99217086D01*
X113412849Y-99097791D01*
X113412849Y-99097790D01*
X113418596Y-99082383D01*
X113418598Y-99082372D01*
X113424999Y-99022844D01*
X113425000Y-99022827D01*
X113425000Y-98425000D01*
X112440686Y-98425000D01*
X112445080Y-98420606D01*
X112497741Y-98329394D01*
X112525000Y-98227661D01*
X112525000Y-98122339D01*
X112497741Y-98020606D01*
X112445080Y-97929394D01*
X112440686Y-97925000D01*
X113425000Y-97925000D01*
X113425000Y-97327172D01*
X113424999Y-97327155D01*
X113418598Y-97267627D01*
X113418596Y-97267620D01*
X113368354Y-97132913D01*
X113368350Y-97132906D01*
X113282190Y-97017812D01*
X113282187Y-97017809D01*
X113167093Y-96931649D01*
X113167086Y-96931645D01*
X113032379Y-96881403D01*
X113032372Y-96881401D01*
X112972844Y-96875000D01*
X112375000Y-96875000D01*
X112375000Y-97859314D01*
X112370606Y-97854920D01*
X112279394Y-97802259D01*
X112177661Y-97775000D01*
X112072339Y-97775000D01*
X111970606Y-97802259D01*
X111879394Y-97854920D01*
X111875000Y-97859314D01*
X111875000Y-96875000D01*
X111277155Y-96875000D01*
X111217627Y-96881401D01*
X111217620Y-96881403D01*
X111082913Y-96931645D01*
X111082906Y-96931649D01*
X110967812Y-97017809D01*
X110967809Y-97017812D01*
X110881649Y-97132906D01*
X110881645Y-97132913D01*
X110831403Y-97267620D01*
X110831401Y-97267627D01*
X110825000Y-97327155D01*
X110825000Y-97925000D01*
X111809314Y-97925000D01*
X111804920Y-97929394D01*
X111752259Y-98020606D01*
X111725000Y-98122339D01*
X111725000Y-98227661D01*
X111752259Y-98329394D01*
X111804920Y-98420606D01*
X111809314Y-98425000D01*
X110825000Y-98425000D01*
X110825000Y-99022844D01*
X110831401Y-99082372D01*
X110831403Y-99082379D01*
X110881645Y-99217086D01*
X110881649Y-99217093D01*
X110967809Y-99332187D01*
X110967812Y-99332190D01*
X111082906Y-99418350D01*
X111082913Y-99418354D01*
X111217620Y-99468596D01*
X111217626Y-99468598D01*
X111243190Y-99471347D01*
X111307740Y-99498086D01*
X111347588Y-99555478D01*
X111350081Y-99625304D01*
X111314428Y-99685392D01*
X111302819Y-99694953D01*
X111272578Y-99716924D01*
X111272571Y-99716930D01*
X111126934Y-99862567D01*
X111126929Y-99862573D01*
X111095825Y-99905385D01*
X111040495Y-99948051D01*
X110995507Y-99956500D01*
X109444493Y-99956500D01*
X109377454Y-99936815D01*
X109344175Y-99905385D01*
X109313070Y-99862573D01*
X109313068Y-99862570D01*
X109167430Y-99716932D01*
X109167426Y-99716928D01*
X109147477Y-99702435D01*
X109104810Y-99647106D01*
X109098830Y-99577492D01*
X109131436Y-99515697D01*
X109192274Y-99481339D01*
X109207092Y-99478828D01*
X109224201Y-99476989D01*
X109224206Y-99476987D01*
X109224207Y-99476987D01*
X109266870Y-99461074D01*
X109361204Y-99425889D01*
X109478261Y-99338261D01*
X109565889Y-99221204D01*
X109616989Y-99084201D01*
X109620591Y-99050692D01*
X109623499Y-99023654D01*
X109623500Y-99023637D01*
X109623500Y-97326362D01*
X109623499Y-97326345D01*
X109620157Y-97295270D01*
X109616989Y-97265799D01*
X109565889Y-97128796D01*
X109478261Y-97011739D01*
X109361204Y-96924111D01*
X109224203Y-96873011D01*
X109163654Y-96866500D01*
X109163638Y-96866500D01*
X107466362Y-96866500D01*
X107466345Y-96866500D01*
X107405797Y-96873011D01*
X107405795Y-96873011D01*
X107268795Y-96924111D01*
X107151739Y-97011739D01*
X107064111Y-97128795D01*
X107013011Y-97265795D01*
X107013011Y-97265797D01*
X107006500Y-97326345D01*
X107006500Y-99023654D01*
X107013011Y-99084202D01*
X107013011Y-99084204D01*
X107062575Y-99217086D01*
X107064111Y-99221204D01*
X107151739Y-99338261D01*
X107268796Y-99425889D01*
X107324056Y-99446500D01*
X107405795Y-99476988D01*
X107405798Y-99476989D01*
X107422893Y-99478827D01*
X107487444Y-99505565D01*
X107527293Y-99562957D01*
X107529786Y-99632782D01*
X107494134Y-99692871D01*
X107482524Y-99702434D01*
X107462571Y-99716930D01*
X107316930Y-99862571D01*
X107316926Y-99862576D01*
X107195873Y-100029193D01*
X107102367Y-100212705D01*
X107038719Y-100408591D01*
X107006500Y-100612019D01*
X107006500Y-100817980D01*
X107038719Y-101021408D01*
X107102367Y-101217294D01*
X107195873Y-101400806D01*
X107316926Y-101567423D01*
X107316930Y-101567428D01*
X107462571Y-101713069D01*
X107462576Y-101713073D01*
X107629195Y-101834128D01*
X107708459Y-101874516D01*
X107759254Y-101922490D01*
X107776049Y-101990311D01*
X107753511Y-102056446D01*
X107708459Y-102095484D01*
X107629195Y-102135871D01*
X107462576Y-102256926D01*
X107462571Y-102256930D01*
X107316930Y-102402571D01*
X107316926Y-102402576D01*
X107195873Y-102569193D01*
X107102367Y-102752705D01*
X107038719Y-102948591D01*
X107006500Y-103152019D01*
X107006500Y-103357981D01*
X107008493Y-103370563D01*
X107038719Y-103561408D01*
X107102367Y-103757294D01*
X107195873Y-103940806D01*
X107316926Y-104107423D01*
X107316930Y-104107428D01*
X107462571Y-104253069D01*
X107462576Y-104253073D01*
X107629195Y-104374128D01*
X107708459Y-104414516D01*
X107759254Y-104462490D01*
X107776049Y-104530311D01*
X107753511Y-104596446D01*
X107708459Y-104635484D01*
X107629195Y-104675871D01*
X107462576Y-104796926D01*
X107462571Y-104796930D01*
X107316930Y-104942571D01*
X107316926Y-104942576D01*
X107195873Y-105109193D01*
X107102367Y-105292705D01*
X107038719Y-105488591D01*
X107006500Y-105692019D01*
X107006500Y-105897986D01*
X107014778Y-105950253D01*
X107005823Y-106019546D01*
X106979986Y-106057331D01*
X106602101Y-106435216D01*
X106540778Y-106468701D01*
X106471086Y-106463717D01*
X106415153Y-106421845D01*
X106396490Y-106385856D01*
X106367975Y-106298096D01*
X106367973Y-106298093D01*
X106367973Y-106298091D01*
X106316248Y-106196578D01*
X106269925Y-106105663D01*
X106142979Y-105930937D01*
X105990263Y-105778221D01*
X105820825Y-105655117D01*
X105778161Y-105599788D01*
X105772182Y-105530175D01*
X105804788Y-105468380D01*
X105820826Y-105454482D01*
X105990263Y-105331379D01*
X106142979Y-105178663D01*
X106269925Y-105003937D01*
X106367975Y-104811504D01*
X106434715Y-104606101D01*
X106436244Y-104596446D01*
X106468500Y-104392792D01*
X106468500Y-104176807D01*
X106434715Y-103963498D01*
X106367973Y-103758091D01*
X106269924Y-103565662D01*
X106142979Y-103390937D01*
X105990263Y-103238221D01*
X105815537Y-103111275D01*
X105815535Y-103111274D01*
X105813596Y-103109865D01*
X105770931Y-103054535D01*
X105764952Y-102984922D01*
X105797558Y-102923127D01*
X105813596Y-102909229D01*
X105984728Y-102784893D01*
X106136493Y-102633128D01*
X106136493Y-102633127D01*
X106262655Y-102459482D01*
X106360096Y-102268243D01*
X106426424Y-102064107D01*
X106437402Y-101994800D01*
X105277251Y-101994800D01*
X105308381Y-101940881D01*
X105343000Y-101811680D01*
X105343000Y-101677920D01*
X105308381Y-101548719D01*
X105277251Y-101494800D01*
X106437402Y-101494800D01*
X106426424Y-101425492D01*
X106360096Y-101221356D01*
X106262655Y-101030117D01*
X106136493Y-100856472D01*
X106136493Y-100856471D01*
X105984728Y-100704706D01*
X105807140Y-100575680D01*
X105808390Y-100573959D01*
X105767466Y-100528764D01*
X105756014Y-100459840D01*
X105783643Y-100395665D01*
X105807757Y-100374769D01*
X105807140Y-100373920D01*
X105984727Y-100244893D01*
X105984728Y-100244893D01*
X106136493Y-100093128D01*
X106136493Y-100093127D01*
X106262655Y-99919482D01*
X106360096Y-99728243D01*
X106426424Y-99524107D01*
X106437402Y-99454800D01*
X105277251Y-99454800D01*
X105308381Y-99400881D01*
X105343000Y-99271680D01*
X105343000Y-99137920D01*
X105308381Y-99008719D01*
X105277251Y-98954800D01*
X106437402Y-98954800D01*
X106426424Y-98885492D01*
X106360096Y-98681356D01*
X106262655Y-98490117D01*
X106136493Y-98316472D01*
X106136493Y-98316471D01*
X105984728Y-98164706D01*
X105811082Y-98038544D01*
X105619845Y-97941103D01*
X105415711Y-97874775D01*
X105203723Y-97841200D01*
X105085000Y-97841200D01*
X105085000Y-98762548D01*
X105031081Y-98731419D01*
X104901880Y-98696800D01*
X104768120Y-98696800D01*
X104638919Y-98731419D01*
X104585000Y-98762548D01*
X104585000Y-97841200D01*
X104466277Y-97841200D01*
X104254288Y-97874775D01*
X104050154Y-97941103D01*
X103858917Y-98038544D01*
X103685272Y-98164706D01*
X103685271Y-98164706D01*
X103533506Y-98316471D01*
X103533506Y-98316472D01*
X103407344Y-98490117D01*
X103309903Y-98681356D01*
X103243575Y-98885492D01*
X103232598Y-98954800D01*
X104392749Y-98954800D01*
X104361619Y-99008719D01*
X104327000Y-99137920D01*
X104327000Y-99271680D01*
X104361619Y-99400881D01*
X104392749Y-99454800D01*
X103232598Y-99454800D01*
X103243575Y-99524107D01*
X103309903Y-99728243D01*
X103407344Y-99919482D01*
X103533506Y-100093127D01*
X103533506Y-100093128D01*
X103685271Y-100244893D01*
X103862860Y-100373920D01*
X103861616Y-100375631D01*
X103902559Y-100420890D01*
X103913978Y-100489820D01*
X103886318Y-100553982D01*
X103862248Y-100574837D01*
X103862860Y-100575680D01*
X103685272Y-100704706D01*
X103685271Y-100704706D01*
X103533506Y-100856471D01*
X103533506Y-100856472D01*
X103407344Y-101030117D01*
X103309903Y-101221356D01*
X103243575Y-101425492D01*
X103232598Y-101494800D01*
X104392749Y-101494800D01*
X104361619Y-101548719D01*
X104327000Y-101677920D01*
X104327000Y-101811680D01*
X104361619Y-101940881D01*
X104392749Y-101994800D01*
X103232598Y-101994800D01*
X103243575Y-102064107D01*
X103309903Y-102268243D01*
X103407344Y-102459482D01*
X103533506Y-102633127D01*
X103533506Y-102633128D01*
X103685271Y-102784893D01*
X103856403Y-102909229D01*
X103899068Y-102964559D01*
X103905047Y-103034173D01*
X103872441Y-103095968D01*
X103856403Y-103109865D01*
X103798384Y-103152019D01*
X103679737Y-103238221D01*
X103679735Y-103238223D01*
X103679734Y-103238223D01*
X103527023Y-103390934D01*
X103527023Y-103390935D01*
X103527021Y-103390937D01*
X103517496Y-103404047D01*
X103400075Y-103565662D01*
X103342431Y-103678795D01*
X103294456Y-103729591D01*
X103231946Y-103746500D01*
X102500543Y-103746500D01*
X102433504Y-103726815D01*
X102412862Y-103710181D01*
X98318518Y-99615836D01*
X98318517Y-99615835D01*
X98261132Y-99577492D01*
X98194284Y-99532826D01*
X98056247Y-99475649D01*
X97982976Y-99461074D01*
X97975216Y-99459530D01*
X97975212Y-99459529D01*
X97909709Y-99446500D01*
X97909706Y-99446500D01*
X97745518Y-99446500D01*
X97678479Y-99426815D01*
X97657837Y-99410181D01*
X97607137Y-99359481D01*
X97607132Y-99359477D01*
X97465984Y-99256928D01*
X97465983Y-99256927D01*
X97465981Y-99256926D01*
X97416175Y-99231548D01*
X97310516Y-99177711D01*
X97310513Y-99177710D01*
X97144575Y-99123795D01*
X97084853Y-99114336D01*
X97048235Y-99108536D01*
X96972241Y-99096500D01*
X96797759Y-99096500D01*
X96740314Y-99105598D01*
X96625424Y-99123795D01*
X96459486Y-99177710D01*
X96459483Y-99177711D01*
X96304015Y-99256928D01*
X96162867Y-99359477D01*
X96162862Y-99359481D01*
X96039481Y-99482862D01*
X96039477Y-99482867D01*
X95936928Y-99624015D01*
X95857711Y-99779483D01*
X95857710Y-99779486D01*
X95803795Y-99945424D01*
X95779559Y-100098441D01*
X95749630Y-100161576D01*
X95690318Y-100198507D01*
X95620455Y-100197509D01*
X95569405Y-100166724D01*
X94728518Y-99325836D01*
X94728517Y-99325835D01*
X94625386Y-99256926D01*
X94604284Y-99242826D01*
X94542142Y-99217086D01*
X94466247Y-99185649D01*
X94466239Y-99185647D01*
X94392976Y-99171074D01*
X94319709Y-99156500D01*
X94319706Y-99156500D01*
X91343860Y-99156500D01*
X91276821Y-99136815D01*
X91231066Y-99084011D01*
X91221387Y-99051898D01*
X91194715Y-98883498D01*
X91127973Y-98678091D01*
X91029924Y-98485662D01*
X91001411Y-98446417D01*
X90902979Y-98310937D01*
X90750263Y-98158221D01*
X90575537Y-98031275D01*
X90554598Y-98020606D01*
X90383108Y-97933226D01*
X90177701Y-97866484D01*
X89964392Y-97832700D01*
X89964387Y-97832700D01*
X89225613Y-97832700D01*
X89225608Y-97832700D01*
X89012298Y-97866484D01*
X88806891Y-97933226D01*
X88614462Y-98031275D01*
X88439738Y-98158220D01*
X88314049Y-98283909D01*
X88252726Y-98317393D01*
X88183034Y-98312409D01*
X88127101Y-98270537D01*
X88102684Y-98205073D01*
X88102369Y-98196097D01*
X88104838Y-96308464D01*
X88124610Y-96241452D01*
X88177474Y-96195766D01*
X88228465Y-96184629D01*
X124610629Y-96075343D01*
X124677726Y-96094826D01*
G37*
%TD.AperFunction*%
%TA.AperFunction,Conductor*%
G36*
X105085000Y-101302548D02*
G01*
X105031081Y-101271419D01*
X104901880Y-101236800D01*
X104768120Y-101236800D01*
X104638919Y-101271419D01*
X104585000Y-101302548D01*
X104585000Y-99647051D01*
X104638919Y-99678181D01*
X104768120Y-99712800D01*
X104901880Y-99712800D01*
X105031081Y-99678181D01*
X105085000Y-99647051D01*
X105085000Y-101302548D01*
G37*
%TD.AperFunction*%
%TD*%
D27*
X87831000Y-149701000D02*
X87835000Y-96139000D01*
X124714000Y-95885000D02*
X88089000Y-95885000D01*
X124841000Y-149959000D02*
X88085000Y-149955000D01*
X87835000Y-96139000D02*
G75*
G02*
X88089000Y-95885000I254000J0D01*
G01*
X88085000Y-149955000D02*
G75*
G02*
X87831000Y-149701000I0J254000D01*
G01*
X124714000Y-95885000D02*
G75*
G02*
X125095000Y-96266000I0J-381000D01*
G01*
X125095000Y-149705000D02*
X125095000Y-96266000D01*
X125095000Y-149705000D02*
G75*
G02*
X124841000Y-149959000I-254000J0D01*
G01*
M02*
